M48
; DRILL file {KiCad 9.0.0} date 2025-07-22T11:18:35+0100
; FORMAT={-:-/ absolute / metric / decimal}
; #@! TF.CreationDate,2025-07-22T11:18:35+01:00
; #@! TF.GenerationSoftware,Kicad,Pcbnew,9.0.0
; #@! TF.FileFunction,Plated,1,2,PTH
FMAT,2
METRIC
; #@! TA.AperFunction,Plated,PTH,ComponentDrill
T1C0.200
; #@! TA.AperFunction,Plated,PTH,ViaDrill
T2C0.300
; #@! TA.AperFunction,Plated,PTH,ComponentDrill
T3C0.460
; #@! TA.AperFunction,Plated,PTH,ComponentDrill
T4C0.500
; #@! TA.AperFunction,Plated,PTH,ComponentDrill
T5C0.600
; #@! TA.AperFunction,Plated,PTH,ComponentDrill
T6C0.700
; #@! TA.AperFunction,Plated,PTH,ComponentDrill
T7C1.000
; #@! TA.AperFunction,Plated,PTH,ComponentDrill
T8C1.200
; #@! TA.AperFunction,Plated,PTH,ComponentDrill
T9C1.500
; #@! TA.AperFunction,Plated,PTH,ComponentDrill
T10C3.000
%
G90
G05
T1
X98.52Y-106.6
X98.52Y-108.0
X99.22Y-105.9
X99.22Y-107.3
X99.22Y-108.7
X99.92Y-106.6
X99.92Y-108.0
X100.62Y-105.9
X100.62Y-107.3
X100.62Y-108.7
X101.32Y-106.6
X101.32Y-108.0
T2
X93.7Y-94.15
X95.7Y-98.85
X96.25Y-93.55
X97.05Y-95.4
X97.65Y-92.6
X98.2Y-101.9
X98.55Y-112.2
X98.55Y-118.2
X100.3Y-95.55
X100.6Y-92.8
X100.65Y-90.9
X101.4Y-85.0
X101.95Y-122.55
X102.1Y-130.4
X103.35Y-79.1
X103.35Y-82.65
X103.486Y-126.4
X103.55Y-104.35
X104.0Y-100.1
X104.65Y-91.75
X104.8Y-89.05
X104.85Y-87.6
X104.875Y-106.8
X104.9Y-83.6
X105.6Y-85.065
X105.7Y-83.8
X106.137Y-128.097
X106.45Y-132.35
X106.75Y-103.95
X107.55Y-134.25
X107.75Y-109.65
X107.75Y-118.05
X107.8Y-126.4
X109.6Y-132.5
X109.75Y-128.1
X109.95Y-80.65
X110.0Y-74.3
X110.05Y-125.6
X111.85Y-79.95
X112.1Y-75.65
X112.6Y-78.775
X112.8Y-128.325
X113.85Y-131.45
X114.35Y-127.9
X114.487Y-100.037
X114.524Y-127.102
X114.75Y-128.95
X116.6Y-132.4
X118.45Y-128.15
X118.5Y-126.7
X118.9Y-100.45
X119.85Y-126.7
X119.9Y-128.15
X121.0Y-96.6
X122.25Y-132.35
X123.112Y-128.847
X123.9Y-76.8
X123.9Y-77.8
X123.9Y-78.8
X123.9Y-79.8
X124.575Y-130.1
X124.9Y-75.8
X124.9Y-80.8
X125.9Y-75.8
X125.9Y-79.8
X125.9Y-80.8
X126.9Y-75.8
X126.9Y-80.8
X127.4Y-129.9
X127.9Y-76.8
X127.9Y-77.8
X127.9Y-78.8
X127.9Y-79.8
X127.9Y-81.8
X129.9Y-75.8
X129.9Y-76.8
X129.9Y-77.8
X129.9Y-78.8
X129.95Y-128.75
X130.9Y-79.8
X131.9Y-80.8
X132.9Y-79.8
X132.95Y-127.3
X133.1Y-101.28
X133.16Y-103.86
X133.16Y-106.4
X133.9Y-75.8
X133.9Y-76.8
X133.9Y-77.8
X133.9Y-78.8
X135.3Y-126.3
X135.35Y-93.95
X135.45Y-95.5
X135.45Y-109.6
X135.64Y-101.28
X135.7Y-103.86
X135.7Y-106.4
X135.95Y-131.25
X136.0Y-115.4
X136.7Y-123.75
X137.0Y-115.4
X137.39Y-117.05
X137.8Y-109.75
X137.85Y-108.4
X137.9Y-111.25
X137.9Y-112.75
X138.4Y-96.5
X139.35Y-96.55
X140.8Y-77.1
X140.8Y-80.1
X140.8Y-81.6
X140.8Y-83.1
X140.8Y-84.6
X140.8Y-86.1
X140.8Y-92.95
X140.8Y-100.85
X140.85Y-106.3
X141.684Y-105.316
X141.705Y-104.251
X141.8Y-100.65
X142.4Y-125.3
X142.505Y-104.245
X142.8Y-99.8
X143.2Y-101.45
X143.65Y-77.612
X143.65Y-86.013
X143.8Y-103.2
X144.35Y-80.55
X144.35Y-82.7
X144.399Y-106.316
X145.45Y-92.35
X145.46Y-105.2
X145.46Y-107.4
X145.94Y-113.48
X146.25Y-121.7
X146.45Y-110.75
X146.6Y-106.316
X147.2Y-88.6
X147.2Y-98.4
X147.2Y-100.1
X147.2Y-101.4
X147.35Y-80.0
X147.35Y-83.2
X147.4Y-90.1
X147.8Y-97.0
X148.25Y-90.9
X148.25Y-95.45
X148.3Y-93.25
X148.45Y-81.4
X148.9Y-74.8
X149.2Y-100.3
X149.3Y-102.8
X149.5Y-107.5
X149.725Y-114.225
X149.75Y-90.75
X149.8Y-110.1
X149.9Y-80.8
X149.95Y-82.6
X150.6Y-74.8
X150.775Y-113.175
X150.9Y-94.9
X150.9Y-109.0
X150.95Y-77.2
X150.95Y-93.45
X151.0Y-99.8
X151.0Y-105.05
X151.05Y-89.8
X152.1Y-104.8
X152.25Y-92.4
X152.3Y-74.8
X152.34Y-88.58
X152.9Y-77.2
X153.0Y-109.5
X153.4Y-103.5
X153.42Y-87.54
X153.5Y-110.65
X153.55Y-81.0
X153.55Y-82.5
X153.6Y-91.1
X153.9Y-94.7
X154.1Y-76.8
X154.5Y-86.5
X154.75Y-89.9
X154.8Y-102.1
X154.8Y-107.95
X154.85Y-106.1
X155.0Y-95.7
X155.85Y-99.4
X155.9Y-88.7
X156.0Y-86.2
X156.1Y-96.7
X157.1Y-102.05
X157.3Y-97.9
X157.4Y-86.2
X157.8Y-88.7
X158.1Y-99.5
X158.75Y-83.6
X159.05Y-105.0
X159.7Y-88.7
X159.8Y-99.5
X160.8Y-85.95
X161.4Y-101.9
X161.5Y-99.6
X161.6Y-88.733
T3
X149.261Y-125.439
X151.061Y-73.261
X154.2Y-120.5
X156.0Y-78.2
X161.4Y-84.015
X161.4Y-91.0
X161.4Y-97.2
X161.4Y-104.185
T4
X107.06Y-62.06
X107.719Y-60.469
X107.719Y-63.651
X109.31Y-59.81
X109.31Y-64.31
X110.901Y-60.469
X110.901Y-63.651
X111.56Y-62.06
X114.0Y-89.15
X114.659Y-87.559
X114.659Y-90.741
X116.25Y-86.9
X116.25Y-91.4
X117.841Y-87.559
X117.841Y-90.741
X118.5Y-89.15
X124.0Y-111.15
X124.659Y-109.559
X124.659Y-112.741
X126.25Y-108.9
X126.25Y-113.4
X127.841Y-109.559
X127.841Y-112.741
X128.5Y-111.15
X134.05Y-89.15
X134.709Y-87.559
X134.709Y-90.741
X136.3Y-86.9
X136.3Y-91.4
X137.891Y-87.559
X137.891Y-90.741
X138.55Y-89.15
X139.15Y-62.05
X139.809Y-60.459
X139.809Y-63.641
X141.4Y-59.8
X141.4Y-64.3
X142.991Y-60.459
X142.991Y-63.641
X143.65Y-62.05
T6
X94.25Y-74.01
X94.25Y-79.09
T7
X99.8Y-72.71
X99.8Y-75.25
X99.8Y-77.79
X100.96Y-69.4
X103.5Y-69.4
X103.51Y-71.95
X103.54Y-66.87
X106.05Y-71.95
X106.08Y-66.87
X106.08Y-69.4
X108.62Y-66.87
X108.62Y-69.4
X108.63Y-71.95
X111.16Y-66.87
X111.16Y-69.4
X111.17Y-71.95
X113.7Y-59.25
X113.7Y-61.79
X113.7Y-64.33
X113.7Y-66.87
X113.7Y-69.4
X113.71Y-71.95
X114.28Y-115.825
X116.24Y-59.25
X116.24Y-61.79
X116.24Y-64.33
X116.24Y-66.87
X116.24Y-69.41
X116.25Y-71.95
X116.82Y-115.825
X118.46Y-76.55
X118.46Y-79.09
X118.46Y-81.63
X118.78Y-59.25
X118.78Y-61.79
X118.78Y-64.33
X118.78Y-66.87
X118.78Y-69.41
X118.78Y-71.95
X119.36Y-115.825
X121.0Y-76.55
X121.0Y-79.09
X121.0Y-81.63
X121.32Y-59.25
X121.32Y-61.79
X121.32Y-64.33
X121.32Y-66.87
X121.32Y-69.41
X121.32Y-71.95
X121.9Y-115.825
X123.31Y-85.35
X123.86Y-59.25
X123.86Y-61.79
X123.86Y-64.33
X123.86Y-66.87
X123.86Y-69.41
X123.86Y-71.95
X125.85Y-85.35
X126.4Y-59.25
X126.4Y-61.79
X126.4Y-64.33
X126.4Y-66.87
X126.4Y-69.41
X126.4Y-71.95
X128.39Y-85.35
X128.94Y-59.25
X128.94Y-61.79
X128.94Y-64.33
X128.94Y-66.87
X128.94Y-69.41
X128.94Y-71.95
X130.93Y-85.35
X131.48Y-59.25
X131.48Y-61.79
X131.48Y-64.33
X131.48Y-66.87
X131.48Y-69.41
X131.48Y-71.95
X134.02Y-59.25
X134.02Y-61.79
X134.02Y-64.33
X134.02Y-66.87
X134.02Y-69.41
X134.02Y-71.95
X136.56Y-59.25
X136.56Y-61.79
X136.56Y-64.33
X136.56Y-66.87
X136.56Y-69.41
X136.56Y-71.95
X139.1Y-66.87
X139.1Y-69.41
X139.1Y-71.95
X139.1Y-74.49
X141.64Y-66.87
X141.64Y-69.41
X141.64Y-71.95
X144.18Y-66.87
X144.18Y-69.41
X144.18Y-71.95
X146.72Y-66.87
X146.72Y-69.41
X146.72Y-71.95
T8
X110.05Y-92.6
X157.4Y-114.9
T9
X93.77Y-82.06
X93.77Y-87.14
X96.31Y-84.6
X98.85Y-82.06
X98.85Y-87.14
T10
X109.31Y-62.06
X116.25Y-89.15
X126.25Y-111.15
X136.3Y-89.15
X141.4Y-62.05
T5
G00X137.546Y-133.015
M15
G01X138.324Y-133.793
M16
G05
G00X140.678Y-136.147
M15
G01X141.103Y-136.572
M16
G05
G00X143.655Y-126.905
M15
G01X144.433Y-127.683
M16
G05
G00X146.788Y-130.038
M15
G01X147.212Y-130.462
M16
G05
M30
