%TF.GenerationSoftware,KiCad,Pcbnew,9.0.0*%
%TF.CreationDate,2025-07-22T11:18:37+01:00*%
%TF.ProjectId,Uncut Gem,556e6375-7420-4476-956d-2e6b69636164,rev?*%
%TF.SameCoordinates,Original*%
%TF.FileFunction,Soldermask,Top*%
%TF.FilePolarity,Negative*%
%FSLAX46Y46*%
G04 Gerber Fmt 4.6, Leading zero omitted, Abs format (unit mm)*
G04 Created by KiCad (PCBNEW 9.0.0) date 2025-07-22 11:18:37*
%MOMM*%
%LPD*%
G01*
G04 APERTURE LIST*
G04 Aperture macros list*
%AMRoundRect*
0 Rectangle with rounded corners*
0 $1 Rounding radius*
0 $2 $3 $4 $5 $6 $7 $8 $9 X,Y pos of 4 corners*
0 Add a 4 corners polygon primitive as box body*
4,1,4,$2,$3,$4,$5,$6,$7,$8,$9,$2,$3,0*
0 Add four circle primitives for the rounded corners*
1,1,$1+$1,$2,$3*
1,1,$1+$1,$4,$5*
1,1,$1+$1,$6,$7*
1,1,$1+$1,$8,$9*
0 Add four rect primitives between the rounded corners*
20,1,$1+$1,$2,$3,$4,$5,0*
20,1,$1+$1,$4,$5,$6,$7,0*
20,1,$1+$1,$6,$7,$8,$9,0*
20,1,$1+$1,$8,$9,$2,$3,0*%
%AMHorizOval*
0 Thick line with rounded ends*
0 $1 width*
0 $2 $3 position (X,Y) of the first rounded end (center of the circle)*
0 $4 $5 position (X,Y) of the second rounded end (center of the circle)*
0 Add line between two ends*
20,1,$1,$2,$3,$4,$5,0*
0 Add two circle primitives to create the rounded ends*
1,1,$1,$2,$3*
1,1,$1,$4,$5*%
%AMRotRect*
0 Rectangle, with rotation*
0 The origin of the aperture is its center*
0 $1 length*
0 $2 width*
0 $3 Rotation angle, in degrees counterclockwise*
0 Add horizontal line*
21,1,$1,$2,0,0,$3*%
%AMFreePoly0*
4,1,9,3.862500,-0.866500,0.737500,-0.866500,0.737500,-0.450000,-0.737500,-0.450000,-0.737500,0.450000,0.737500,0.450000,0.737500,0.866500,3.862500,0.866500,3.862500,-0.866500,3.862500,-0.866500,$1*%
G04 Aperture macros list end*
%ADD10RoundRect,0.237500X0.250000X0.237500X-0.250000X0.237500X-0.250000X-0.237500X0.250000X-0.237500X0*%
%ADD11RoundRect,0.225000X0.225000X0.250000X-0.225000X0.250000X-0.225000X-0.250000X0.225000X-0.250000X0*%
%ADD12C,1.700000*%
%ADD13RoundRect,0.225000X-0.335876X-0.017678X-0.017678X-0.335876X0.335876X0.017678X0.017678X0.335876X0*%
%ADD14RoundRect,0.200000X0.335876X0.053033X0.053033X0.335876X-0.335876X-0.053033X-0.053033X-0.335876X0*%
%ADD15RoundRect,0.218750X0.256250X-0.218750X0.256250X0.218750X-0.256250X0.218750X-0.256250X-0.218750X0*%
%ADD16RoundRect,0.225000X-0.017678X0.335876X-0.335876X0.017678X0.017678X-0.335876X0.335876X-0.017678X0*%
%ADD17RoundRect,0.237500X0.237500X-0.300000X0.237500X0.300000X-0.237500X0.300000X-0.237500X-0.300000X0*%
%ADD18R,1.700000X1.700000*%
%ADD19O,1.700000X1.700000*%
%ADD20RoundRect,0.200000X-0.200000X-0.275000X0.200000X-0.275000X0.200000X0.275000X-0.200000X0.275000X0*%
%ADD21RoundRect,0.225000X0.425000X0.225000X-0.425000X0.225000X-0.425000X-0.225000X0.425000X-0.225000X0*%
%ADD22FreePoly0,180.000000*%
%ADD23RoundRect,0.237500X-0.287500X-0.237500X0.287500X-0.237500X0.287500X0.237500X-0.287500X0.237500X0*%
%ADD24RoundRect,0.225000X-0.225000X-0.250000X0.225000X-0.250000X0.225000X0.250000X-0.225000X0.250000X0*%
%ADD25RoundRect,0.200000X0.275000X-0.200000X0.275000X0.200000X-0.275000X0.200000X-0.275000X-0.200000X0*%
%ADD26RoundRect,0.218750X-0.218750X-0.256250X0.218750X-0.256250X0.218750X0.256250X-0.218750X0.256250X0*%
%ADD27RoundRect,0.087500X0.312500X-0.087500X0.312500X0.087500X-0.312500X0.087500X-0.312500X-0.087500X0*%
%ADD28RoundRect,0.237500X-0.250000X-0.237500X0.250000X-0.237500X0.250000X0.237500X-0.250000X0.237500X0*%
%ADD29RoundRect,0.225000X0.017678X-0.335876X0.335876X-0.017678X-0.017678X0.335876X-0.335876X0.017678X0*%
%ADD30C,0.650000*%
%ADD31RoundRect,0.150000X0.247487X-0.459619X0.459619X-0.247487X-0.247487X0.459619X-0.459619X0.247487X0*%
%ADD32RoundRect,0.075000X0.353553X-0.459619X0.459619X-0.353553X-0.353553X0.459619X-0.459619X0.353553X0*%
%ADD33HorizOval,1.000000X-0.388909X0.388909X0.388909X-0.388909X0*%
%ADD34HorizOval,1.000000X-0.212132X0.212132X0.212132X-0.212132X0*%
%ADD35C,0.800000*%
%ADD36C,6.000000*%
%ADD37RoundRect,0.375000X0.375000X-0.625000X0.375000X0.625000X-0.375000X0.625000X-0.375000X-0.625000X0*%
%ADD38RoundRect,0.500000X1.400000X-0.500000X1.400000X0.500000X-1.400000X0.500000X-1.400000X-0.500000X0*%
%ADD39RoundRect,0.237500X-0.237500X0.250000X-0.237500X-0.250000X0.237500X-0.250000X0.237500X0.250000X0*%
%ADD40RoundRect,0.225000X0.250000X-0.225000X0.250000X0.225000X-0.250000X0.225000X-0.250000X-0.225000X0*%
%ADD41RoundRect,0.250000X0.000000X0.424264X-0.424264X0.000000X0.000000X-0.424264X0.424264X0.000000X0*%
%ADD42RoundRect,0.249200X0.450800X-0.600800X0.450800X0.600800X-0.450800X0.600800X-0.450800X-0.600800X0*%
%ADD43O,1.400000X1.700000*%
%ADD44RoundRect,0.150000X0.825000X0.150000X-0.825000X0.150000X-0.825000X-0.150000X0.825000X-0.150000X0*%
%ADD45RoundRect,0.237500X0.344715X-0.008839X-0.008839X0.344715X-0.344715X0.008839X0.008839X-0.344715X0*%
%ADD46RoundRect,0.237500X-0.300000X-0.237500X0.300000X-0.237500X0.300000X0.237500X-0.300000X0.237500X0*%
%ADD47RoundRect,0.250000X-0.675287X-1.580384X1.580384X0.675287X0.675287X1.580384X-1.580384X-0.675287X0*%
%ADD48RoundRect,0.250000X-0.362392X-1.893278X1.893278X0.362392X0.362392X1.893278X-1.893278X-0.362392X0*%
%ADD49RoundRect,0.150000X-0.150000X0.512500X-0.150000X-0.512500X0.150000X-0.512500X0.150000X0.512500X0*%
%ADD50RoundRect,0.250000X-1.580384X0.675287X0.675287X-1.580384X1.580384X-0.675287X-0.675287X1.580384X0*%
%ADD51RoundRect,0.250000X-1.893278X0.362392X0.362392X-1.893278X1.893278X-0.362392X-0.362392X1.893278X0*%
%ADD52RoundRect,0.062500X0.062500X-0.337500X0.062500X0.337500X-0.062500X0.337500X-0.062500X-0.337500X0*%
%ADD53RoundRect,0.062500X0.337500X-0.062500X0.337500X0.062500X-0.337500X0.062500X-0.337500X-0.062500X0*%
%ADD54R,3.350000X3.350000*%
%ADD55RoundRect,0.237500X0.300000X0.237500X-0.300000X0.237500X-0.300000X-0.237500X0.300000X-0.237500X0*%
%ADD56RoundRect,0.150000X-0.512500X-0.150000X0.512500X-0.150000X0.512500X0.150000X-0.512500X0.150000X0*%
%ADD57RoundRect,0.087500X0.159099X-0.282843X0.282843X-0.159099X-0.159099X0.282843X-0.282843X0.159099X0*%
%ADD58RoundRect,0.237500X0.237500X-0.250000X0.237500X0.250000X-0.237500X0.250000X-0.237500X-0.250000X0*%
%ADD59RoundRect,0.250000X-1.595000X-0.640000X1.595000X-0.640000X1.595000X0.640000X-1.595000X0.640000X0*%
%ADD60RoundRect,0.250000X-1.595000X-1.082500X1.595000X-1.082500X1.595000X1.082500X-1.595000X1.082500X0*%
%ADD61RoundRect,0.200000X-0.275000X0.200000X-0.275000X-0.200000X0.275000X-0.200000X0.275000X0.200000X0*%
%ADD62C,2.250000*%
%ADD63R,2.000000X2.000000*%
%ADD64C,2.500000*%
%ADD65RoundRect,0.200000X-0.335876X-0.053033X-0.053033X-0.335876X0.335876X0.053033X0.053033X0.335876X0*%
%ADD66R,1.000000X0.750000*%
%ADD67RoundRect,0.200000X0.200000X0.275000X-0.200000X0.275000X-0.200000X-0.275000X0.200000X-0.275000X0*%
%ADD68RoundRect,0.237500X0.008839X0.344715X-0.344715X-0.008839X-0.008839X-0.344715X0.344715X0.008839X0*%
%ADD69RotRect,0.800000X0.300000X135.000000*%
%ADD70RotRect,0.800000X0.300000X225.000000*%
%ADD71RotRect,3.250000X3.250000X135.000000*%
%ADD72R,0.900000X1.500000*%
%ADD73R,1.500000X0.900000*%
%ADD74R,0.900000X0.900000*%
%ADD75C,0.600000*%
%ADD76RoundRect,0.218750X0.218750X0.256250X-0.218750X0.256250X-0.218750X-0.256250X0.218750X-0.256250X0*%
G04 APERTURE END LIST*
D10*
%TO.C,R14*%
X104137500Y-77600000D03*
X102312500Y-77600000D03*
%TD*%
D11*
%TO.C,C9*%
X143857500Y-96950000D03*
X142307500Y-96950000D03*
%TD*%
D12*
%TO.C,REF\u002A\u002A74*%
X128940000Y-64330000D03*
%TD*%
D13*
%TO.C,C43*%
X142801992Y-122351992D03*
X143898008Y-123448008D03*
%TD*%
D12*
%TO.C,REF\u002A\u002A75*%
X131480000Y-64330000D03*
%TD*%
D14*
%TO.C,R9*%
X153166726Y-102066726D03*
X152000000Y-100900000D03*
%TD*%
D12*
%TO.C,REF\u002A\u002A100*%
X144180000Y-66870000D03*
%TD*%
%TO.C,REF\u002A\u002A88*%
X113700000Y-66870000D03*
%TD*%
D15*
%TO.C,LED1*%
X113350000Y-100037500D03*
X113350000Y-98462500D03*
%TD*%
D16*
%TO.C,C38*%
X103098008Y-125301992D03*
X102001992Y-126398008D03*
%TD*%
D17*
%TO.C,C45*%
X109150000Y-79362500D03*
X109150000Y-77637500D03*
%TD*%
D14*
%TO.C,R25*%
X137283363Y-126783363D03*
X136116637Y-125616637D03*
%TD*%
D12*
%TO.C,REF\u002A\u002A77*%
X136560000Y-64330000D03*
%TD*%
D18*
%TO.C,PD1*%
X99800000Y-72710000D03*
D19*
X99800000Y-75250000D03*
X99800000Y-77790000D03*
%TD*%
D12*
%TO.C,REF\u002A\u002A57*%
X136560000Y-61790000D03*
%TD*%
D20*
%TO.C,R12*%
X137900000Y-106500000D03*
X139550000Y-106500000D03*
%TD*%
D21*
%TO.C,U2*%
X145850000Y-87562500D03*
D22*
X145762500Y-86062500D03*
D21*
X145850000Y-84562500D03*
%TD*%
D23*
%TO.C,D3*%
X150800000Y-78450000D03*
X152550000Y-78450000D03*
%TD*%
D12*
%TO.C,REF\u002A\u002A87*%
X111160000Y-66870000D03*
%TD*%
%TO.C,REF\u002A\u002A139*%
X141640000Y-71950000D03*
%TD*%
%TO.C,REF\u002A\u002A137*%
X136560000Y-71950000D03*
%TD*%
%TO.C,REF\u002A\u002A131*%
X121320000Y-71950000D03*
%TD*%
D13*
%TO.C,C7*%
X142201992Y-110101992D03*
X143298008Y-111198008D03*
%TD*%
D24*
%TO.C,C24*%
X137950000Y-103500000D03*
X139500000Y-103500000D03*
%TD*%
D12*
%TO.C,REF\u002A\u002A29*%
X116240000Y-59250000D03*
%TD*%
%TO.C,REF\u002A\u002A36*%
X134020000Y-59250000D03*
%TD*%
%TO.C,REF\u002A\u002A85*%
X106080000Y-66870000D03*
%TD*%
D24*
%TO.C,C17*%
X138800000Y-111250000D03*
X140350000Y-111250000D03*
%TD*%
%TO.C,C41*%
X113825000Y-132500000D03*
X115375000Y-132500000D03*
%TD*%
D12*
%TO.C,REF\u002A\u002A109*%
X116240000Y-69410000D03*
%TD*%
D25*
%TO.C,R5*%
X136300000Y-98500000D03*
X136300000Y-96850000D03*
%TD*%
D12*
%TO.C,REF\u002A\u002A55*%
X131480000Y-61790000D03*
%TD*%
D24*
%TO.C,C39*%
X128525000Y-130850000D03*
X130075000Y-130850000D03*
%TD*%
D12*
%TO.C,REF\u002A\u002A136*%
X134020000Y-71950000D03*
%TD*%
D24*
%TO.C,C44*%
X134125000Y-123750000D03*
X135675000Y-123750000D03*
%TD*%
D26*
%TO.C,L2*%
X147612500Y-77550000D03*
X149187500Y-77550000D03*
%TD*%
D27*
%TO.C,D6*%
X134400000Y-130900000D03*
X134400000Y-129850000D03*
%TD*%
D28*
%TO.C,R16*%
X97837500Y-91100000D03*
X99662500Y-91100000D03*
%TD*%
D18*
%TO.C,OLED1*%
X123310000Y-85350000D03*
D19*
X125850000Y-85350000D03*
X128390000Y-85350000D03*
X130930000Y-85350000D03*
%TD*%
D12*
%TO.C,REF\u002A\u002A138*%
X139100000Y-71950000D03*
%TD*%
%TO.C,REF\u002A\u002A95*%
X131480000Y-66870000D03*
%TD*%
D24*
%TO.C,C26*%
X138800000Y-112750000D03*
X140350000Y-112750000D03*
%TD*%
D18*
%TO.C,5V_SUPP1*%
X118460000Y-76550000D03*
D19*
X121000000Y-76550000D03*
X118460000Y-79090000D03*
X121000000Y-79090000D03*
X118460000Y-81630000D03*
X121000000Y-81630000D03*
%TD*%
D29*
%TO.C,C21*%
X152800000Y-97950000D03*
X153896016Y-96853984D03*
%TD*%
D12*
%TO.C,REF\u002A\u002A97*%
X136560000Y-66870000D03*
%TD*%
D30*
%TO.C,P1*%
X139299607Y-132746087D03*
X143386684Y-128659010D03*
D31*
X138274302Y-132159189D03*
X138839988Y-131593503D03*
D32*
X139653161Y-130780331D03*
X140360267Y-130073224D03*
X140713821Y-129719670D03*
X141420928Y-129012564D03*
D31*
X142234100Y-128199391D03*
X142799786Y-127633705D03*
X142799786Y-127633705D03*
X142234100Y-128199391D03*
D32*
X141774481Y-128659010D03*
X141067374Y-129366117D03*
X140006714Y-130426777D03*
X139299607Y-131133884D03*
D31*
X138839988Y-131593503D03*
X138274302Y-132159189D03*
D33*
X137934891Y-133403697D03*
D34*
X140890597Y-136359403D03*
D33*
X144044294Y-127294294D03*
D34*
X147000000Y-130250000D03*
%TD*%
D35*
%TO.C,REF\u002A\u002A*%
X139150000Y-62050000D03*
X139809010Y-60459010D03*
X139809010Y-63640990D03*
X141400000Y-59800000D03*
D36*
X141400000Y-62050000D03*
D35*
X141400000Y-64300000D03*
X142990990Y-60459010D03*
X142990990Y-63640990D03*
X143650000Y-62050000D03*
%TD*%
D24*
%TO.C,C3*%
X139300000Y-93950000D03*
X140850000Y-93950000D03*
%TD*%
D28*
%TO.C,R15*%
X105137500Y-80250000D03*
X106962500Y-80250000D03*
%TD*%
D14*
%TO.C,R10*%
X149700000Y-99100000D03*
X148533274Y-97933274D03*
%TD*%
D12*
%TO.C,REF\u002A\u002A134*%
X128940000Y-71950000D03*
%TD*%
D29*
%TO.C,C22*%
X151750000Y-96900000D03*
X152846016Y-95803984D03*
%TD*%
D24*
%TO.C,C30*%
X151025000Y-80950000D03*
X152575000Y-80950000D03*
%TD*%
D27*
%TO.C,D5*%
X135950000Y-130350000D03*
X135950000Y-129300000D03*
%TD*%
D26*
%TO.C,PWR1*%
X132912500Y-128300000D03*
X134487500Y-128300000D03*
%TD*%
D37*
%TO.C,U6*%
X133700000Y-121700000D03*
X136000000Y-121700000D03*
D38*
X136000000Y-115400000D03*
D37*
X138300000Y-121700000D03*
%TD*%
D24*
%TO.C,C16*%
X138800000Y-109750000D03*
X140350000Y-109750000D03*
%TD*%
D39*
%TO.C,R29*%
X119400000Y-118575000D03*
X119400000Y-120400000D03*
%TD*%
D12*
%TO.C,REF\u002A\u002A31*%
X121320000Y-59250000D03*
%TD*%
%TO.C,REF\u002A\u002A33*%
X126400000Y-59250000D03*
%TD*%
%TO.C,REF\u002A\u002A99*%
X141640000Y-66870000D03*
%TD*%
D40*
%TO.C,C19*%
X149750000Y-96592500D03*
X149750000Y-95042500D03*
%TD*%
D39*
%TO.C,R28*%
X121850000Y-118587500D03*
X121850000Y-120412500D03*
%TD*%
D11*
%TO.C,C14*%
X153650000Y-106200000D03*
X152100000Y-106200000D03*
%TD*%
D12*
%TO.C,REF\u002A\u002A86*%
X111160000Y-69400000D03*
%TD*%
D41*
%TO.C,D8*%
X141350000Y-123550000D03*
X139370102Y-125529898D03*
%TD*%
D12*
%TO.C,REF\u002A\u002A130*%
X118780000Y-71950000D03*
%TD*%
%TO.C,REF\u002A\u002A84*%
X103540000Y-66870000D03*
%TD*%
%TO.C,REF\u002A\u002A117*%
X136560000Y-69410000D03*
%TD*%
D42*
%TO.C,D4*%
X94250000Y-79090000D03*
D43*
X94250000Y-74010000D03*
%TD*%
D12*
%TO.C,REF\u002A\u002A35*%
X131480000Y-59250000D03*
%TD*%
%TO.C,REF\u002A\u002A93*%
X126400000Y-66870000D03*
%TD*%
%TO.C,*%
X106050000Y-71950000D03*
%TD*%
D44*
%TO.C,U5*%
X107725000Y-87605000D03*
X107725000Y-86335000D03*
X107725000Y-85065000D03*
X107725000Y-83795000D03*
X102775000Y-83795000D03*
X102775000Y-85065000D03*
X102775000Y-86335000D03*
X102775000Y-87605000D03*
%TD*%
D12*
%TO.C,REF\u002A\u002A34*%
X128940000Y-59250000D03*
%TD*%
D45*
%TO.C,R1*%
X148945235Y-113445235D03*
X147654765Y-112154765D03*
%TD*%
D12*
%TO.C,REF\u002A\u002A115*%
X131480000Y-69410000D03*
%TD*%
D11*
%TO.C,C12*%
X143850000Y-92450000D03*
X142300000Y-92450000D03*
%TD*%
D46*
%TO.C,C34*%
X105187500Y-81800000D03*
X106912500Y-81800000D03*
%TD*%
D12*
%TO.C,REF\u002A\u002A52*%
X123860000Y-61790000D03*
%TD*%
D45*
%TO.C,R19*%
X137195235Y-135245235D03*
X135904765Y-133954765D03*
%TD*%
D12*
%TO.C,REF\u002A\u002A119*%
X141640000Y-69410000D03*
%TD*%
D24*
%TO.C,C13*%
X152100000Y-107700000D03*
X153650000Y-107700000D03*
%TD*%
D47*
%TO.C,J4*%
X155464366Y-73796493D03*
D48*
X152994796Y-71326922D03*
X157933937Y-76266063D03*
%TD*%
D45*
%TO.C,R4*%
X151100000Y-111395235D03*
X149809530Y-110104765D03*
%TD*%
D46*
%TO.C,C35*%
X94587500Y-92650000D03*
X96312500Y-92650000D03*
%TD*%
D12*
%TO.C,REF\u002A\u002A71*%
X121320000Y-64330000D03*
%TD*%
D49*
%TO.C,Q6*%
X106000000Y-129200000D03*
X104100000Y-129200000D03*
X105050000Y-131475000D03*
%TD*%
D11*
%TO.C,C40*%
X127100000Y-130850000D03*
X125550000Y-130850000D03*
%TD*%
D12*
%TO.C,REF\u002A\u002A92*%
X123860000Y-66870000D03*
%TD*%
%TO.C,REF\u002A\u002A28*%
X113700000Y-59250000D03*
%TD*%
%TO.C,REF\u002A\u002A112*%
X123860000Y-69410000D03*
%TD*%
%TO.C,REF\u002A\u002A133*%
X126400000Y-71950000D03*
%TD*%
D50*
%TO.C,J1*%
X153664366Y-124903507D03*
D51*
X156133937Y-122433937D03*
X151194796Y-127373078D03*
%TD*%
D12*
%TO.C,REF\u002A\u002A158*%
X139100000Y-74490000D03*
%TD*%
%TO.C,REF\u002A\u002A113*%
X126400000Y-69410000D03*
%TD*%
%TO.C,REF\u002A\u002A90*%
X118780000Y-66870000D03*
%TD*%
D24*
%TO.C,C31*%
X151025000Y-82500000D03*
X152575000Y-82500000D03*
%TD*%
D12*
%TO.C,REF\u002A\u002A53*%
X126400000Y-61790000D03*
%TD*%
D21*
%TO.C,U3*%
X145850000Y-79062500D03*
D22*
X145762500Y-77562500D03*
D21*
X145850000Y-76062500D03*
%TD*%
D12*
%TO.C,REF\u002A\u002A68*%
X113700000Y-64330000D03*
%TD*%
%TO.C,REF\u002A\u002A30*%
X118780000Y-59250000D03*
%TD*%
D28*
%TO.C,R17*%
X94537500Y-91100000D03*
X96362500Y-91100000D03*
%TD*%
D12*
%TO.C,REF\u002A\u002A141*%
X146720000Y-71950000D03*
%TD*%
D29*
%TO.C,C20*%
X153850000Y-99000000D03*
X154946016Y-97903984D03*
%TD*%
D12*
%TO.C,REF\u002A\u002A51*%
X121320000Y-61790000D03*
%TD*%
D52*
%TO.C,U8*%
X117700000Y-129900000D03*
X118200000Y-129900000D03*
X118700000Y-129900000D03*
X119200000Y-129900000D03*
X119700000Y-129900000D03*
X120200000Y-129900000D03*
X120700000Y-129900000D03*
D53*
X121650000Y-128950000D03*
X121650000Y-128450000D03*
X121650000Y-127950000D03*
X121650000Y-127450000D03*
X121650000Y-126950000D03*
X121650000Y-126450000D03*
X121650000Y-125950000D03*
D52*
X120700000Y-125000000D03*
X120200000Y-125000000D03*
X119700000Y-125000000D03*
X119200000Y-125000000D03*
X118700000Y-125000000D03*
X118200000Y-125000000D03*
X117700000Y-125000000D03*
D53*
X116750000Y-125950000D03*
X116750000Y-126450000D03*
X116750000Y-126950000D03*
X116750000Y-127450000D03*
X116750000Y-127950000D03*
X116750000Y-128450000D03*
X116750000Y-128950000D03*
D54*
X119200000Y-127450000D03*
%TD*%
D45*
%TO.C,R3*%
X152200000Y-110300000D03*
X150909530Y-109009530D03*
%TD*%
D55*
%TO.C,C33*%
X104087500Y-76050000D03*
X102362500Y-76050000D03*
%TD*%
D35*
%TO.C,REF\u002A\u002A*%
X134050000Y-89150000D03*
X134709010Y-87559010D03*
X134709010Y-90740990D03*
X136300000Y-86900000D03*
D36*
X136300000Y-89150000D03*
D35*
X136300000Y-91400000D03*
X137890990Y-87559010D03*
X137890990Y-90740990D03*
X138550000Y-89150000D03*
%TD*%
D24*
%TO.C,C4*%
X139300000Y-95450000D03*
X140850000Y-95450000D03*
%TD*%
D12*
%TO.C,REF\u002A\u002A85*%
X111170000Y-71950000D03*
%TD*%
%TO.C,REF\u002A\u002A69*%
X116240000Y-64330000D03*
%TD*%
D40*
%TO.C,C27*%
X145850000Y-90900000D03*
X145850000Y-89350000D03*
%TD*%
D56*
%TO.C,Q4*%
X113300000Y-75650000D03*
X113300000Y-77550000D03*
X115575000Y-76600000D03*
%TD*%
D12*
%TO.C,*%
X103500000Y-69400000D03*
%TD*%
%TO.C,*%
X100960000Y-69400000D03*
%TD*%
%TO.C,REF\u002A\u002A86*%
X113710000Y-71950000D03*
%TD*%
%TO.C,*%
X103510000Y-71950000D03*
%TD*%
D25*
%TO.C,R7*%
X158800000Y-86350000D03*
X158800000Y-84700000D03*
%TD*%
D57*
%TO.C,D1*%
X140907538Y-126792462D03*
X141650000Y-126050000D03*
%TD*%
D12*
%TO.C,REF\u002A\u002A76*%
X134020000Y-64330000D03*
%TD*%
%TO.C,REF\u002A\u002A101*%
X146720000Y-66870000D03*
%TD*%
D58*
%TO.C,R20*%
X125400000Y-125925000D03*
X125400000Y-124100000D03*
%TD*%
D11*
%TO.C,C10*%
X143850000Y-95450000D03*
X142300000Y-95450000D03*
%TD*%
D12*
%TO.C,REF\u002A\u002A86*%
X108620000Y-66870000D03*
%TD*%
D59*
%TO.C,J3*%
X164135000Y-87507500D03*
D60*
X164135000Y-84015000D03*
X164135000Y-91000000D03*
%TD*%
D11*
%TO.C,C42*%
X119225000Y-132450000D03*
X117675000Y-132450000D03*
%TD*%
D12*
%TO.C,REF\u002A\u002A91*%
X121320000Y-66870000D03*
%TD*%
%TO.C,REF\u002A\u002A111*%
X121320000Y-69410000D03*
%TD*%
D11*
%TO.C,C1*%
X137825000Y-95450000D03*
X136275000Y-95450000D03*
%TD*%
D12*
%TO.C,REF\u002A\u002A118*%
X139100000Y-69410000D03*
%TD*%
%TO.C,REF\u002A\u002A70*%
X118780000Y-64330000D03*
%TD*%
D49*
%TO.C,Q5*%
X110550000Y-129100000D03*
X108650000Y-129100000D03*
X109600000Y-131375000D03*
%TD*%
D11*
%TO.C,C5*%
X140350000Y-98400000D03*
X138800000Y-98400000D03*
%TD*%
D24*
%TO.C,C18*%
X154407500Y-100750000D03*
X155957500Y-100750000D03*
%TD*%
D12*
%TO.C,REF\u002A\u002A94*%
X128940000Y-66870000D03*
%TD*%
%TO.C,REF\u002A\u002A37*%
X136560000Y-59250000D03*
%TD*%
%TO.C,REF\u002A\u002A56*%
X134020000Y-61790000D03*
%TD*%
D11*
%TO.C,C2*%
X137825000Y-93950000D03*
X136275000Y-93950000D03*
%TD*%
D12*
%TO.C,REF\u002A\u002A32*%
X123860000Y-59250000D03*
%TD*%
D61*
%TO.C,R26*%
X111800000Y-98425000D03*
X111800000Y-100075000D03*
%TD*%
D62*
%TO.C,J6*%
X96310000Y-84600000D03*
X93770000Y-87140000D03*
X98850000Y-87140000D03*
X93770000Y-82060000D03*
X98850000Y-82060000D03*
%TD*%
D63*
%TO.C,X1*%
X141200000Y-120400000D03*
X146200000Y-120400000D03*
X146200000Y-116200000D03*
X141200000Y-116200000D03*
%TD*%
D64*
%TO.C,TP1*%
X110050000Y-92600000D03*
%TD*%
D11*
%TO.C,C6*%
X140325000Y-99900000D03*
X138775000Y-99900000D03*
%TD*%
D12*
%TO.C,REF\u002A\u002A48*%
X113700000Y-61790000D03*
%TD*%
%TO.C,REF\u002A\u002A49*%
X116240000Y-61790000D03*
%TD*%
D39*
%TO.C,R27*%
X116850000Y-118575000D03*
X116850000Y-120400000D03*
%TD*%
D55*
%TO.C,C32*%
X107500000Y-76050000D03*
X105775000Y-76050000D03*
%TD*%
D45*
%TO.C,R2*%
X150000000Y-112400000D03*
X148709530Y-111109530D03*
%TD*%
D35*
%TO.C,REF\u002A\u002A*%
X107060000Y-62060000D03*
X107719010Y-60469010D03*
X107719010Y-63650990D03*
X109310000Y-59810000D03*
D36*
X109310000Y-62060000D03*
D35*
X109310000Y-64310000D03*
X110900990Y-60469010D03*
X110900990Y-63650990D03*
X111560000Y-62060000D03*
%TD*%
%TO.C,REF\u002A\u002A*%
X114000000Y-89150000D03*
X114659010Y-87559010D03*
X114659010Y-90740990D03*
X116250000Y-86900000D03*
D36*
X116250000Y-89150000D03*
D35*
X116250000Y-91400000D03*
X117840990Y-87559010D03*
X117840990Y-90740990D03*
X118500000Y-89150000D03*
%TD*%
D65*
%TO.C,R24*%
X149291637Y-120416637D03*
X150458363Y-121583363D03*
%TD*%
D66*
%TO.C,BOOT1*%
X115350000Y-138000000D03*
X109350000Y-138000000D03*
X115350000Y-134250000D03*
X109350000Y-134250000D03*
%TD*%
D35*
%TO.C,REF\u002A\u002A*%
X124000000Y-111150000D03*
X124659010Y-109559010D03*
X124659010Y-112740990D03*
X126250000Y-108900000D03*
D36*
X126250000Y-111150000D03*
D35*
X126250000Y-113400000D03*
X127840990Y-109559010D03*
X127840990Y-112740990D03*
X128500000Y-111150000D03*
%TD*%
D12*
%TO.C,REF\u002A\u002A72*%
X123860000Y-64330000D03*
%TD*%
%TO.C,REF\u002A\u002A96*%
X134020000Y-66870000D03*
%TD*%
%TO.C,REF\u002A\u002A73*%
X126400000Y-64330000D03*
%TD*%
%TO.C,REF\u002A\u002A132*%
X123860000Y-71950000D03*
%TD*%
D11*
%TO.C,C25*%
X139500000Y-105000000D03*
X137950000Y-105000000D03*
%TD*%
D12*
%TO.C,REF\u002A\u002A121*%
X146720000Y-69410000D03*
%TD*%
%TO.C,REF\u002A\u002A110*%
X118780000Y-69410000D03*
%TD*%
D67*
%TO.C,R8*%
X134500000Y-108000000D03*
X132850000Y-108000000D03*
%TD*%
D24*
%TO.C,C15*%
X138792500Y-108250000D03*
X140342500Y-108250000D03*
%TD*%
D26*
%TO.C,L1*%
X147550000Y-84650000D03*
X149125000Y-84650000D03*
%TD*%
D68*
%TO.C,R18*%
X101400000Y-127850000D03*
X100109530Y-129140470D03*
%TD*%
D40*
%TO.C,C28*%
X145900000Y-82520000D03*
X145900000Y-80970000D03*
%TD*%
D12*
%TO.C,REF\u002A\u002A140*%
X144180000Y-71950000D03*
%TD*%
D24*
%TO.C,C23*%
X137975000Y-101850000D03*
X139525000Y-101850000D03*
%TD*%
D23*
%TO.C,D2*%
X150850000Y-84650000D03*
X152600000Y-84650000D03*
%TD*%
D12*
%TO.C,REF\u002A\u002A98*%
X139100000Y-66870000D03*
%TD*%
D17*
%TO.C,C46*%
X110700000Y-79362500D03*
X110700000Y-77637500D03*
%TD*%
D10*
%TO.C,R13*%
X107562500Y-77600000D03*
X105737500Y-77600000D03*
%TD*%
D18*
%TO.C,SPI1*%
X121900000Y-115825000D03*
D19*
X119360000Y-115825000D03*
X116820000Y-115825000D03*
X114280000Y-115825000D03*
%TD*%
D69*
%TO.C,U1*%
X145919238Y-109250000D03*
X146272792Y-108896447D03*
X146626345Y-108542893D03*
X146979899Y-108189340D03*
X147333452Y-107835787D03*
X147687005Y-107482233D03*
X148040559Y-107128680D03*
X148394112Y-106775126D03*
D70*
X148394112Y-105855888D03*
X148040559Y-105502334D03*
X147687005Y-105148781D03*
X147333452Y-104795227D03*
X146979899Y-104441674D03*
X146626345Y-104088121D03*
X146272792Y-103734567D03*
X145919238Y-103381014D03*
D69*
X145000000Y-103381014D03*
X144646446Y-103734567D03*
X144292893Y-104088121D03*
X143939339Y-104441674D03*
X143585786Y-104795227D03*
X143232233Y-105148781D03*
X142878679Y-105502334D03*
X142525126Y-105855888D03*
D70*
X142525126Y-106775126D03*
X142878679Y-107128680D03*
X143232233Y-107482233D03*
X143585786Y-107835787D03*
X143939339Y-108189340D03*
X144292893Y-108542893D03*
X144646446Y-108896447D03*
X145000000Y-109250000D03*
D71*
X145459619Y-106315507D03*
%TD*%
D59*
%TO.C,J2*%
X164135000Y-100692500D03*
D60*
X164135000Y-97200000D03*
X164135000Y-104185000D03*
%TD*%
D12*
%TO.C,REF\u002A\u002A84*%
X108630000Y-71950000D03*
%TD*%
%TO.C,REF\u002A\u002A84*%
X106080000Y-69400000D03*
%TD*%
D40*
%TO.C,C37*%
X134300000Y-126775000D03*
X134300000Y-125225000D03*
%TD*%
D72*
%TO.C,U7*%
X92200000Y-114550000D03*
X93470000Y-114550000D03*
X94740000Y-114550000D03*
X96010000Y-114550000D03*
X97280000Y-114550000D03*
X98550000Y-114550000D03*
X99820000Y-114550000D03*
X101090000Y-114550000D03*
X102360000Y-114550000D03*
X103630000Y-114550000D03*
X104900000Y-114550000D03*
X106170000Y-114550000D03*
X107440000Y-114550000D03*
X108710000Y-114550000D03*
D73*
X109960000Y-111515000D03*
X109960000Y-110245000D03*
X109960000Y-108975000D03*
X109960000Y-107705000D03*
X109960000Y-106435000D03*
X109960000Y-105165000D03*
X109960000Y-103895000D03*
X109960000Y-102625000D03*
X109960000Y-101355000D03*
X109960000Y-100085000D03*
D72*
X108710000Y-97050000D03*
X107440000Y-97050000D03*
X106170000Y-97050000D03*
X104900000Y-97050000D03*
X103630000Y-97050000D03*
X102360000Y-97050000D03*
X101090000Y-97050000D03*
X99820000Y-97050000D03*
X98550000Y-97050000D03*
X97280000Y-97050000D03*
X96010000Y-97050000D03*
X94740000Y-97050000D03*
X93470000Y-97050000D03*
X92200000Y-97050000D03*
D74*
X98520000Y-108700000D03*
D75*
X99220000Y-108700000D03*
D74*
X99920000Y-108700000D03*
D75*
X100620000Y-108700000D03*
D74*
X101320000Y-108700000D03*
D75*
X98520000Y-108000000D03*
X99920000Y-108000000D03*
X101320000Y-108000000D03*
D74*
X98520000Y-107300000D03*
D75*
X99220000Y-107300000D03*
D74*
X99920000Y-107300000D03*
D75*
X100620000Y-107300000D03*
D74*
X101320000Y-107300000D03*
D75*
X98520000Y-106600000D03*
X99920000Y-106600000D03*
X101320000Y-106600000D03*
D74*
X98520000Y-105900000D03*
D75*
X99220000Y-105900000D03*
D74*
X99920000Y-105900000D03*
D75*
X100620000Y-105900000D03*
D74*
X101320000Y-105900000D03*
%TD*%
D12*
%TO.C,REF\u002A\u002A135*%
X131480000Y-71950000D03*
%TD*%
D28*
%TO.C,R21*%
X124100000Y-128750000D03*
X125925000Y-128750000D03*
%TD*%
D12*
%TO.C,REF\u002A\u002A54*%
X128940000Y-61790000D03*
%TD*%
%TO.C,REF\u002A\u002A50*%
X118780000Y-61790000D03*
%TD*%
%TO.C,REF\u002A\u002A87*%
X116250000Y-71950000D03*
%TD*%
D61*
%TO.C,R6*%
X159050000Y-102150000D03*
X159050000Y-103800000D03*
%TD*%
D28*
%TO.C,R22*%
X105175000Y-127450000D03*
X107000000Y-127450000D03*
%TD*%
D66*
%TO.C,EN1*%
X123750000Y-137950000D03*
X117750000Y-137950000D03*
X123750000Y-134200000D03*
X117750000Y-134200000D03*
%TD*%
D24*
%TO.C,C29*%
X147642500Y-76012500D03*
X149192500Y-76012500D03*
%TD*%
D67*
%TO.C,R11*%
X142625000Y-102400000D03*
X140975000Y-102400000D03*
%TD*%
D11*
%TO.C,C36*%
X128975000Y-128750000D03*
X127425000Y-128750000D03*
%TD*%
D64*
%TO.C,MUX_OUT*%
X157400000Y-114900000D03*
%TD*%
D28*
%TO.C,R23*%
X108600000Y-127450000D03*
X110425000Y-127450000D03*
%TD*%
D12*
%TO.C,REF\u002A\u002A85*%
X108620000Y-69400000D03*
%TD*%
D11*
%TO.C,C11*%
X143850000Y-93950000D03*
X142300000Y-93950000D03*
%TD*%
D12*
%TO.C,REF\u002A\u002A87*%
X113700000Y-69400000D03*
%TD*%
%TO.C,REF\u002A\u002A89*%
X116240000Y-66870000D03*
%TD*%
%TO.C,REF\u002A\u002A116*%
X134020000Y-69410000D03*
%TD*%
D76*
%TO.C,LOCK*%
X134425000Y-109550000D03*
X132850000Y-109550000D03*
%TD*%
D12*
%TO.C,REF\u002A\u002A114*%
X128940000Y-69410000D03*
%TD*%
D11*
%TO.C,C8*%
X143857500Y-98450000D03*
X142307500Y-98450000D03*
%TD*%
D12*
%TO.C,REF\u002A\u002A120*%
X144180000Y-69410000D03*
%TD*%
M02*
