%TF.GenerationSoftware,KiCad,Pcbnew,9.0.0*%
%TF.CreationDate,2025-07-22T11:18:37+01:00*%
%TF.ProjectId,Uncut Gem,556e6375-7420-4476-956d-2e6b69636164,rev?*%
%TF.SameCoordinates,Original*%
%TF.FileFunction,Soldermask,Bot*%
%TF.FilePolarity,Negative*%
%FSLAX46Y46*%
G04 Gerber Fmt 4.6, Leading zero omitted, Abs format (unit mm)*
G04 Created by KiCad (PCBNEW 9.0.0) date 2025-07-22 11:18:37*
%MOMM*%
%LPD*%
G01*
G04 APERTURE LIST*
G04 Aperture macros list*
%AMRoundRect*
0 Rectangle with rounded corners*
0 $1 Rounding radius*
0 $2 $3 $4 $5 $6 $7 $8 $9 X,Y pos of 4 corners*
0 Add a 4 corners polygon primitive as box body*
4,1,4,$2,$3,$4,$5,$6,$7,$8,$9,$2,$3,0*
0 Add four circle primitives for the rounded corners*
1,1,$1+$1,$2,$3*
1,1,$1+$1,$4,$5*
1,1,$1+$1,$6,$7*
1,1,$1+$1,$8,$9*
0 Add four rect primitives between the rounded corners*
20,1,$1+$1,$2,$3,$4,$5,0*
20,1,$1+$1,$4,$5,$6,$7,0*
20,1,$1+$1,$6,$7,$8,$9,0*
20,1,$1+$1,$8,$9,$2,$3,0*%
%AMHorizOval*
0 Thick line with rounded ends*
0 $1 width*
0 $2 $3 position (X,Y) of the first rounded end (center of the circle)*
0 $4 $5 position (X,Y) of the second rounded end (center of the circle)*
0 Add line between two ends*
20,1,$1,$2,$3,$4,$5,0*
0 Add two circle primitives to create the rounded ends*
1,1,$1,$2,$3*
1,1,$1,$4,$5*%
G04 Aperture macros list end*
%ADD10C,1.700000*%
%ADD11R,1.700000X1.700000*%
%ADD12O,1.700000X1.700000*%
%ADD13C,0.650000*%
%ADD14HorizOval,1.000000X-0.388909X0.388909X0.388909X-0.388909X0*%
%ADD15HorizOval,1.000000X-0.212132X0.212132X0.212132X-0.212132X0*%
%ADD16C,0.800000*%
%ADD17C,6.000000*%
%ADD18RoundRect,0.249200X0.450800X-0.600800X0.450800X0.600800X-0.450800X0.600800X-0.450800X-0.600800X0*%
%ADD19O,1.400000X1.700000*%
%ADD20RoundRect,0.250000X-0.362392X-1.893278X1.893278X0.362392X0.362392X1.893278X-1.893278X-0.362392X0*%
%ADD21RoundRect,0.250000X-1.893278X0.362392X0.362392X-1.893278X1.893278X-0.362392X-0.362392X1.893278X0*%
%ADD22RoundRect,0.250000X-1.595000X-1.082500X1.595000X-1.082500X1.595000X1.082500X-1.595000X1.082500X0*%
%ADD23C,2.250000*%
%ADD24C,2.500000*%
%ADD25C,0.600000*%
G04 APERTURE END LIST*
D10*
%TO.C,REF\u002A\u002A74*%
X128940000Y-64330000D03*
%TD*%
%TO.C,REF\u002A\u002A75*%
X131480000Y-64330000D03*
%TD*%
%TO.C,REF\u002A\u002A100*%
X144180000Y-66870000D03*
%TD*%
%TO.C,REF\u002A\u002A88*%
X113700000Y-66870000D03*
%TD*%
%TO.C,REF\u002A\u002A77*%
X136560000Y-64330000D03*
%TD*%
D11*
%TO.C,PD1*%
X99800000Y-72710000D03*
D12*
X99800000Y-75250000D03*
X99800000Y-77790000D03*
%TD*%
D10*
%TO.C,REF\u002A\u002A57*%
X136560000Y-61790000D03*
%TD*%
%TO.C,REF\u002A\u002A87*%
X111160000Y-66870000D03*
%TD*%
%TO.C,REF\u002A\u002A139*%
X141640000Y-71950000D03*
%TD*%
%TO.C,REF\u002A\u002A137*%
X136560000Y-71950000D03*
%TD*%
%TO.C,REF\u002A\u002A131*%
X121320000Y-71950000D03*
%TD*%
%TO.C,REF\u002A\u002A29*%
X116240000Y-59250000D03*
%TD*%
%TO.C,REF\u002A\u002A36*%
X134020000Y-59250000D03*
%TD*%
%TO.C,REF\u002A\u002A85*%
X106080000Y-66870000D03*
%TD*%
%TO.C,REF\u002A\u002A109*%
X116240000Y-69410000D03*
%TD*%
%TO.C,REF\u002A\u002A55*%
X131480000Y-61790000D03*
%TD*%
%TO.C,REF\u002A\u002A136*%
X134020000Y-71950000D03*
%TD*%
D11*
%TO.C,OLED1*%
X123310000Y-85350000D03*
D12*
X125850000Y-85350000D03*
X128390000Y-85350000D03*
X130930000Y-85350000D03*
%TD*%
D10*
%TO.C,REF\u002A\u002A138*%
X139100000Y-71950000D03*
%TD*%
%TO.C,REF\u002A\u002A95*%
X131480000Y-66870000D03*
%TD*%
D11*
%TO.C,5V_SUPP1*%
X118460000Y-76550000D03*
D12*
X121000000Y-76550000D03*
X118460000Y-79090000D03*
X121000000Y-79090000D03*
X118460000Y-81630000D03*
X121000000Y-81630000D03*
%TD*%
D10*
%TO.C,REF\u002A\u002A97*%
X136560000Y-66870000D03*
%TD*%
D13*
%TO.C,P1*%
X139299607Y-132746087D03*
X143386684Y-128659010D03*
D14*
X137934891Y-133403697D03*
D15*
X140890597Y-136359403D03*
D14*
X144044294Y-127294294D03*
D15*
X147000000Y-130250000D03*
%TD*%
D16*
%TO.C,REF\u002A\u002A*%
X139150000Y-62050000D03*
X139809010Y-60459010D03*
X139809010Y-63640990D03*
X141400000Y-59800000D03*
D17*
X141400000Y-62050000D03*
D16*
X141400000Y-64300000D03*
X142990990Y-60459010D03*
X142990990Y-63640990D03*
X143650000Y-62050000D03*
%TD*%
D10*
%TO.C,REF\u002A\u002A134*%
X128940000Y-71950000D03*
%TD*%
%TO.C,REF\u002A\u002A31*%
X121320000Y-59250000D03*
%TD*%
%TO.C,REF\u002A\u002A33*%
X126400000Y-59250000D03*
%TD*%
%TO.C,REF\u002A\u002A99*%
X141640000Y-66870000D03*
%TD*%
%TO.C,REF\u002A\u002A86*%
X111160000Y-69400000D03*
%TD*%
%TO.C,REF\u002A\u002A130*%
X118780000Y-71950000D03*
%TD*%
%TO.C,REF\u002A\u002A84*%
X103540000Y-66870000D03*
%TD*%
%TO.C,REF\u002A\u002A117*%
X136560000Y-69410000D03*
%TD*%
D18*
%TO.C,D4*%
X94250000Y-79090000D03*
D19*
X94250000Y-74010000D03*
%TD*%
D10*
%TO.C,REF\u002A\u002A35*%
X131480000Y-59250000D03*
%TD*%
%TO.C,REF\u002A\u002A93*%
X126400000Y-66870000D03*
%TD*%
%TO.C,*%
X106050000Y-71950000D03*
%TD*%
%TO.C,REF\u002A\u002A34*%
X128940000Y-59250000D03*
%TD*%
%TO.C,REF\u002A\u002A115*%
X131480000Y-69410000D03*
%TD*%
%TO.C,REF\u002A\u002A52*%
X123860000Y-61790000D03*
%TD*%
%TO.C,REF\u002A\u002A119*%
X141640000Y-69410000D03*
%TD*%
D20*
%TO.C,J4*%
X152994796Y-71326922D03*
X157933937Y-76266063D03*
%TD*%
D10*
%TO.C,REF\u002A\u002A71*%
X121320000Y-64330000D03*
%TD*%
%TO.C,REF\u002A\u002A92*%
X123860000Y-66870000D03*
%TD*%
%TO.C,REF\u002A\u002A28*%
X113700000Y-59250000D03*
%TD*%
%TO.C,REF\u002A\u002A112*%
X123860000Y-69410000D03*
%TD*%
%TO.C,REF\u002A\u002A133*%
X126400000Y-71950000D03*
%TD*%
D21*
%TO.C,J1*%
X156133937Y-122433937D03*
X151194796Y-127373078D03*
%TD*%
D10*
%TO.C,REF\u002A\u002A158*%
X139100000Y-74490000D03*
%TD*%
%TO.C,REF\u002A\u002A113*%
X126400000Y-69410000D03*
%TD*%
%TO.C,REF\u002A\u002A90*%
X118780000Y-66870000D03*
%TD*%
%TO.C,REF\u002A\u002A53*%
X126400000Y-61790000D03*
%TD*%
%TO.C,REF\u002A\u002A68*%
X113700000Y-64330000D03*
%TD*%
%TO.C,REF\u002A\u002A30*%
X118780000Y-59250000D03*
%TD*%
%TO.C,REF\u002A\u002A141*%
X146720000Y-71950000D03*
%TD*%
%TO.C,REF\u002A\u002A51*%
X121320000Y-61790000D03*
%TD*%
D16*
%TO.C,REF\u002A\u002A*%
X134050000Y-89150000D03*
X134709010Y-87559010D03*
X134709010Y-90740990D03*
X136300000Y-86900000D03*
D17*
X136300000Y-89150000D03*
D16*
X136300000Y-91400000D03*
X137890990Y-87559010D03*
X137890990Y-90740990D03*
X138550000Y-89150000D03*
%TD*%
D10*
%TO.C,REF\u002A\u002A85*%
X111170000Y-71950000D03*
%TD*%
%TO.C,REF\u002A\u002A69*%
X116240000Y-64330000D03*
%TD*%
%TO.C,*%
X103500000Y-69400000D03*
%TD*%
%TO.C,*%
X100960000Y-69400000D03*
%TD*%
%TO.C,REF\u002A\u002A86*%
X113710000Y-71950000D03*
%TD*%
%TO.C,*%
X103510000Y-71950000D03*
%TD*%
%TO.C,REF\u002A\u002A76*%
X134020000Y-64330000D03*
%TD*%
%TO.C,REF\u002A\u002A101*%
X146720000Y-66870000D03*
%TD*%
%TO.C,REF\u002A\u002A86*%
X108620000Y-66870000D03*
%TD*%
D22*
%TO.C,J3*%
X164135000Y-84015000D03*
X164135000Y-91000000D03*
%TD*%
D10*
%TO.C,REF\u002A\u002A91*%
X121320000Y-66870000D03*
%TD*%
%TO.C,REF\u002A\u002A111*%
X121320000Y-69410000D03*
%TD*%
%TO.C,REF\u002A\u002A118*%
X139100000Y-69410000D03*
%TD*%
%TO.C,REF\u002A\u002A70*%
X118780000Y-64330000D03*
%TD*%
%TO.C,REF\u002A\u002A94*%
X128940000Y-66870000D03*
%TD*%
%TO.C,REF\u002A\u002A37*%
X136560000Y-59250000D03*
%TD*%
%TO.C,REF\u002A\u002A56*%
X134020000Y-61790000D03*
%TD*%
%TO.C,REF\u002A\u002A32*%
X123860000Y-59250000D03*
%TD*%
D23*
%TO.C,J6*%
X96310000Y-84600000D03*
X93770000Y-87140000D03*
X98850000Y-87140000D03*
X93770000Y-82060000D03*
X98850000Y-82060000D03*
%TD*%
D24*
%TO.C,TP1*%
X110050000Y-92600000D03*
%TD*%
D10*
%TO.C,REF\u002A\u002A48*%
X113700000Y-61790000D03*
%TD*%
%TO.C,REF\u002A\u002A49*%
X116240000Y-61790000D03*
%TD*%
D16*
%TO.C,REF\u002A\u002A*%
X107060000Y-62060000D03*
X107719010Y-60469010D03*
X107719010Y-63650990D03*
X109310000Y-59810000D03*
D17*
X109310000Y-62060000D03*
D16*
X109310000Y-64310000D03*
X110900990Y-60469010D03*
X110900990Y-63650990D03*
X111560000Y-62060000D03*
%TD*%
%TO.C,REF\u002A\u002A*%
X114000000Y-89150000D03*
X114659010Y-87559010D03*
X114659010Y-90740990D03*
X116250000Y-86900000D03*
D17*
X116250000Y-89150000D03*
D16*
X116250000Y-91400000D03*
X117840990Y-87559010D03*
X117840990Y-90740990D03*
X118500000Y-89150000D03*
%TD*%
%TO.C,REF\u002A\u002A*%
X124000000Y-111150000D03*
X124659010Y-109559010D03*
X124659010Y-112740990D03*
X126250000Y-108900000D03*
D17*
X126250000Y-111150000D03*
D16*
X126250000Y-113400000D03*
X127840990Y-109559010D03*
X127840990Y-112740990D03*
X128500000Y-111150000D03*
%TD*%
D10*
%TO.C,REF\u002A\u002A72*%
X123860000Y-64330000D03*
%TD*%
%TO.C,REF\u002A\u002A96*%
X134020000Y-66870000D03*
%TD*%
%TO.C,REF\u002A\u002A73*%
X126400000Y-64330000D03*
%TD*%
%TO.C,REF\u002A\u002A132*%
X123860000Y-71950000D03*
%TD*%
%TO.C,REF\u002A\u002A121*%
X146720000Y-69410000D03*
%TD*%
%TO.C,REF\u002A\u002A110*%
X118780000Y-69410000D03*
%TD*%
%TO.C,REF\u002A\u002A140*%
X144180000Y-71950000D03*
%TD*%
%TO.C,REF\u002A\u002A98*%
X139100000Y-66870000D03*
%TD*%
D11*
%TO.C,SPI1*%
X121900000Y-115825000D03*
D12*
X119360000Y-115825000D03*
X116820000Y-115825000D03*
X114280000Y-115825000D03*
%TD*%
D22*
%TO.C,J2*%
X164135000Y-97200000D03*
X164135000Y-104185000D03*
%TD*%
D10*
%TO.C,REF\u002A\u002A84*%
X108630000Y-71950000D03*
%TD*%
%TO.C,REF\u002A\u002A84*%
X106080000Y-69400000D03*
%TD*%
D25*
%TO.C,U7*%
X99220000Y-108700000D03*
X100620000Y-108700000D03*
X98520000Y-108000000D03*
X99920000Y-108000000D03*
X101320000Y-108000000D03*
X99220000Y-107300000D03*
X100620000Y-107300000D03*
X98520000Y-106600000D03*
X99920000Y-106600000D03*
X101320000Y-106600000D03*
X99220000Y-105900000D03*
X100620000Y-105900000D03*
%TD*%
D10*
%TO.C,REF\u002A\u002A135*%
X131480000Y-71950000D03*
%TD*%
%TO.C,REF\u002A\u002A54*%
X128940000Y-61790000D03*
%TD*%
%TO.C,REF\u002A\u002A50*%
X118780000Y-61790000D03*
%TD*%
%TO.C,REF\u002A\u002A87*%
X116250000Y-71950000D03*
%TD*%
D24*
%TO.C,MUX_OUT*%
X157400000Y-114900000D03*
%TD*%
D10*
%TO.C,REF\u002A\u002A85*%
X108620000Y-69400000D03*
%TD*%
%TO.C,REF\u002A\u002A87*%
X113700000Y-69400000D03*
%TD*%
%TO.C,REF\u002A\u002A89*%
X116240000Y-66870000D03*
%TD*%
%TO.C,REF\u002A\u002A116*%
X134020000Y-69410000D03*
%TD*%
%TO.C,REF\u002A\u002A114*%
X128940000Y-69410000D03*
%TD*%
%TO.C,REF\u002A\u002A120*%
X144180000Y-69410000D03*
%TD*%
M02*
