%TF.GenerationSoftware,KiCad,Pcbnew,8.0.6*%
%TF.CreationDate,2024-12-05T23:25:44+00:00*%
%TF.ProjectId,DiamondGeezer,4469616d-6f6e-4644-9765-657a65722e6b,rev?*%
%TF.SameCoordinates,Original*%
%TF.FileFunction,Legend,Top*%
%TF.FilePolarity,Positive*%
%FSLAX46Y46*%
G04 Gerber Fmt 4.6, Leading zero omitted, Abs format (unit mm)*
G04 Created by KiCad (PCBNEW 8.0.6) date 2024-12-05 23:25:44*
%MOMM*%
%LPD*%
G01*
G04 APERTURE LIST*
%ADD10C,0.100000*%
%ADD11C,0.150000*%
%ADD12C,0.120000*%
%ADD13C,0.000000*%
G04 APERTURE END LIST*
D10*
X152000000Y-63750000D02*
X97500000Y-63750000D01*
X97500000Y-58750000D02*
X119500000Y-58750000D01*
X119500000Y-68750000D01*
X97500000Y-68750000D01*
X97500000Y-58750000D01*
X107030074Y-66622419D02*
X106553884Y-66622419D01*
X106553884Y-66622419D02*
X106553884Y-65622419D01*
X107315789Y-66336704D02*
X107791979Y-66336704D01*
X107220551Y-66622419D02*
X107553884Y-65622419D01*
X107553884Y-65622419D02*
X107887217Y-66622419D01*
X108125313Y-65622419D02*
X108791979Y-65622419D01*
X108791979Y-65622419D02*
X108125313Y-66622419D01*
X108125313Y-66622419D02*
X108791979Y-66622419D01*
X109363408Y-65622419D02*
X109553884Y-65622419D01*
X109553884Y-65622419D02*
X109649122Y-65670038D01*
X109649122Y-65670038D02*
X109744360Y-65765276D01*
X109744360Y-65765276D02*
X109791979Y-65955752D01*
X109791979Y-65955752D02*
X109791979Y-66289085D01*
X109791979Y-66289085D02*
X109744360Y-66479561D01*
X109744360Y-66479561D02*
X109649122Y-66574800D01*
X109649122Y-66574800D02*
X109553884Y-66622419D01*
X109553884Y-66622419D02*
X109363408Y-66622419D01*
X109363408Y-66622419D02*
X109268170Y-66574800D01*
X109268170Y-66574800D02*
X109172932Y-66479561D01*
X109172932Y-66479561D02*
X109125313Y-66289085D01*
X109125313Y-66289085D02*
X109125313Y-65955752D01*
X109125313Y-65955752D02*
X109172932Y-65765276D01*
X109172932Y-65765276D02*
X109268170Y-65670038D01*
X109268170Y-65670038D02*
X109363408Y-65622419D01*
X110791979Y-66622419D02*
X110458646Y-66146228D01*
X110220551Y-66622419D02*
X110220551Y-65622419D01*
X110220551Y-65622419D02*
X110601503Y-65622419D01*
X110601503Y-65622419D02*
X110696741Y-65670038D01*
X110696741Y-65670038D02*
X110744360Y-65717657D01*
X110744360Y-65717657D02*
X110791979Y-65812895D01*
X110791979Y-65812895D02*
X110791979Y-65955752D01*
X110791979Y-65955752D02*
X110744360Y-66050990D01*
X110744360Y-66050990D02*
X110696741Y-66098609D01*
X110696741Y-66098609D02*
X110601503Y-66146228D01*
X110601503Y-66146228D02*
X110220551Y-66146228D01*
D11*
X159029606Y-118860588D02*
X159101035Y-118765350D01*
X159101035Y-118765350D02*
X159101035Y-118622493D01*
X159101035Y-118622493D02*
X159029606Y-118479636D01*
X159029606Y-118479636D02*
X158886749Y-118384398D01*
X158886749Y-118384398D02*
X158743892Y-118336779D01*
X158743892Y-118336779D02*
X158458178Y-118289160D01*
X158458178Y-118289160D02*
X158243892Y-118289160D01*
X158243892Y-118289160D02*
X157958178Y-118336779D01*
X157958178Y-118336779D02*
X157815321Y-118384398D01*
X157815321Y-118384398D02*
X157672464Y-118479636D01*
X157672464Y-118479636D02*
X157601035Y-118622493D01*
X157601035Y-118622493D02*
X157601035Y-118717731D01*
X157601035Y-118717731D02*
X157672464Y-118860588D01*
X157672464Y-118860588D02*
X157743892Y-118908207D01*
X157743892Y-118908207D02*
X158243892Y-118908207D01*
X158243892Y-118908207D02*
X158243892Y-118717731D01*
X157601035Y-119336779D02*
X159101035Y-119336779D01*
X159101035Y-119336779D02*
X157601035Y-119908207D01*
X157601035Y-119908207D02*
X159101035Y-119908207D01*
X157601035Y-120384398D02*
X159101035Y-120384398D01*
X159101035Y-120384398D02*
X159101035Y-120622493D01*
X159101035Y-120622493D02*
X159029606Y-120765350D01*
X159029606Y-120765350D02*
X158886749Y-120860588D01*
X158886749Y-120860588D02*
X158743892Y-120908207D01*
X158743892Y-120908207D02*
X158458178Y-120955826D01*
X158458178Y-120955826D02*
X158243892Y-120955826D01*
X158243892Y-120955826D02*
X157958178Y-120908207D01*
X157958178Y-120908207D02*
X157815321Y-120860588D01*
X157815321Y-120860588D02*
X157672464Y-120765350D01*
X157672464Y-120765350D02*
X157601035Y-120622493D01*
X157601035Y-120622493D02*
X157601035Y-120384398D01*
X155328976Y-118908207D02*
X155257548Y-118860588D01*
X155257548Y-118860588D02*
X155186119Y-118717731D01*
X155186119Y-118717731D02*
X155186119Y-118622493D01*
X155186119Y-118622493D02*
X155257548Y-118479636D01*
X155257548Y-118479636D02*
X155400405Y-118384398D01*
X155400405Y-118384398D02*
X155543262Y-118336779D01*
X155543262Y-118336779D02*
X155828976Y-118289160D01*
X155828976Y-118289160D02*
X156043262Y-118289160D01*
X156043262Y-118289160D02*
X156328976Y-118336779D01*
X156328976Y-118336779D02*
X156471833Y-118384398D01*
X156471833Y-118384398D02*
X156614690Y-118479636D01*
X156614690Y-118479636D02*
X156686119Y-118622493D01*
X156686119Y-118622493D02*
X156686119Y-118717731D01*
X156686119Y-118717731D02*
X156614690Y-118860588D01*
X156614690Y-118860588D02*
X156543262Y-118908207D01*
X155971833Y-119336779D02*
X155971833Y-119670112D01*
X155186119Y-119812969D02*
X155186119Y-119336779D01*
X155186119Y-119336779D02*
X156686119Y-119336779D01*
X156686119Y-119336779D02*
X156686119Y-119812969D01*
X152771203Y-118812969D02*
X152771203Y-118336779D01*
X152771203Y-118336779D02*
X154271203Y-118336779D01*
X153556917Y-119146303D02*
X153556917Y-119479636D01*
X152771203Y-119622493D02*
X152771203Y-119146303D01*
X152771203Y-119146303D02*
X154271203Y-119146303D01*
X154271203Y-119146303D02*
X154271203Y-119622493D01*
X150499144Y-118908207D02*
X150427716Y-118860588D01*
X150427716Y-118860588D02*
X150356287Y-118717731D01*
X150356287Y-118717731D02*
X150356287Y-118622493D01*
X150356287Y-118622493D02*
X150427716Y-118479636D01*
X150427716Y-118479636D02*
X150570573Y-118384398D01*
X150570573Y-118384398D02*
X150713430Y-118336779D01*
X150713430Y-118336779D02*
X150999144Y-118289160D01*
X150999144Y-118289160D02*
X151213430Y-118289160D01*
X151213430Y-118289160D02*
X151499144Y-118336779D01*
X151499144Y-118336779D02*
X151642001Y-118384398D01*
X151642001Y-118384398D02*
X151784858Y-118479636D01*
X151784858Y-118479636D02*
X151856287Y-118622493D01*
X151856287Y-118622493D02*
X151856287Y-118717731D01*
X151856287Y-118717731D02*
X151784858Y-118860588D01*
X151784858Y-118860588D02*
X151713430Y-118908207D01*
X150356287Y-119812969D02*
X150356287Y-119336779D01*
X150356287Y-119336779D02*
X151856287Y-119336779D01*
X150356287Y-120146303D02*
X151856287Y-120146303D01*
X150356287Y-120717731D02*
X151213430Y-120289160D01*
X151856287Y-120717731D02*
X150999144Y-120146303D01*
X147941371Y-118812969D02*
X147941371Y-118336779D01*
X147941371Y-118336779D02*
X149441371Y-118336779D01*
X147941371Y-119146303D02*
X149441371Y-119146303D01*
X149441371Y-119146303D02*
X149441371Y-119384398D01*
X149441371Y-119384398D02*
X149369942Y-119527255D01*
X149369942Y-119527255D02*
X149227085Y-119622493D01*
X149227085Y-119622493D02*
X149084228Y-119670112D01*
X149084228Y-119670112D02*
X148798514Y-119717731D01*
X148798514Y-119717731D02*
X148584228Y-119717731D01*
X148584228Y-119717731D02*
X148298514Y-119670112D01*
X148298514Y-119670112D02*
X148155657Y-119622493D01*
X148155657Y-119622493D02*
X148012800Y-119527255D01*
X148012800Y-119527255D02*
X147941371Y-119384398D01*
X147941371Y-119384398D02*
X147941371Y-119146303D01*
D10*
X159348435Y-127458646D02*
X159348435Y-128077693D01*
X159348435Y-128077693D02*
X158777006Y-127744360D01*
X158777006Y-127744360D02*
X158777006Y-127887217D01*
X158777006Y-127887217D02*
X158705578Y-127982455D01*
X158705578Y-127982455D02*
X158634149Y-128030074D01*
X158634149Y-128030074D02*
X158491292Y-128077693D01*
X158491292Y-128077693D02*
X158134149Y-128077693D01*
X158134149Y-128077693D02*
X157991292Y-128030074D01*
X157991292Y-128030074D02*
X157919864Y-127982455D01*
X157919864Y-127982455D02*
X157848435Y-127887217D01*
X157848435Y-127887217D02*
X157848435Y-127601503D01*
X157848435Y-127601503D02*
X157919864Y-127506265D01*
X157919864Y-127506265D02*
X157991292Y-127458646D01*
X159348435Y-128363408D02*
X157848435Y-128696741D01*
X157848435Y-128696741D02*
X159348435Y-129030074D01*
X159348435Y-129268170D02*
X159348435Y-129887217D01*
X159348435Y-129887217D02*
X158777006Y-129553884D01*
X158777006Y-129553884D02*
X158777006Y-129696741D01*
X158777006Y-129696741D02*
X158705578Y-129791979D01*
X158705578Y-129791979D02*
X158634149Y-129839598D01*
X158634149Y-129839598D02*
X158491292Y-129887217D01*
X158491292Y-129887217D02*
X158134149Y-129887217D01*
X158134149Y-129887217D02*
X157991292Y-129839598D01*
X157991292Y-129839598D02*
X157919864Y-129791979D01*
X157919864Y-129791979D02*
X157848435Y-129696741D01*
X157848435Y-129696741D02*
X157848435Y-129411027D01*
X157848435Y-129411027D02*
X157919864Y-129315789D01*
X157919864Y-129315789D02*
X157991292Y-129268170D01*
X156862090Y-128077693D02*
X156933519Y-127982455D01*
X156933519Y-127982455D02*
X156933519Y-127839598D01*
X156933519Y-127839598D02*
X156862090Y-127696741D01*
X156862090Y-127696741D02*
X156719233Y-127601503D01*
X156719233Y-127601503D02*
X156576376Y-127553884D01*
X156576376Y-127553884D02*
X156290662Y-127506265D01*
X156290662Y-127506265D02*
X156076376Y-127506265D01*
X156076376Y-127506265D02*
X155790662Y-127553884D01*
X155790662Y-127553884D02*
X155647805Y-127601503D01*
X155647805Y-127601503D02*
X155504948Y-127696741D01*
X155504948Y-127696741D02*
X155433519Y-127839598D01*
X155433519Y-127839598D02*
X155433519Y-127934836D01*
X155433519Y-127934836D02*
X155504948Y-128077693D01*
X155504948Y-128077693D02*
X155576376Y-128125312D01*
X155576376Y-128125312D02*
X156076376Y-128125312D01*
X156076376Y-128125312D02*
X156076376Y-127934836D01*
X155433519Y-128553884D02*
X156933519Y-128553884D01*
X156933519Y-128553884D02*
X155433519Y-129125312D01*
X155433519Y-129125312D02*
X156933519Y-129125312D01*
X155433519Y-129601503D02*
X156933519Y-129601503D01*
X156933519Y-129601503D02*
X156933519Y-129839598D01*
X156933519Y-129839598D02*
X156862090Y-129982455D01*
X156862090Y-129982455D02*
X156719233Y-130077693D01*
X156719233Y-130077693D02*
X156576376Y-130125312D01*
X156576376Y-130125312D02*
X156290662Y-130172931D01*
X156290662Y-130172931D02*
X156076376Y-130172931D01*
X156076376Y-130172931D02*
X155790662Y-130125312D01*
X155790662Y-130125312D02*
X155647805Y-130077693D01*
X155647805Y-130077693D02*
X155504948Y-129982455D01*
X155504948Y-129982455D02*
X155433519Y-129839598D01*
X155433519Y-129839598D02*
X155433519Y-129601503D01*
X153018603Y-127553884D02*
X154518603Y-127553884D01*
X154518603Y-127553884D02*
X154518603Y-127791979D01*
X154518603Y-127791979D02*
X154447174Y-127934836D01*
X154447174Y-127934836D02*
X154304317Y-128030074D01*
X154304317Y-128030074D02*
X154161460Y-128077693D01*
X154161460Y-128077693D02*
X153875746Y-128125312D01*
X153875746Y-128125312D02*
X153661460Y-128125312D01*
X153661460Y-128125312D02*
X153375746Y-128077693D01*
X153375746Y-128077693D02*
X153232889Y-128030074D01*
X153232889Y-128030074D02*
X153090032Y-127934836D01*
X153090032Y-127934836D02*
X153018603Y-127791979D01*
X153018603Y-127791979D02*
X153018603Y-127553884D01*
X153447174Y-128506265D02*
X153447174Y-128982455D01*
X153018603Y-128411027D02*
X154518603Y-128744360D01*
X154518603Y-128744360D02*
X153018603Y-129077693D01*
X154518603Y-129268170D02*
X154518603Y-129839598D01*
X153018603Y-129553884D02*
X154518603Y-129553884D01*
X150603687Y-127553884D02*
X152103687Y-127553884D01*
X152103687Y-127553884D02*
X151032258Y-127887217D01*
X151032258Y-127887217D02*
X152103687Y-128220550D01*
X152103687Y-128220550D02*
X150603687Y-128220550D01*
X152103687Y-128696741D02*
X150889401Y-128696741D01*
X150889401Y-128696741D02*
X150746544Y-128744360D01*
X150746544Y-128744360D02*
X150675116Y-128791979D01*
X150675116Y-128791979D02*
X150603687Y-128887217D01*
X150603687Y-128887217D02*
X150603687Y-129077693D01*
X150603687Y-129077693D02*
X150675116Y-129172931D01*
X150675116Y-129172931D02*
X150746544Y-129220550D01*
X150746544Y-129220550D02*
X150889401Y-129268169D01*
X150889401Y-129268169D02*
X152103687Y-129268169D01*
X152103687Y-129649122D02*
X150603687Y-130315788D01*
X152103687Y-130315788D02*
X150603687Y-129649122D01*
X148188771Y-127553884D02*
X149688771Y-127553884D01*
X149688771Y-127553884D02*
X149688771Y-127934836D01*
X149688771Y-127934836D02*
X149617342Y-128030074D01*
X149617342Y-128030074D02*
X149545914Y-128077693D01*
X149545914Y-128077693D02*
X149403057Y-128125312D01*
X149403057Y-128125312D02*
X149188771Y-128125312D01*
X149188771Y-128125312D02*
X149045914Y-128077693D01*
X149045914Y-128077693D02*
X148974485Y-128030074D01*
X148974485Y-128030074D02*
X148903057Y-127934836D01*
X148903057Y-127934836D02*
X148903057Y-127553884D01*
X148188771Y-128553884D02*
X149688771Y-128553884D01*
X149688771Y-128553884D02*
X149688771Y-128791979D01*
X149688771Y-128791979D02*
X149617342Y-128934836D01*
X149617342Y-128934836D02*
X149474485Y-129030074D01*
X149474485Y-129030074D02*
X149331628Y-129077693D01*
X149331628Y-129077693D02*
X149045914Y-129125312D01*
X149045914Y-129125312D02*
X148831628Y-129125312D01*
X148831628Y-129125312D02*
X148545914Y-129077693D01*
X148545914Y-129077693D02*
X148403057Y-129030074D01*
X148403057Y-129030074D02*
X148260200Y-128934836D01*
X148260200Y-128934836D02*
X148188771Y-128791979D01*
X148188771Y-128791979D02*
X148188771Y-128553884D01*
X148188771Y-130125312D02*
X148903057Y-129791979D01*
X148188771Y-129553884D02*
X149688771Y-129553884D01*
X149688771Y-129553884D02*
X149688771Y-129934836D01*
X149688771Y-129934836D02*
X149617342Y-130030074D01*
X149617342Y-130030074D02*
X149545914Y-130077693D01*
X149545914Y-130077693D02*
X149403057Y-130125312D01*
X149403057Y-130125312D02*
X149188771Y-130125312D01*
X149188771Y-130125312D02*
X149045914Y-130077693D01*
X149045914Y-130077693D02*
X148974485Y-130030074D01*
X148974485Y-130030074D02*
X148903057Y-129934836D01*
X148903057Y-129934836D02*
X148903057Y-129553884D01*
D11*
X163434819Y-113058333D02*
X164149104Y-113058333D01*
X164149104Y-113058333D02*
X164291961Y-113105952D01*
X164291961Y-113105952D02*
X164387200Y-113201190D01*
X164387200Y-113201190D02*
X164434819Y-113344047D01*
X164434819Y-113344047D02*
X164434819Y-113439285D01*
X163530057Y-112629761D02*
X163482438Y-112582142D01*
X163482438Y-112582142D02*
X163434819Y-112486904D01*
X163434819Y-112486904D02*
X163434819Y-112248809D01*
X163434819Y-112248809D02*
X163482438Y-112153571D01*
X163482438Y-112153571D02*
X163530057Y-112105952D01*
X163530057Y-112105952D02*
X163625295Y-112058333D01*
X163625295Y-112058333D02*
X163720533Y-112058333D01*
X163720533Y-112058333D02*
X163863390Y-112105952D01*
X163863390Y-112105952D02*
X164434819Y-112677380D01*
X164434819Y-112677380D02*
X164434819Y-112058333D01*
X99166666Y-50434819D02*
X99166666Y-51149104D01*
X99166666Y-51149104D02*
X99119047Y-51291961D01*
X99119047Y-51291961D02*
X99023809Y-51387200D01*
X99023809Y-51387200D02*
X98880952Y-51434819D01*
X98880952Y-51434819D02*
X98785714Y-51434819D01*
X99690476Y-51434819D02*
X99880952Y-51434819D01*
X99880952Y-51434819D02*
X99976190Y-51387200D01*
X99976190Y-51387200D02*
X100023809Y-51339580D01*
X100023809Y-51339580D02*
X100119047Y-51196723D01*
X100119047Y-51196723D02*
X100166666Y-51006247D01*
X100166666Y-51006247D02*
X100166666Y-50625295D01*
X100166666Y-50625295D02*
X100119047Y-50530057D01*
X100119047Y-50530057D02*
X100071428Y-50482438D01*
X100071428Y-50482438D02*
X99976190Y-50434819D01*
X99976190Y-50434819D02*
X99785714Y-50434819D01*
X99785714Y-50434819D02*
X99690476Y-50482438D01*
X99690476Y-50482438D02*
X99642857Y-50530057D01*
X99642857Y-50530057D02*
X99595238Y-50625295D01*
X99595238Y-50625295D02*
X99595238Y-50863390D01*
X99595238Y-50863390D02*
X99642857Y-50958628D01*
X99642857Y-50958628D02*
X99690476Y-51006247D01*
X99690476Y-51006247D02*
X99785714Y-51053866D01*
X99785714Y-51053866D02*
X99976190Y-51053866D01*
X99976190Y-51053866D02*
X100071428Y-51006247D01*
X100071428Y-51006247D02*
X100119047Y-50958628D01*
X100119047Y-50958628D02*
X100166666Y-50863390D01*
X98690476Y-70434819D02*
X98690476Y-71149104D01*
X98690476Y-71149104D02*
X98642857Y-71291961D01*
X98642857Y-71291961D02*
X98547619Y-71387200D01*
X98547619Y-71387200D02*
X98404762Y-71434819D01*
X98404762Y-71434819D02*
X98309524Y-71434819D01*
X99690476Y-71434819D02*
X99119048Y-71434819D01*
X99404762Y-71434819D02*
X99404762Y-70434819D01*
X99404762Y-70434819D02*
X99309524Y-70577676D01*
X99309524Y-70577676D02*
X99214286Y-70672914D01*
X99214286Y-70672914D02*
X99119048Y-70720533D01*
X100309524Y-70434819D02*
X100404762Y-70434819D01*
X100404762Y-70434819D02*
X100500000Y-70482438D01*
X100500000Y-70482438D02*
X100547619Y-70530057D01*
X100547619Y-70530057D02*
X100595238Y-70625295D01*
X100595238Y-70625295D02*
X100642857Y-70815771D01*
X100642857Y-70815771D02*
X100642857Y-71053866D01*
X100642857Y-71053866D02*
X100595238Y-71244342D01*
X100595238Y-71244342D02*
X100547619Y-71339580D01*
X100547619Y-71339580D02*
X100500000Y-71387200D01*
X100500000Y-71387200D02*
X100404762Y-71434819D01*
X100404762Y-71434819D02*
X100309524Y-71434819D01*
X100309524Y-71434819D02*
X100214286Y-71387200D01*
X100214286Y-71387200D02*
X100166667Y-71339580D01*
X100166667Y-71339580D02*
X100119048Y-71244342D01*
X100119048Y-71244342D02*
X100071429Y-71053866D01*
X100071429Y-71053866D02*
X100071429Y-70815771D01*
X100071429Y-70815771D02*
X100119048Y-70625295D01*
X100119048Y-70625295D02*
X100166667Y-70530057D01*
X100166667Y-70530057D02*
X100214286Y-70482438D01*
X100214286Y-70482438D02*
X100309524Y-70434819D01*
X94833333Y-123909580D02*
X94785714Y-123957200D01*
X94785714Y-123957200D02*
X94642857Y-124004819D01*
X94642857Y-124004819D02*
X94547619Y-124004819D01*
X94547619Y-124004819D02*
X94404762Y-123957200D01*
X94404762Y-123957200D02*
X94309524Y-123861961D01*
X94309524Y-123861961D02*
X94261905Y-123766723D01*
X94261905Y-123766723D02*
X94214286Y-123576247D01*
X94214286Y-123576247D02*
X94214286Y-123433390D01*
X94214286Y-123433390D02*
X94261905Y-123242914D01*
X94261905Y-123242914D02*
X94309524Y-123147676D01*
X94309524Y-123147676D02*
X94404762Y-123052438D01*
X94404762Y-123052438D02*
X94547619Y-123004819D01*
X94547619Y-123004819D02*
X94642857Y-123004819D01*
X94642857Y-123004819D02*
X94785714Y-123052438D01*
X94785714Y-123052438D02*
X94833333Y-123100057D01*
X95738095Y-123004819D02*
X95261905Y-123004819D01*
X95261905Y-123004819D02*
X95214286Y-123481009D01*
X95214286Y-123481009D02*
X95261905Y-123433390D01*
X95261905Y-123433390D02*
X95357143Y-123385771D01*
X95357143Y-123385771D02*
X95595238Y-123385771D01*
X95595238Y-123385771D02*
X95690476Y-123433390D01*
X95690476Y-123433390D02*
X95738095Y-123481009D01*
X95738095Y-123481009D02*
X95785714Y-123576247D01*
X95785714Y-123576247D02*
X95785714Y-123814342D01*
X95785714Y-123814342D02*
X95738095Y-123909580D01*
X95738095Y-123909580D02*
X95690476Y-123957200D01*
X95690476Y-123957200D02*
X95595238Y-124004819D01*
X95595238Y-124004819D02*
X95357143Y-124004819D01*
X95357143Y-124004819D02*
X95261905Y-123957200D01*
X95261905Y-123957200D02*
X95214286Y-123909580D01*
X155666666Y-50434819D02*
X155666666Y-51149104D01*
X155666666Y-51149104D02*
X155619047Y-51291961D01*
X155619047Y-51291961D02*
X155523809Y-51387200D01*
X155523809Y-51387200D02*
X155380952Y-51434819D01*
X155380952Y-51434819D02*
X155285714Y-51434819D01*
X156047619Y-50434819D02*
X156714285Y-50434819D01*
X156714285Y-50434819D02*
X156285714Y-51434819D01*
X104333333Y-99204819D02*
X104000000Y-98728628D01*
X103761905Y-99204819D02*
X103761905Y-98204819D01*
X103761905Y-98204819D02*
X104142857Y-98204819D01*
X104142857Y-98204819D02*
X104238095Y-98252438D01*
X104238095Y-98252438D02*
X104285714Y-98300057D01*
X104285714Y-98300057D02*
X104333333Y-98395295D01*
X104333333Y-98395295D02*
X104333333Y-98538152D01*
X104333333Y-98538152D02*
X104285714Y-98633390D01*
X104285714Y-98633390D02*
X104238095Y-98681009D01*
X104238095Y-98681009D02*
X104142857Y-98728628D01*
X104142857Y-98728628D02*
X103761905Y-98728628D01*
X104714286Y-98300057D02*
X104761905Y-98252438D01*
X104761905Y-98252438D02*
X104857143Y-98204819D01*
X104857143Y-98204819D02*
X105095238Y-98204819D01*
X105095238Y-98204819D02*
X105190476Y-98252438D01*
X105190476Y-98252438D02*
X105238095Y-98300057D01*
X105238095Y-98300057D02*
X105285714Y-98395295D01*
X105285714Y-98395295D02*
X105285714Y-98490533D01*
X105285714Y-98490533D02*
X105238095Y-98633390D01*
X105238095Y-98633390D02*
X104666667Y-99204819D01*
X104666667Y-99204819D02*
X105285714Y-99204819D01*
X138440476Y-90954819D02*
X138630952Y-90954819D01*
X138630952Y-90954819D02*
X138726190Y-91002438D01*
X138726190Y-91002438D02*
X138821428Y-91097676D01*
X138821428Y-91097676D02*
X138869047Y-91288152D01*
X138869047Y-91288152D02*
X138869047Y-91621485D01*
X138869047Y-91621485D02*
X138821428Y-91811961D01*
X138821428Y-91811961D02*
X138726190Y-91907200D01*
X138726190Y-91907200D02*
X138630952Y-91954819D01*
X138630952Y-91954819D02*
X138440476Y-91954819D01*
X138440476Y-91954819D02*
X138345238Y-91907200D01*
X138345238Y-91907200D02*
X138250000Y-91811961D01*
X138250000Y-91811961D02*
X138202381Y-91621485D01*
X138202381Y-91621485D02*
X138202381Y-91288152D01*
X138202381Y-91288152D02*
X138250000Y-91097676D01*
X138250000Y-91097676D02*
X138345238Y-91002438D01*
X138345238Y-91002438D02*
X138440476Y-90954819D01*
X139250000Y-91907200D02*
X139392857Y-91954819D01*
X139392857Y-91954819D02*
X139630952Y-91954819D01*
X139630952Y-91954819D02*
X139726190Y-91907200D01*
X139726190Y-91907200D02*
X139773809Y-91859580D01*
X139773809Y-91859580D02*
X139821428Y-91764342D01*
X139821428Y-91764342D02*
X139821428Y-91669104D01*
X139821428Y-91669104D02*
X139773809Y-91573866D01*
X139773809Y-91573866D02*
X139726190Y-91526247D01*
X139726190Y-91526247D02*
X139630952Y-91478628D01*
X139630952Y-91478628D02*
X139440476Y-91431009D01*
X139440476Y-91431009D02*
X139345238Y-91383390D01*
X139345238Y-91383390D02*
X139297619Y-91335771D01*
X139297619Y-91335771D02*
X139250000Y-91240533D01*
X139250000Y-91240533D02*
X139250000Y-91145295D01*
X139250000Y-91145295D02*
X139297619Y-91050057D01*
X139297619Y-91050057D02*
X139345238Y-91002438D01*
X139345238Y-91002438D02*
X139440476Y-90954819D01*
X139440476Y-90954819D02*
X139678571Y-90954819D01*
X139678571Y-90954819D02*
X139821428Y-91002438D01*
X140678571Y-91907200D02*
X140583333Y-91954819D01*
X140583333Y-91954819D02*
X140392857Y-91954819D01*
X140392857Y-91954819D02*
X140297619Y-91907200D01*
X140297619Y-91907200D02*
X140250000Y-91859580D01*
X140250000Y-91859580D02*
X140202381Y-91764342D01*
X140202381Y-91764342D02*
X140202381Y-91478628D01*
X140202381Y-91478628D02*
X140250000Y-91383390D01*
X140250000Y-91383390D02*
X140297619Y-91335771D01*
X140297619Y-91335771D02*
X140392857Y-91288152D01*
X140392857Y-91288152D02*
X140583333Y-91288152D01*
X140583333Y-91288152D02*
X140678571Y-91335771D01*
X141250000Y-91954819D02*
X141154762Y-91907200D01*
X141154762Y-91907200D02*
X141107143Y-91859580D01*
X141107143Y-91859580D02*
X141059524Y-91764342D01*
X141059524Y-91764342D02*
X141059524Y-91478628D01*
X141059524Y-91478628D02*
X141107143Y-91383390D01*
X141107143Y-91383390D02*
X141154762Y-91335771D01*
X141154762Y-91335771D02*
X141250000Y-91288152D01*
X141250000Y-91288152D02*
X141392857Y-91288152D01*
X141392857Y-91288152D02*
X141488095Y-91335771D01*
X141488095Y-91335771D02*
X141535714Y-91383390D01*
X141535714Y-91383390D02*
X141583333Y-91478628D01*
X141583333Y-91478628D02*
X141583333Y-91764342D01*
X141583333Y-91764342D02*
X141535714Y-91859580D01*
X141535714Y-91859580D02*
X141488095Y-91907200D01*
X141488095Y-91907200D02*
X141392857Y-91954819D01*
X141392857Y-91954819D02*
X141250000Y-91954819D01*
X142011905Y-91288152D02*
X142011905Y-92288152D01*
X142011905Y-91335771D02*
X142107143Y-91288152D01*
X142107143Y-91288152D02*
X142297619Y-91288152D01*
X142297619Y-91288152D02*
X142392857Y-91335771D01*
X142392857Y-91335771D02*
X142440476Y-91383390D01*
X142440476Y-91383390D02*
X142488095Y-91478628D01*
X142488095Y-91478628D02*
X142488095Y-91764342D01*
X142488095Y-91764342D02*
X142440476Y-91859580D01*
X142440476Y-91859580D02*
X142392857Y-91907200D01*
X142392857Y-91907200D02*
X142297619Y-91954819D01*
X142297619Y-91954819D02*
X142107143Y-91954819D01*
X142107143Y-91954819D02*
X142011905Y-91907200D01*
X143297619Y-91907200D02*
X143202381Y-91954819D01*
X143202381Y-91954819D02*
X143011905Y-91954819D01*
X143011905Y-91954819D02*
X142916667Y-91907200D01*
X142916667Y-91907200D02*
X142869048Y-91811961D01*
X142869048Y-91811961D02*
X142869048Y-91431009D01*
X142869048Y-91431009D02*
X142916667Y-91335771D01*
X142916667Y-91335771D02*
X143011905Y-91288152D01*
X143011905Y-91288152D02*
X143202381Y-91288152D01*
X143202381Y-91288152D02*
X143297619Y-91335771D01*
X143297619Y-91335771D02*
X143345238Y-91431009D01*
X143345238Y-91431009D02*
X143345238Y-91526247D01*
X143345238Y-91526247D02*
X142869048Y-91621485D01*
X144297619Y-91954819D02*
X143726191Y-91954819D01*
X144011905Y-91954819D02*
X144011905Y-90954819D01*
X144011905Y-90954819D02*
X143916667Y-91097676D01*
X143916667Y-91097676D02*
X143821429Y-91192914D01*
X143821429Y-91192914D02*
X143726191Y-91240533D01*
X182416666Y-70434819D02*
X182416666Y-71149104D01*
X182416666Y-71149104D02*
X182369047Y-71291961D01*
X182369047Y-71291961D02*
X182273809Y-71387200D01*
X182273809Y-71387200D02*
X182130952Y-71434819D01*
X182130952Y-71434819D02*
X182035714Y-71434819D01*
X183321428Y-70434819D02*
X183130952Y-70434819D01*
X183130952Y-70434819D02*
X183035714Y-70482438D01*
X183035714Y-70482438D02*
X182988095Y-70530057D01*
X182988095Y-70530057D02*
X182892857Y-70672914D01*
X182892857Y-70672914D02*
X182845238Y-70863390D01*
X182845238Y-70863390D02*
X182845238Y-71244342D01*
X182845238Y-71244342D02*
X182892857Y-71339580D01*
X182892857Y-71339580D02*
X182940476Y-71387200D01*
X182940476Y-71387200D02*
X183035714Y-71434819D01*
X183035714Y-71434819D02*
X183226190Y-71434819D01*
X183226190Y-71434819D02*
X183321428Y-71387200D01*
X183321428Y-71387200D02*
X183369047Y-71339580D01*
X183369047Y-71339580D02*
X183416666Y-71244342D01*
X183416666Y-71244342D02*
X183416666Y-71006247D01*
X183416666Y-71006247D02*
X183369047Y-70911009D01*
X183369047Y-70911009D02*
X183321428Y-70863390D01*
X183321428Y-70863390D02*
X183226190Y-70815771D01*
X183226190Y-70815771D02*
X183035714Y-70815771D01*
X183035714Y-70815771D02*
X182940476Y-70863390D01*
X182940476Y-70863390D02*
X182892857Y-70911009D01*
X182892857Y-70911009D02*
X182845238Y-71006247D01*
X94833333Y-132609580D02*
X94785714Y-132657200D01*
X94785714Y-132657200D02*
X94642857Y-132704819D01*
X94642857Y-132704819D02*
X94547619Y-132704819D01*
X94547619Y-132704819D02*
X94404762Y-132657200D01*
X94404762Y-132657200D02*
X94309524Y-132561961D01*
X94309524Y-132561961D02*
X94261905Y-132466723D01*
X94261905Y-132466723D02*
X94214286Y-132276247D01*
X94214286Y-132276247D02*
X94214286Y-132133390D01*
X94214286Y-132133390D02*
X94261905Y-131942914D01*
X94261905Y-131942914D02*
X94309524Y-131847676D01*
X94309524Y-131847676D02*
X94404762Y-131752438D01*
X94404762Y-131752438D02*
X94547619Y-131704819D01*
X94547619Y-131704819D02*
X94642857Y-131704819D01*
X94642857Y-131704819D02*
X94785714Y-131752438D01*
X94785714Y-131752438D02*
X94833333Y-131800057D01*
X95166667Y-131704819D02*
X95833333Y-131704819D01*
X95833333Y-131704819D02*
X95404762Y-132704819D01*
X185190476Y-60434819D02*
X185190476Y-61149104D01*
X185190476Y-61149104D02*
X185142857Y-61291961D01*
X185142857Y-61291961D02*
X185047619Y-61387200D01*
X185047619Y-61387200D02*
X184904762Y-61434819D01*
X184904762Y-61434819D02*
X184809524Y-61434819D01*
X186190476Y-61434819D02*
X185619048Y-61434819D01*
X185904762Y-61434819D02*
X185904762Y-60434819D01*
X185904762Y-60434819D02*
X185809524Y-60577676D01*
X185809524Y-60577676D02*
X185714286Y-60672914D01*
X185714286Y-60672914D02*
X185619048Y-60720533D01*
X186523810Y-60434819D02*
X187142857Y-60434819D01*
X187142857Y-60434819D02*
X186809524Y-60815771D01*
X186809524Y-60815771D02*
X186952381Y-60815771D01*
X186952381Y-60815771D02*
X187047619Y-60863390D01*
X187047619Y-60863390D02*
X187095238Y-60911009D01*
X187095238Y-60911009D02*
X187142857Y-61006247D01*
X187142857Y-61006247D02*
X187142857Y-61244342D01*
X187142857Y-61244342D02*
X187095238Y-61339580D01*
X187095238Y-61339580D02*
X187047619Y-61387200D01*
X187047619Y-61387200D02*
X186952381Y-61434819D01*
X186952381Y-61434819D02*
X186666667Y-61434819D01*
X186666667Y-61434819D02*
X186571429Y-61387200D01*
X186571429Y-61387200D02*
X186523810Y-61339580D01*
X171440476Y-60384819D02*
X171440476Y-61099104D01*
X171440476Y-61099104D02*
X171392857Y-61241961D01*
X171392857Y-61241961D02*
X171297619Y-61337200D01*
X171297619Y-61337200D02*
X171154762Y-61384819D01*
X171154762Y-61384819D02*
X171059524Y-61384819D01*
X172440476Y-61384819D02*
X171869048Y-61384819D01*
X172154762Y-61384819D02*
X172154762Y-60384819D01*
X172154762Y-60384819D02*
X172059524Y-60527676D01*
X172059524Y-60527676D02*
X171964286Y-60622914D01*
X171964286Y-60622914D02*
X171869048Y-60670533D01*
X172821429Y-60480057D02*
X172869048Y-60432438D01*
X172869048Y-60432438D02*
X172964286Y-60384819D01*
X172964286Y-60384819D02*
X173202381Y-60384819D01*
X173202381Y-60384819D02*
X173297619Y-60432438D01*
X173297619Y-60432438D02*
X173345238Y-60480057D01*
X173345238Y-60480057D02*
X173392857Y-60575295D01*
X173392857Y-60575295D02*
X173392857Y-60670533D01*
X173392857Y-60670533D02*
X173345238Y-60813390D01*
X173345238Y-60813390D02*
X172773810Y-61384819D01*
X172773810Y-61384819D02*
X173392857Y-61384819D01*
X133359580Y-95916666D02*
X133407200Y-95964285D01*
X133407200Y-95964285D02*
X133454819Y-96107142D01*
X133454819Y-96107142D02*
X133454819Y-96202380D01*
X133454819Y-96202380D02*
X133407200Y-96345237D01*
X133407200Y-96345237D02*
X133311961Y-96440475D01*
X133311961Y-96440475D02*
X133216723Y-96488094D01*
X133216723Y-96488094D02*
X133026247Y-96535713D01*
X133026247Y-96535713D02*
X132883390Y-96535713D01*
X132883390Y-96535713D02*
X132692914Y-96488094D01*
X132692914Y-96488094D02*
X132597676Y-96440475D01*
X132597676Y-96440475D02*
X132502438Y-96345237D01*
X132502438Y-96345237D02*
X132454819Y-96202380D01*
X132454819Y-96202380D02*
X132454819Y-96107142D01*
X132454819Y-96107142D02*
X132502438Y-95964285D01*
X132502438Y-95964285D02*
X132550057Y-95916666D01*
X133454819Y-94964285D02*
X133454819Y-95535713D01*
X133454819Y-95249999D02*
X132454819Y-95249999D01*
X132454819Y-95249999D02*
X132597676Y-95345237D01*
X132597676Y-95345237D02*
X132692914Y-95440475D01*
X132692914Y-95440475D02*
X132740533Y-95535713D01*
X133084819Y-103146666D02*
X132608628Y-103479999D01*
X133084819Y-103718094D02*
X132084819Y-103718094D01*
X132084819Y-103718094D02*
X132084819Y-103337142D01*
X132084819Y-103337142D02*
X132132438Y-103241904D01*
X132132438Y-103241904D02*
X132180057Y-103194285D01*
X132180057Y-103194285D02*
X132275295Y-103146666D01*
X132275295Y-103146666D02*
X132418152Y-103146666D01*
X132418152Y-103146666D02*
X132513390Y-103194285D01*
X132513390Y-103194285D02*
X132561009Y-103241904D01*
X132561009Y-103241904D02*
X132608628Y-103337142D01*
X132608628Y-103337142D02*
X132608628Y-103718094D01*
X132084819Y-102241904D02*
X132084819Y-102718094D01*
X132084819Y-102718094D02*
X132561009Y-102765713D01*
X132561009Y-102765713D02*
X132513390Y-102718094D01*
X132513390Y-102718094D02*
X132465771Y-102622856D01*
X132465771Y-102622856D02*
X132465771Y-102384761D01*
X132465771Y-102384761D02*
X132513390Y-102289523D01*
X132513390Y-102289523D02*
X132561009Y-102241904D01*
X132561009Y-102241904D02*
X132656247Y-102194285D01*
X132656247Y-102194285D02*
X132894342Y-102194285D01*
X132894342Y-102194285D02*
X132989580Y-102241904D01*
X132989580Y-102241904D02*
X133037200Y-102289523D01*
X133037200Y-102289523D02*
X133084819Y-102384761D01*
X133084819Y-102384761D02*
X133084819Y-102622856D01*
X133084819Y-102622856D02*
X133037200Y-102718094D01*
X133037200Y-102718094D02*
X132989580Y-102765713D01*
X95952380Y-97874819D02*
X95476190Y-97874819D01*
X95476190Y-97874819D02*
X95428571Y-98351009D01*
X95428571Y-98351009D02*
X95476190Y-98303390D01*
X95476190Y-98303390D02*
X95571428Y-98255771D01*
X95571428Y-98255771D02*
X95809523Y-98255771D01*
X95809523Y-98255771D02*
X95904761Y-98303390D01*
X95904761Y-98303390D02*
X95952380Y-98351009D01*
X95952380Y-98351009D02*
X95999999Y-98446247D01*
X95999999Y-98446247D02*
X95999999Y-98684342D01*
X95999999Y-98684342D02*
X95952380Y-98779580D01*
X95952380Y-98779580D02*
X95904761Y-98827200D01*
X95904761Y-98827200D02*
X95809523Y-98874819D01*
X95809523Y-98874819D02*
X95571428Y-98874819D01*
X95571428Y-98874819D02*
X95476190Y-98827200D01*
X95476190Y-98827200D02*
X95428571Y-98779580D01*
X96285714Y-97874819D02*
X96619047Y-98874819D01*
X96619047Y-98874819D02*
X96952380Y-97874819D01*
X97047619Y-98970057D02*
X97809523Y-98970057D01*
X98000000Y-98827200D02*
X98142857Y-98874819D01*
X98142857Y-98874819D02*
X98380952Y-98874819D01*
X98380952Y-98874819D02*
X98476190Y-98827200D01*
X98476190Y-98827200D02*
X98523809Y-98779580D01*
X98523809Y-98779580D02*
X98571428Y-98684342D01*
X98571428Y-98684342D02*
X98571428Y-98589104D01*
X98571428Y-98589104D02*
X98523809Y-98493866D01*
X98523809Y-98493866D02*
X98476190Y-98446247D01*
X98476190Y-98446247D02*
X98380952Y-98398628D01*
X98380952Y-98398628D02*
X98190476Y-98351009D01*
X98190476Y-98351009D02*
X98095238Y-98303390D01*
X98095238Y-98303390D02*
X98047619Y-98255771D01*
X98047619Y-98255771D02*
X98000000Y-98160533D01*
X98000000Y-98160533D02*
X98000000Y-98065295D01*
X98000000Y-98065295D02*
X98047619Y-97970057D01*
X98047619Y-97970057D02*
X98095238Y-97922438D01*
X98095238Y-97922438D02*
X98190476Y-97874819D01*
X98190476Y-97874819D02*
X98428571Y-97874819D01*
X98428571Y-97874819D02*
X98571428Y-97922438D01*
X99000000Y-97874819D02*
X99000000Y-98684342D01*
X99000000Y-98684342D02*
X99047619Y-98779580D01*
X99047619Y-98779580D02*
X99095238Y-98827200D01*
X99095238Y-98827200D02*
X99190476Y-98874819D01*
X99190476Y-98874819D02*
X99380952Y-98874819D01*
X99380952Y-98874819D02*
X99476190Y-98827200D01*
X99476190Y-98827200D02*
X99523809Y-98779580D01*
X99523809Y-98779580D02*
X99571428Y-98684342D01*
X99571428Y-98684342D02*
X99571428Y-97874819D01*
X100047619Y-98874819D02*
X100047619Y-97874819D01*
X100047619Y-97874819D02*
X100428571Y-97874819D01*
X100428571Y-97874819D02*
X100523809Y-97922438D01*
X100523809Y-97922438D02*
X100571428Y-97970057D01*
X100571428Y-97970057D02*
X100619047Y-98065295D01*
X100619047Y-98065295D02*
X100619047Y-98208152D01*
X100619047Y-98208152D02*
X100571428Y-98303390D01*
X100571428Y-98303390D02*
X100523809Y-98351009D01*
X100523809Y-98351009D02*
X100428571Y-98398628D01*
X100428571Y-98398628D02*
X100047619Y-98398628D01*
X101047619Y-98874819D02*
X101047619Y-97874819D01*
X101047619Y-97874819D02*
X101428571Y-97874819D01*
X101428571Y-97874819D02*
X101523809Y-97922438D01*
X101523809Y-97922438D02*
X101571428Y-97970057D01*
X101571428Y-97970057D02*
X101619047Y-98065295D01*
X101619047Y-98065295D02*
X101619047Y-98208152D01*
X101619047Y-98208152D02*
X101571428Y-98303390D01*
X101571428Y-98303390D02*
X101523809Y-98351009D01*
X101523809Y-98351009D02*
X101428571Y-98398628D01*
X101428571Y-98398628D02*
X101047619Y-98398628D01*
X102571428Y-98874819D02*
X102000000Y-98874819D01*
X102285714Y-98874819D02*
X102285714Y-97874819D01*
X102285714Y-97874819D02*
X102190476Y-98017676D01*
X102190476Y-98017676D02*
X102095238Y-98112914D01*
X102095238Y-98112914D02*
X102000000Y-98160533D01*
X113833333Y-95609580D02*
X113785714Y-95657200D01*
X113785714Y-95657200D02*
X113642857Y-95704819D01*
X113642857Y-95704819D02*
X113547619Y-95704819D01*
X113547619Y-95704819D02*
X113404762Y-95657200D01*
X113404762Y-95657200D02*
X113309524Y-95561961D01*
X113309524Y-95561961D02*
X113261905Y-95466723D01*
X113261905Y-95466723D02*
X113214286Y-95276247D01*
X113214286Y-95276247D02*
X113214286Y-95133390D01*
X113214286Y-95133390D02*
X113261905Y-94942914D01*
X113261905Y-94942914D02*
X113309524Y-94847676D01*
X113309524Y-94847676D02*
X113404762Y-94752438D01*
X113404762Y-94752438D02*
X113547619Y-94704819D01*
X113547619Y-94704819D02*
X113642857Y-94704819D01*
X113642857Y-94704819D02*
X113785714Y-94752438D01*
X113785714Y-94752438D02*
X113833333Y-94800057D01*
X114166667Y-94704819D02*
X114785714Y-94704819D01*
X114785714Y-94704819D02*
X114452381Y-95085771D01*
X114452381Y-95085771D02*
X114595238Y-95085771D01*
X114595238Y-95085771D02*
X114690476Y-95133390D01*
X114690476Y-95133390D02*
X114738095Y-95181009D01*
X114738095Y-95181009D02*
X114785714Y-95276247D01*
X114785714Y-95276247D02*
X114785714Y-95514342D01*
X114785714Y-95514342D02*
X114738095Y-95609580D01*
X114738095Y-95609580D02*
X114690476Y-95657200D01*
X114690476Y-95657200D02*
X114595238Y-95704819D01*
X114595238Y-95704819D02*
X114309524Y-95704819D01*
X114309524Y-95704819D02*
X114214286Y-95657200D01*
X114214286Y-95657200D02*
X114166667Y-95609580D01*
X151190476Y-60434819D02*
X151190476Y-61149104D01*
X151190476Y-61149104D02*
X151142857Y-61291961D01*
X151142857Y-61291961D02*
X151047619Y-61387200D01*
X151047619Y-61387200D02*
X150904762Y-61434819D01*
X150904762Y-61434819D02*
X150809524Y-61434819D01*
X152190476Y-61434819D02*
X151619048Y-61434819D01*
X151904762Y-61434819D02*
X151904762Y-60434819D01*
X151904762Y-60434819D02*
X151809524Y-60577676D01*
X151809524Y-60577676D02*
X151714286Y-60672914D01*
X151714286Y-60672914D02*
X151619048Y-60720533D01*
X153142857Y-61434819D02*
X152571429Y-61434819D01*
X152857143Y-61434819D02*
X152857143Y-60434819D01*
X152857143Y-60434819D02*
X152761905Y-60577676D01*
X152761905Y-60577676D02*
X152666667Y-60672914D01*
X152666667Y-60672914D02*
X152571429Y-60720533D01*
X106623333Y-105609580D02*
X106575714Y-105657200D01*
X106575714Y-105657200D02*
X106432857Y-105704819D01*
X106432857Y-105704819D02*
X106337619Y-105704819D01*
X106337619Y-105704819D02*
X106194762Y-105657200D01*
X106194762Y-105657200D02*
X106099524Y-105561961D01*
X106099524Y-105561961D02*
X106051905Y-105466723D01*
X106051905Y-105466723D02*
X106004286Y-105276247D01*
X106004286Y-105276247D02*
X106004286Y-105133390D01*
X106004286Y-105133390D02*
X106051905Y-104942914D01*
X106051905Y-104942914D02*
X106099524Y-104847676D01*
X106099524Y-104847676D02*
X106194762Y-104752438D01*
X106194762Y-104752438D02*
X106337619Y-104704819D01*
X106337619Y-104704819D02*
X106432857Y-104704819D01*
X106432857Y-104704819D02*
X106575714Y-104752438D01*
X106575714Y-104752438D02*
X106623333Y-104800057D01*
X107480476Y-105038152D02*
X107480476Y-105704819D01*
X107242381Y-104657200D02*
X107004286Y-105371485D01*
X107004286Y-105371485D02*
X107623333Y-105371485D01*
X94833333Y-119859580D02*
X94785714Y-119907200D01*
X94785714Y-119907200D02*
X94642857Y-119954819D01*
X94642857Y-119954819D02*
X94547619Y-119954819D01*
X94547619Y-119954819D02*
X94404762Y-119907200D01*
X94404762Y-119907200D02*
X94309524Y-119811961D01*
X94309524Y-119811961D02*
X94261905Y-119716723D01*
X94261905Y-119716723D02*
X94214286Y-119526247D01*
X94214286Y-119526247D02*
X94214286Y-119383390D01*
X94214286Y-119383390D02*
X94261905Y-119192914D01*
X94261905Y-119192914D02*
X94309524Y-119097676D01*
X94309524Y-119097676D02*
X94404762Y-119002438D01*
X94404762Y-119002438D02*
X94547619Y-118954819D01*
X94547619Y-118954819D02*
X94642857Y-118954819D01*
X94642857Y-118954819D02*
X94785714Y-119002438D01*
X94785714Y-119002438D02*
X94833333Y-119050057D01*
X95690476Y-118954819D02*
X95500000Y-118954819D01*
X95500000Y-118954819D02*
X95404762Y-119002438D01*
X95404762Y-119002438D02*
X95357143Y-119050057D01*
X95357143Y-119050057D02*
X95261905Y-119192914D01*
X95261905Y-119192914D02*
X95214286Y-119383390D01*
X95214286Y-119383390D02*
X95214286Y-119764342D01*
X95214286Y-119764342D02*
X95261905Y-119859580D01*
X95261905Y-119859580D02*
X95309524Y-119907200D01*
X95309524Y-119907200D02*
X95404762Y-119954819D01*
X95404762Y-119954819D02*
X95595238Y-119954819D01*
X95595238Y-119954819D02*
X95690476Y-119907200D01*
X95690476Y-119907200D02*
X95738095Y-119859580D01*
X95738095Y-119859580D02*
X95785714Y-119764342D01*
X95785714Y-119764342D02*
X95785714Y-119526247D01*
X95785714Y-119526247D02*
X95738095Y-119431009D01*
X95738095Y-119431009D02*
X95690476Y-119383390D01*
X95690476Y-119383390D02*
X95595238Y-119335771D01*
X95595238Y-119335771D02*
X95404762Y-119335771D01*
X95404762Y-119335771D02*
X95309524Y-119383390D01*
X95309524Y-119383390D02*
X95261905Y-119431009D01*
X95261905Y-119431009D02*
X95214286Y-119526247D01*
X145704819Y-126761904D02*
X146514342Y-126761904D01*
X146514342Y-126761904D02*
X146609580Y-126714285D01*
X146609580Y-126714285D02*
X146657200Y-126666666D01*
X146657200Y-126666666D02*
X146704819Y-126571428D01*
X146704819Y-126571428D02*
X146704819Y-126380952D01*
X146704819Y-126380952D02*
X146657200Y-126285714D01*
X146657200Y-126285714D02*
X146609580Y-126238095D01*
X146609580Y-126238095D02*
X146514342Y-126190476D01*
X146514342Y-126190476D02*
X145704819Y-126190476D01*
X146704819Y-125190476D02*
X146704819Y-125761904D01*
X146704819Y-125476190D02*
X145704819Y-125476190D01*
X145704819Y-125476190D02*
X145847676Y-125571428D01*
X145847676Y-125571428D02*
X145942914Y-125666666D01*
X145942914Y-125666666D02*
X145990533Y-125761904D01*
X125738095Y-98704819D02*
X125738095Y-99514342D01*
X125738095Y-99514342D02*
X125785714Y-99609580D01*
X125785714Y-99609580D02*
X125833333Y-99657200D01*
X125833333Y-99657200D02*
X125928571Y-99704819D01*
X125928571Y-99704819D02*
X126119047Y-99704819D01*
X126119047Y-99704819D02*
X126214285Y-99657200D01*
X126214285Y-99657200D02*
X126261904Y-99609580D01*
X126261904Y-99609580D02*
X126309523Y-99514342D01*
X126309523Y-99514342D02*
X126309523Y-98704819D01*
X126738095Y-98800057D02*
X126785714Y-98752438D01*
X126785714Y-98752438D02*
X126880952Y-98704819D01*
X126880952Y-98704819D02*
X127119047Y-98704819D01*
X127119047Y-98704819D02*
X127214285Y-98752438D01*
X127214285Y-98752438D02*
X127261904Y-98800057D01*
X127261904Y-98800057D02*
X127309523Y-98895295D01*
X127309523Y-98895295D02*
X127309523Y-98990533D01*
X127309523Y-98990533D02*
X127261904Y-99133390D01*
X127261904Y-99133390D02*
X126690476Y-99704819D01*
X126690476Y-99704819D02*
X127309523Y-99704819D01*
X94833333Y-128359580D02*
X94785714Y-128407200D01*
X94785714Y-128407200D02*
X94642857Y-128454819D01*
X94642857Y-128454819D02*
X94547619Y-128454819D01*
X94547619Y-128454819D02*
X94404762Y-128407200D01*
X94404762Y-128407200D02*
X94309524Y-128311961D01*
X94309524Y-128311961D02*
X94261905Y-128216723D01*
X94261905Y-128216723D02*
X94214286Y-128026247D01*
X94214286Y-128026247D02*
X94214286Y-127883390D01*
X94214286Y-127883390D02*
X94261905Y-127692914D01*
X94261905Y-127692914D02*
X94309524Y-127597676D01*
X94309524Y-127597676D02*
X94404762Y-127502438D01*
X94404762Y-127502438D02*
X94547619Y-127454819D01*
X94547619Y-127454819D02*
X94642857Y-127454819D01*
X94642857Y-127454819D02*
X94785714Y-127502438D01*
X94785714Y-127502438D02*
X94833333Y-127550057D01*
X95404762Y-127883390D02*
X95309524Y-127835771D01*
X95309524Y-127835771D02*
X95261905Y-127788152D01*
X95261905Y-127788152D02*
X95214286Y-127692914D01*
X95214286Y-127692914D02*
X95214286Y-127645295D01*
X95214286Y-127645295D02*
X95261905Y-127550057D01*
X95261905Y-127550057D02*
X95309524Y-127502438D01*
X95309524Y-127502438D02*
X95404762Y-127454819D01*
X95404762Y-127454819D02*
X95595238Y-127454819D01*
X95595238Y-127454819D02*
X95690476Y-127502438D01*
X95690476Y-127502438D02*
X95738095Y-127550057D01*
X95738095Y-127550057D02*
X95785714Y-127645295D01*
X95785714Y-127645295D02*
X95785714Y-127692914D01*
X95785714Y-127692914D02*
X95738095Y-127788152D01*
X95738095Y-127788152D02*
X95690476Y-127835771D01*
X95690476Y-127835771D02*
X95595238Y-127883390D01*
X95595238Y-127883390D02*
X95404762Y-127883390D01*
X95404762Y-127883390D02*
X95309524Y-127931009D01*
X95309524Y-127931009D02*
X95261905Y-127978628D01*
X95261905Y-127978628D02*
X95214286Y-128073866D01*
X95214286Y-128073866D02*
X95214286Y-128264342D01*
X95214286Y-128264342D02*
X95261905Y-128359580D01*
X95261905Y-128359580D02*
X95309524Y-128407200D01*
X95309524Y-128407200D02*
X95404762Y-128454819D01*
X95404762Y-128454819D02*
X95595238Y-128454819D01*
X95595238Y-128454819D02*
X95690476Y-128407200D01*
X95690476Y-128407200D02*
X95738095Y-128359580D01*
X95738095Y-128359580D02*
X95785714Y-128264342D01*
X95785714Y-128264342D02*
X95785714Y-128073866D01*
X95785714Y-128073866D02*
X95738095Y-127978628D01*
X95738095Y-127978628D02*
X95690476Y-127931009D01*
X95690476Y-127931009D02*
X95595238Y-127883390D01*
X131845238Y-89704819D02*
X131845238Y-88704819D01*
X131845238Y-88704819D02*
X132226190Y-88704819D01*
X132226190Y-88704819D02*
X132321428Y-88752438D01*
X132321428Y-88752438D02*
X132369047Y-88800057D01*
X132369047Y-88800057D02*
X132416666Y-88895295D01*
X132416666Y-88895295D02*
X132416666Y-89038152D01*
X132416666Y-89038152D02*
X132369047Y-89133390D01*
X132369047Y-89133390D02*
X132321428Y-89181009D01*
X132321428Y-89181009D02*
X132226190Y-89228628D01*
X132226190Y-89228628D02*
X131845238Y-89228628D01*
X132845238Y-89704819D02*
X132845238Y-88704819D01*
X132845238Y-89181009D02*
X133416666Y-89181009D01*
X133416666Y-89704819D02*
X133416666Y-88704819D01*
X134083333Y-88704819D02*
X134273809Y-88704819D01*
X134273809Y-88704819D02*
X134369047Y-88752438D01*
X134369047Y-88752438D02*
X134464285Y-88847676D01*
X134464285Y-88847676D02*
X134511904Y-89038152D01*
X134511904Y-89038152D02*
X134511904Y-89371485D01*
X134511904Y-89371485D02*
X134464285Y-89561961D01*
X134464285Y-89561961D02*
X134369047Y-89657200D01*
X134369047Y-89657200D02*
X134273809Y-89704819D01*
X134273809Y-89704819D02*
X134083333Y-89704819D01*
X134083333Y-89704819D02*
X133988095Y-89657200D01*
X133988095Y-89657200D02*
X133892857Y-89561961D01*
X133892857Y-89561961D02*
X133845238Y-89371485D01*
X133845238Y-89371485D02*
X133845238Y-89038152D01*
X133845238Y-89038152D02*
X133892857Y-88847676D01*
X133892857Y-88847676D02*
X133988095Y-88752438D01*
X133988095Y-88752438D02*
X134083333Y-88704819D01*
X134797619Y-88704819D02*
X135369047Y-88704819D01*
X135083333Y-89704819D02*
X135083333Y-88704819D01*
X135892857Y-88704819D02*
X136083333Y-88704819D01*
X136083333Y-88704819D02*
X136178571Y-88752438D01*
X136178571Y-88752438D02*
X136273809Y-88847676D01*
X136273809Y-88847676D02*
X136321428Y-89038152D01*
X136321428Y-89038152D02*
X136321428Y-89371485D01*
X136321428Y-89371485D02*
X136273809Y-89561961D01*
X136273809Y-89561961D02*
X136178571Y-89657200D01*
X136178571Y-89657200D02*
X136083333Y-89704819D01*
X136083333Y-89704819D02*
X135892857Y-89704819D01*
X135892857Y-89704819D02*
X135797619Y-89657200D01*
X135797619Y-89657200D02*
X135702381Y-89561961D01*
X135702381Y-89561961D02*
X135654762Y-89371485D01*
X135654762Y-89371485D02*
X135654762Y-89038152D01*
X135654762Y-89038152D02*
X135702381Y-88847676D01*
X135702381Y-88847676D02*
X135797619Y-88752438D01*
X135797619Y-88752438D02*
X135892857Y-88704819D01*
X136750000Y-89704819D02*
X136750000Y-88704819D01*
X136750000Y-88704819D02*
X136988095Y-88704819D01*
X136988095Y-88704819D02*
X137130952Y-88752438D01*
X137130952Y-88752438D02*
X137226190Y-88847676D01*
X137226190Y-88847676D02*
X137273809Y-88942914D01*
X137273809Y-88942914D02*
X137321428Y-89133390D01*
X137321428Y-89133390D02*
X137321428Y-89276247D01*
X137321428Y-89276247D02*
X137273809Y-89466723D01*
X137273809Y-89466723D02*
X137226190Y-89561961D01*
X137226190Y-89561961D02*
X137130952Y-89657200D01*
X137130952Y-89657200D02*
X136988095Y-89704819D01*
X136988095Y-89704819D02*
X136750000Y-89704819D01*
X137750000Y-89704819D02*
X137750000Y-88704819D01*
X138416666Y-88704819D02*
X138607142Y-88704819D01*
X138607142Y-88704819D02*
X138702380Y-88752438D01*
X138702380Y-88752438D02*
X138797618Y-88847676D01*
X138797618Y-88847676D02*
X138845237Y-89038152D01*
X138845237Y-89038152D02*
X138845237Y-89371485D01*
X138845237Y-89371485D02*
X138797618Y-89561961D01*
X138797618Y-89561961D02*
X138702380Y-89657200D01*
X138702380Y-89657200D02*
X138607142Y-89704819D01*
X138607142Y-89704819D02*
X138416666Y-89704819D01*
X138416666Y-89704819D02*
X138321428Y-89657200D01*
X138321428Y-89657200D02*
X138226190Y-89561961D01*
X138226190Y-89561961D02*
X138178571Y-89371485D01*
X138178571Y-89371485D02*
X138178571Y-89038152D01*
X138178571Y-89038152D02*
X138226190Y-88847676D01*
X138226190Y-88847676D02*
X138321428Y-88752438D01*
X138321428Y-88752438D02*
X138416666Y-88704819D01*
X139273809Y-89704819D02*
X139273809Y-88704819D01*
X139273809Y-88704819D02*
X139511904Y-88704819D01*
X139511904Y-88704819D02*
X139654761Y-88752438D01*
X139654761Y-88752438D02*
X139749999Y-88847676D01*
X139749999Y-88847676D02*
X139797618Y-88942914D01*
X139797618Y-88942914D02*
X139845237Y-89133390D01*
X139845237Y-89133390D02*
X139845237Y-89276247D01*
X139845237Y-89276247D02*
X139797618Y-89466723D01*
X139797618Y-89466723D02*
X139749999Y-89561961D01*
X139749999Y-89561961D02*
X139654761Y-89657200D01*
X139654761Y-89657200D02*
X139511904Y-89704819D01*
X139511904Y-89704819D02*
X139273809Y-89704819D01*
X140273809Y-89181009D02*
X140607142Y-89181009D01*
X140749999Y-89704819D02*
X140273809Y-89704819D01*
X140273809Y-89704819D02*
X140273809Y-88704819D01*
X140273809Y-88704819D02*
X140749999Y-88704819D01*
X141702380Y-89704819D02*
X141130952Y-89704819D01*
X141416666Y-89704819D02*
X141416666Y-88704819D01*
X141416666Y-88704819D02*
X141321428Y-88847676D01*
X141321428Y-88847676D02*
X141226190Y-88942914D01*
X141226190Y-88942914D02*
X141130952Y-88990533D01*
X118916666Y-70434819D02*
X118916666Y-71149104D01*
X118916666Y-71149104D02*
X118869047Y-71291961D01*
X118869047Y-71291961D02*
X118773809Y-71387200D01*
X118773809Y-71387200D02*
X118630952Y-71434819D01*
X118630952Y-71434819D02*
X118535714Y-71434819D01*
X119916666Y-71434819D02*
X119345238Y-71434819D01*
X119630952Y-71434819D02*
X119630952Y-70434819D01*
X119630952Y-70434819D02*
X119535714Y-70577676D01*
X119535714Y-70577676D02*
X119440476Y-70672914D01*
X119440476Y-70672914D02*
X119345238Y-70720533D01*
X117084819Y-103106666D02*
X116608628Y-103439999D01*
X117084819Y-103678094D02*
X116084819Y-103678094D01*
X116084819Y-103678094D02*
X116084819Y-103297142D01*
X116084819Y-103297142D02*
X116132438Y-103201904D01*
X116132438Y-103201904D02*
X116180057Y-103154285D01*
X116180057Y-103154285D02*
X116275295Y-103106666D01*
X116275295Y-103106666D02*
X116418152Y-103106666D01*
X116418152Y-103106666D02*
X116513390Y-103154285D01*
X116513390Y-103154285D02*
X116561009Y-103201904D01*
X116561009Y-103201904D02*
X116608628Y-103297142D01*
X116608628Y-103297142D02*
X116608628Y-103678094D01*
X116418152Y-102249523D02*
X117084819Y-102249523D01*
X116037200Y-102487618D02*
X116751485Y-102725713D01*
X116751485Y-102725713D02*
X116751485Y-102106666D01*
X94833333Y-115609580D02*
X94785714Y-115657200D01*
X94785714Y-115657200D02*
X94642857Y-115704819D01*
X94642857Y-115704819D02*
X94547619Y-115704819D01*
X94547619Y-115704819D02*
X94404762Y-115657200D01*
X94404762Y-115657200D02*
X94309524Y-115561961D01*
X94309524Y-115561961D02*
X94261905Y-115466723D01*
X94261905Y-115466723D02*
X94214286Y-115276247D01*
X94214286Y-115276247D02*
X94214286Y-115133390D01*
X94214286Y-115133390D02*
X94261905Y-114942914D01*
X94261905Y-114942914D02*
X94309524Y-114847676D01*
X94309524Y-114847676D02*
X94404762Y-114752438D01*
X94404762Y-114752438D02*
X94547619Y-114704819D01*
X94547619Y-114704819D02*
X94642857Y-114704819D01*
X94642857Y-114704819D02*
X94785714Y-114752438D01*
X94785714Y-114752438D02*
X94833333Y-114800057D01*
X95309524Y-115704819D02*
X95500000Y-115704819D01*
X95500000Y-115704819D02*
X95595238Y-115657200D01*
X95595238Y-115657200D02*
X95642857Y-115609580D01*
X95642857Y-115609580D02*
X95738095Y-115466723D01*
X95738095Y-115466723D02*
X95785714Y-115276247D01*
X95785714Y-115276247D02*
X95785714Y-114895295D01*
X95785714Y-114895295D02*
X95738095Y-114800057D01*
X95738095Y-114800057D02*
X95690476Y-114752438D01*
X95690476Y-114752438D02*
X95595238Y-114704819D01*
X95595238Y-114704819D02*
X95404762Y-114704819D01*
X95404762Y-114704819D02*
X95309524Y-114752438D01*
X95309524Y-114752438D02*
X95261905Y-114800057D01*
X95261905Y-114800057D02*
X95214286Y-114895295D01*
X95214286Y-114895295D02*
X95214286Y-115133390D01*
X95214286Y-115133390D02*
X95261905Y-115228628D01*
X95261905Y-115228628D02*
X95309524Y-115276247D01*
X95309524Y-115276247D02*
X95404762Y-115323866D01*
X95404762Y-115323866D02*
X95595238Y-115323866D01*
X95595238Y-115323866D02*
X95690476Y-115276247D01*
X95690476Y-115276247D02*
X95738095Y-115228628D01*
X95738095Y-115228628D02*
X95785714Y-115133390D01*
X117109580Y-95416666D02*
X117157200Y-95464285D01*
X117157200Y-95464285D02*
X117204819Y-95607142D01*
X117204819Y-95607142D02*
X117204819Y-95702380D01*
X117204819Y-95702380D02*
X117157200Y-95845237D01*
X117157200Y-95845237D02*
X117061961Y-95940475D01*
X117061961Y-95940475D02*
X116966723Y-95988094D01*
X116966723Y-95988094D02*
X116776247Y-96035713D01*
X116776247Y-96035713D02*
X116633390Y-96035713D01*
X116633390Y-96035713D02*
X116442914Y-95988094D01*
X116442914Y-95988094D02*
X116347676Y-95940475D01*
X116347676Y-95940475D02*
X116252438Y-95845237D01*
X116252438Y-95845237D02*
X116204819Y-95702380D01*
X116204819Y-95702380D02*
X116204819Y-95607142D01*
X116204819Y-95607142D02*
X116252438Y-95464285D01*
X116252438Y-95464285D02*
X116300057Y-95416666D01*
X116300057Y-95035713D02*
X116252438Y-94988094D01*
X116252438Y-94988094D02*
X116204819Y-94892856D01*
X116204819Y-94892856D02*
X116204819Y-94654761D01*
X116204819Y-94654761D02*
X116252438Y-94559523D01*
X116252438Y-94559523D02*
X116300057Y-94511904D01*
X116300057Y-94511904D02*
X116395295Y-94464285D01*
X116395295Y-94464285D02*
X116490533Y-94464285D01*
X116490533Y-94464285D02*
X116633390Y-94511904D01*
X116633390Y-94511904D02*
X117204819Y-95083332D01*
X117204819Y-95083332D02*
X117204819Y-94464285D01*
X155416666Y-70434819D02*
X155416666Y-71149104D01*
X155416666Y-71149104D02*
X155369047Y-71291961D01*
X155369047Y-71291961D02*
X155273809Y-71387200D01*
X155273809Y-71387200D02*
X155130952Y-71434819D01*
X155130952Y-71434819D02*
X155035714Y-71434819D01*
X155797619Y-70434819D02*
X156416666Y-70434819D01*
X156416666Y-70434819D02*
X156083333Y-70815771D01*
X156083333Y-70815771D02*
X156226190Y-70815771D01*
X156226190Y-70815771D02*
X156321428Y-70863390D01*
X156321428Y-70863390D02*
X156369047Y-70911009D01*
X156369047Y-70911009D02*
X156416666Y-71006247D01*
X156416666Y-71006247D02*
X156416666Y-71244342D01*
X156416666Y-71244342D02*
X156369047Y-71339580D01*
X156369047Y-71339580D02*
X156321428Y-71387200D01*
X156321428Y-71387200D02*
X156226190Y-71434819D01*
X156226190Y-71434819D02*
X155940476Y-71434819D01*
X155940476Y-71434819D02*
X155845238Y-71387200D01*
X155845238Y-71387200D02*
X155797619Y-71339580D01*
X119166666Y-50434819D02*
X119166666Y-51149104D01*
X119166666Y-51149104D02*
X119119047Y-51291961D01*
X119119047Y-51291961D02*
X119023809Y-51387200D01*
X119023809Y-51387200D02*
X118880952Y-51434819D01*
X118880952Y-51434819D02*
X118785714Y-51434819D01*
X119785714Y-50863390D02*
X119690476Y-50815771D01*
X119690476Y-50815771D02*
X119642857Y-50768152D01*
X119642857Y-50768152D02*
X119595238Y-50672914D01*
X119595238Y-50672914D02*
X119595238Y-50625295D01*
X119595238Y-50625295D02*
X119642857Y-50530057D01*
X119642857Y-50530057D02*
X119690476Y-50482438D01*
X119690476Y-50482438D02*
X119785714Y-50434819D01*
X119785714Y-50434819D02*
X119976190Y-50434819D01*
X119976190Y-50434819D02*
X120071428Y-50482438D01*
X120071428Y-50482438D02*
X120119047Y-50530057D01*
X120119047Y-50530057D02*
X120166666Y-50625295D01*
X120166666Y-50625295D02*
X120166666Y-50672914D01*
X120166666Y-50672914D02*
X120119047Y-50768152D01*
X120119047Y-50768152D02*
X120071428Y-50815771D01*
X120071428Y-50815771D02*
X119976190Y-50863390D01*
X119976190Y-50863390D02*
X119785714Y-50863390D01*
X119785714Y-50863390D02*
X119690476Y-50911009D01*
X119690476Y-50911009D02*
X119642857Y-50958628D01*
X119642857Y-50958628D02*
X119595238Y-51053866D01*
X119595238Y-51053866D02*
X119595238Y-51244342D01*
X119595238Y-51244342D02*
X119642857Y-51339580D01*
X119642857Y-51339580D02*
X119690476Y-51387200D01*
X119690476Y-51387200D02*
X119785714Y-51434819D01*
X119785714Y-51434819D02*
X119976190Y-51434819D01*
X119976190Y-51434819D02*
X120071428Y-51387200D01*
X120071428Y-51387200D02*
X120119047Y-51339580D01*
X120119047Y-51339580D02*
X120166666Y-51244342D01*
X120166666Y-51244342D02*
X120166666Y-51053866D01*
X120166666Y-51053866D02*
X120119047Y-50958628D01*
X120119047Y-50958628D02*
X120071428Y-50911009D01*
X120071428Y-50911009D02*
X119976190Y-50863390D01*
X104333333Y-102704819D02*
X104000000Y-102228628D01*
X103761905Y-102704819D02*
X103761905Y-101704819D01*
X103761905Y-101704819D02*
X104142857Y-101704819D01*
X104142857Y-101704819D02*
X104238095Y-101752438D01*
X104238095Y-101752438D02*
X104285714Y-101800057D01*
X104285714Y-101800057D02*
X104333333Y-101895295D01*
X104333333Y-101895295D02*
X104333333Y-102038152D01*
X104333333Y-102038152D02*
X104285714Y-102133390D01*
X104285714Y-102133390D02*
X104238095Y-102181009D01*
X104238095Y-102181009D02*
X104142857Y-102228628D01*
X104142857Y-102228628D02*
X103761905Y-102228628D01*
X105285714Y-102704819D02*
X104714286Y-102704819D01*
X105000000Y-102704819D02*
X105000000Y-101704819D01*
X105000000Y-101704819D02*
X104904762Y-101847676D01*
X104904762Y-101847676D02*
X104809524Y-101942914D01*
X104809524Y-101942914D02*
X104714286Y-101990533D01*
X94357142Y-140109580D02*
X94309523Y-140157200D01*
X94309523Y-140157200D02*
X94166666Y-140204819D01*
X94166666Y-140204819D02*
X94071428Y-140204819D01*
X94071428Y-140204819D02*
X93928571Y-140157200D01*
X93928571Y-140157200D02*
X93833333Y-140061961D01*
X93833333Y-140061961D02*
X93785714Y-139966723D01*
X93785714Y-139966723D02*
X93738095Y-139776247D01*
X93738095Y-139776247D02*
X93738095Y-139633390D01*
X93738095Y-139633390D02*
X93785714Y-139442914D01*
X93785714Y-139442914D02*
X93833333Y-139347676D01*
X93833333Y-139347676D02*
X93928571Y-139252438D01*
X93928571Y-139252438D02*
X94071428Y-139204819D01*
X94071428Y-139204819D02*
X94166666Y-139204819D01*
X94166666Y-139204819D02*
X94309523Y-139252438D01*
X94309523Y-139252438D02*
X94357142Y-139300057D01*
X95309523Y-140204819D02*
X94738095Y-140204819D01*
X95023809Y-140204819D02*
X95023809Y-139204819D01*
X95023809Y-139204819D02*
X94928571Y-139347676D01*
X94928571Y-139347676D02*
X94833333Y-139442914D01*
X94833333Y-139442914D02*
X94738095Y-139490533D01*
X95928571Y-139204819D02*
X96023809Y-139204819D01*
X96023809Y-139204819D02*
X96119047Y-139252438D01*
X96119047Y-139252438D02*
X96166666Y-139300057D01*
X96166666Y-139300057D02*
X96214285Y-139395295D01*
X96214285Y-139395295D02*
X96261904Y-139585771D01*
X96261904Y-139585771D02*
X96261904Y-139823866D01*
X96261904Y-139823866D02*
X96214285Y-140014342D01*
X96214285Y-140014342D02*
X96166666Y-140109580D01*
X96166666Y-140109580D02*
X96119047Y-140157200D01*
X96119047Y-140157200D02*
X96023809Y-140204819D01*
X96023809Y-140204819D02*
X95928571Y-140204819D01*
X95928571Y-140204819D02*
X95833333Y-140157200D01*
X95833333Y-140157200D02*
X95785714Y-140109580D01*
X95785714Y-140109580D02*
X95738095Y-140014342D01*
X95738095Y-140014342D02*
X95690476Y-139823866D01*
X95690476Y-139823866D02*
X95690476Y-139585771D01*
X95690476Y-139585771D02*
X95738095Y-139395295D01*
X95738095Y-139395295D02*
X95785714Y-139300057D01*
X95785714Y-139300057D02*
X95833333Y-139252438D01*
X95833333Y-139252438D02*
X95928571Y-139204819D01*
D12*
%TO.C,J2*%
X165420000Y-111395000D02*
X166750000Y-111395000D01*
X165420000Y-112725000D02*
X165420000Y-111395000D01*
X168020000Y-111395000D02*
X175700000Y-111395000D01*
X168020000Y-114055000D02*
X168020000Y-111395000D01*
X168020000Y-114055000D02*
X175700000Y-114055000D01*
X175700000Y-114055000D02*
X175700000Y-111395000D01*
%TO.C,J9*%
X98170000Y-54960000D02*
X98170000Y-55080000D01*
X98170000Y-55080000D02*
X100830000Y-55080000D01*
X99500000Y-52420000D02*
X100830000Y-52420000D01*
X100830000Y-52420000D02*
X100830000Y-53750000D01*
X100830000Y-54960000D02*
X100830000Y-55080000D01*
%TO.C,J10*%
X98170000Y-74960000D02*
X98170000Y-75080000D01*
X98170000Y-75080000D02*
X100830000Y-75080000D01*
X99500000Y-72420000D02*
X100830000Y-72420000D01*
X100830000Y-72420000D02*
X100830000Y-73750000D01*
X100830000Y-74960000D02*
X100830000Y-75080000D01*
%TO.C,C5*%
X93380000Y-120245000D02*
X93380000Y-120180000D01*
X93380000Y-122420000D02*
X93380000Y-122355000D01*
X96620000Y-120180000D02*
X93380000Y-120180000D01*
X96620000Y-120245000D02*
X96620000Y-120180000D01*
X96620000Y-122420000D02*
X93380000Y-122420000D01*
X96620000Y-122420000D02*
X96620000Y-122355000D01*
%TO.C,J7*%
X154670000Y-54960000D02*
X154670000Y-55080000D01*
X154670000Y-55080000D02*
X157330000Y-55080000D01*
X156000000Y-52420000D02*
X157330000Y-52420000D01*
X157330000Y-52420000D02*
X157330000Y-53750000D01*
X157330000Y-54960000D02*
X157330000Y-55080000D01*
%TO.C,R2*%
X107460000Y-97380000D02*
X107460000Y-97710000D01*
X107460000Y-100120000D02*
X107460000Y-99790000D01*
X114000000Y-97380000D02*
X107460000Y-97380000D01*
X114000000Y-97710000D02*
X114000000Y-97380000D01*
X114000000Y-99790000D02*
X114000000Y-100120000D01*
X114000000Y-100120000D02*
X107460000Y-100120000D01*
%TO.C,OScope1*%
X139670000Y-93040000D02*
X139670000Y-92920000D01*
X139670000Y-95580000D02*
X139670000Y-94250000D01*
X141000000Y-95580000D02*
X139670000Y-95580000D01*
X142330000Y-92920000D02*
X139670000Y-92920000D01*
X142330000Y-93040000D02*
X142330000Y-92920000D01*
%TO.C,R3*%
X124500000Y-92880000D02*
X131040000Y-92880000D01*
X124500000Y-93210000D02*
X124500000Y-92880000D01*
X124500000Y-95290000D02*
X124500000Y-95620000D01*
X124500000Y-95620000D02*
X131040000Y-95620000D01*
X131040000Y-92880000D02*
X131040000Y-93210000D01*
X131040000Y-95620000D02*
X131040000Y-95290000D01*
%TO.C,J6*%
X181420000Y-74960000D02*
X181420000Y-75080000D01*
X181420000Y-75080000D02*
X184080000Y-75080000D01*
X182750000Y-72420000D02*
X184080000Y-72420000D01*
X184080000Y-72420000D02*
X184080000Y-73750000D01*
X184080000Y-74960000D02*
X184080000Y-75080000D01*
D13*
%TO.C,G\u002A\u002A\u002A*%
G36*
X172537466Y-87377892D02*
G01*
X172970327Y-87554634D01*
X173309774Y-87829665D01*
X173346666Y-87874185D01*
X173561561Y-88265696D01*
X173691811Y-88763093D01*
X173741699Y-89337112D01*
X173715504Y-89958485D01*
X173617508Y-90597948D01*
X173451992Y-91226234D01*
X173223237Y-91814079D01*
X172935524Y-92332215D01*
X172640156Y-92703963D01*
X172176459Y-93079519D01*
X171644349Y-93329172D01*
X171076281Y-93443496D01*
X170504708Y-93413063D01*
X170334948Y-93373616D01*
X169887122Y-93177443D01*
X169546440Y-92865741D01*
X169311181Y-92435575D01*
X169179627Y-91884009D01*
X169147902Y-91347851D01*
X169161184Y-91154753D01*
X170405472Y-91154753D01*
X170422906Y-91619822D01*
X170500644Y-92002270D01*
X170641129Y-92270049D01*
X170648233Y-92278082D01*
X170868311Y-92410745D01*
X171146689Y-92422971D01*
X171436565Y-92317317D01*
X171562910Y-92228134D01*
X171831293Y-91915445D01*
X172065868Y-91471345D01*
X172257499Y-90924315D01*
X172397049Y-90302836D01*
X172475380Y-89635388D01*
X172487893Y-89344918D01*
X172488983Y-89017674D01*
X172469113Y-88805097D01*
X172418021Y-88660422D01*
X172325442Y-88536887D01*
X172305924Y-88515778D01*
X172051020Y-88342836D01*
X171766597Y-88315700D01*
X171472427Y-88426084D01*
X171188282Y-88665703D01*
X170933935Y-89026271D01*
X170889891Y-89109185D01*
X170690550Y-89584277D01*
X170541738Y-90104934D01*
X170445897Y-90639108D01*
X170405472Y-91154753D01*
X169161184Y-91154753D01*
X169201777Y-90564604D01*
X169353198Y-89820919D01*
X169591996Y-89137625D01*
X169908004Y-88535548D01*
X170291052Y-88035515D01*
X170730972Y-87658354D01*
X171029086Y-87494801D01*
X171531775Y-87342234D01*
X172046259Y-87305178D01*
X172537466Y-87377892D01*
G37*
G36*
X167337868Y-87366427D02*
G01*
X167815986Y-87548937D01*
X168185064Y-87840174D01*
X168435625Y-88230335D01*
X168558187Y-88709615D01*
X168556709Y-89160502D01*
X168496047Y-89515492D01*
X168381401Y-89826084D01*
X168194758Y-90113886D01*
X167918107Y-90400510D01*
X167533436Y-90707565D01*
X167022734Y-91056660D01*
X166921975Y-91121812D01*
X166502937Y-91403014D01*
X166131321Y-91675016D01*
X165828263Y-91920396D01*
X165614898Y-92121732D01*
X165512361Y-92261603D01*
X165506370Y-92288710D01*
X165582871Y-92309906D01*
X165794832Y-92328172D01*
X166115938Y-92342269D01*
X166519874Y-92350958D01*
X166876225Y-92353185D01*
X168246080Y-92353185D01*
X168082174Y-92838535D01*
X167918269Y-93323885D01*
X165826871Y-93323885D01*
X163735472Y-93323885D01*
X163859589Y-92899204D01*
X164090141Y-92338564D01*
X164452338Y-91796412D01*
X164954328Y-91263581D01*
X165604261Y-90730902D01*
X166082374Y-90398485D01*
X166558953Y-90065638D01*
X166902018Y-89777636D01*
X167127152Y-89516520D01*
X167249936Y-89264333D01*
X167285988Y-89011362D01*
X167246531Y-88662726D01*
X167117983Y-88441194D01*
X166885080Y-88329917D01*
X166649401Y-88308599D01*
X166379643Y-88328422D01*
X166195048Y-88406363D01*
X166057392Y-88531051D01*
X165892781Y-88752190D01*
X165776755Y-88984504D01*
X165772889Y-88996178D01*
X165724874Y-89122266D01*
X165654484Y-89196711D01*
X165522048Y-89235596D01*
X165287896Y-89255005D01*
X165115664Y-89262620D01*
X164800532Y-89270438D01*
X164616093Y-89243699D01*
X164544865Y-89154602D01*
X164569368Y-88975347D01*
X164672118Y-88678134D01*
X164700440Y-88602302D01*
X164927502Y-88179611D01*
X165256842Y-87803025D01*
X165644283Y-87517262D01*
X165877189Y-87411113D01*
X166126580Y-87353867D01*
X166459800Y-87314577D01*
X166760191Y-87302450D01*
X167337868Y-87366427D01*
G37*
G36*
X177323461Y-87327921D02*
G01*
X177632194Y-87391005D01*
X177842357Y-87478445D01*
X178237650Y-87736954D01*
X178502826Y-88049501D01*
X178653420Y-88443615D01*
X178704964Y-88946824D01*
X178705261Y-89007661D01*
X178685075Y-89354245D01*
X178616252Y-89656946D01*
X178483373Y-89934889D01*
X178271019Y-90207197D01*
X177963771Y-90492996D01*
X177546209Y-90811408D01*
X177002915Y-91181557D01*
X176896021Y-91251604D01*
X176409507Y-91580007D01*
X176057349Y-91844060D01*
X175829544Y-92052444D01*
X175716085Y-92213837D01*
X175698727Y-92290292D01*
X175775171Y-92311222D01*
X175986730Y-92329203D01*
X176306746Y-92342977D01*
X176708560Y-92351288D01*
X177033440Y-92353185D01*
X177477623Y-92356659D01*
X177859192Y-92366276D01*
X178151488Y-92380822D01*
X178327854Y-92399086D01*
X178368087Y-92413853D01*
X178341373Y-92518184D01*
X178272900Y-92720475D01*
X178214457Y-92878981D01*
X178060892Y-93283439D01*
X175983270Y-93305042D01*
X173905648Y-93326644D01*
X173962863Y-93062366D01*
X174161938Y-92498997D01*
X174510314Y-91932250D01*
X174996461Y-91376261D01*
X175608844Y-90845164D01*
X175999898Y-90565708D01*
X176476869Y-90239950D01*
X176832651Y-89977692D01*
X177086213Y-89761627D01*
X177256522Y-89574450D01*
X177362549Y-89398856D01*
X177405908Y-89282976D01*
X177465797Y-88899979D01*
X177396104Y-88604129D01*
X177203216Y-88405391D01*
X176893521Y-88313730D01*
X176781310Y-88308599D01*
X176436137Y-88368238D01*
X176172362Y-88555305D01*
X175974638Y-88882022D01*
X175935436Y-88982217D01*
X175828010Y-89279299D01*
X175236031Y-89279299D01*
X174644052Y-89279299D01*
X174696805Y-89056847D01*
X174905886Y-88453470D01*
X175216364Y-87976037D01*
X175626902Y-87625604D01*
X176136162Y-87403226D01*
X176742807Y-87309961D01*
X176912102Y-87306960D01*
X177323461Y-87327921D01*
G37*
G36*
X183301210Y-87422333D02*
G01*
X183549221Y-87431821D01*
X183688985Y-87445544D01*
X183707007Y-87453145D01*
X183690672Y-87538862D01*
X183644995Y-87759120D01*
X183574967Y-88090359D01*
X183485578Y-88509022D01*
X183381820Y-88991549D01*
X183342994Y-89171346D01*
X183235207Y-89672711D01*
X183140093Y-90120421D01*
X183062668Y-90490424D01*
X183007949Y-90758666D01*
X182980953Y-90901095D01*
X182978981Y-90916609D01*
X183051252Y-90953470D01*
X183233817Y-90975384D01*
X183337690Y-90978025D01*
X183696398Y-90978025D01*
X183532493Y-91463376D01*
X183439098Y-91726943D01*
X183362084Y-91872120D01*
X183267290Y-91934202D01*
X183120556Y-91948485D01*
X183062759Y-91948726D01*
X182756931Y-91948726D01*
X182612638Y-92636306D01*
X182468346Y-93323885D01*
X181883065Y-93323885D01*
X181297785Y-93323885D01*
X181441179Y-92680609D01*
X181502500Y-92377721D01*
X181539111Y-92139578D01*
X181545211Y-92006434D01*
X181540270Y-91993029D01*
X181448125Y-91977771D01*
X181223062Y-91964784D01*
X180893940Y-91955055D01*
X180489619Y-91949573D01*
X180245515Y-91948726D01*
X178995064Y-91948726D01*
X179046762Y-91690235D01*
X179096907Y-91455684D01*
X179153316Y-91252005D01*
X179228777Y-91060037D01*
X179269383Y-90984570D01*
X180373599Y-90984570D01*
X181086190Y-90961075D01*
X181798781Y-90937580D01*
X182056899Y-89805095D01*
X182147888Y-89401610D01*
X182223145Y-89059667D01*
X182276592Y-88807543D01*
X182302150Y-88673513D01*
X182303210Y-88659309D01*
X182251442Y-88713849D01*
X182116397Y-88870431D01*
X181917325Y-89105947D01*
X181673474Y-89397288D01*
X181404092Y-89721346D01*
X181128429Y-90055013D01*
X180865732Y-90375181D01*
X180635250Y-90658742D01*
X180564029Y-90747214D01*
X180373599Y-90984570D01*
X179269383Y-90984570D01*
X179336077Y-90860619D01*
X179488004Y-90634591D01*
X179697346Y-90362790D01*
X179976890Y-90026057D01*
X180339424Y-89605230D01*
X180756969Y-89127640D01*
X182255192Y-87418790D01*
X182981099Y-87418790D01*
X183301210Y-87422333D01*
G37*
D12*
%TO.C,C7*%
X93380000Y-128945000D02*
X93380000Y-128880000D01*
X93380000Y-131120000D02*
X93380000Y-131055000D01*
X96620000Y-128880000D02*
X93380000Y-128880000D01*
X96620000Y-128945000D02*
X96620000Y-128880000D01*
X96620000Y-131120000D02*
X93380000Y-131120000D01*
X96620000Y-131120000D02*
X96620000Y-131055000D01*
%TO.C,J13*%
X184670000Y-64960000D02*
X184670000Y-65080000D01*
X184670000Y-65080000D02*
X187330000Y-65080000D01*
X186000000Y-62420000D02*
X187330000Y-62420000D01*
X187330000Y-62420000D02*
X187330000Y-63750000D01*
X187330000Y-64960000D02*
X187330000Y-65080000D01*
%TO.C,J12*%
X181170000Y-54960000D02*
X181170000Y-55080000D01*
X181170000Y-55080000D02*
X183830000Y-55080000D01*
X182500000Y-52420000D02*
X183830000Y-52420000D01*
X183830000Y-52420000D02*
X183830000Y-53750000D01*
X183830000Y-54960000D02*
X183830000Y-55080000D01*
%TO.C,C1*%
X133880000Y-93380000D02*
X133945000Y-93380000D01*
X133880000Y-96620000D02*
X133880000Y-93380000D01*
X133880000Y-96620000D02*
X133945000Y-96620000D01*
X136055000Y-93380000D02*
X136120000Y-93380000D01*
X136055000Y-96620000D02*
X136120000Y-96620000D01*
X136120000Y-96620000D02*
X136120000Y-93380000D01*
%TO.C,R5*%
X133630000Y-99710000D02*
X133960000Y-99710000D01*
X133630000Y-106250000D02*
X133630000Y-99710000D01*
X133960000Y-106250000D02*
X133630000Y-106250000D01*
X136040000Y-106250000D02*
X136370000Y-106250000D01*
X136370000Y-99710000D02*
X136040000Y-99710000D01*
X136370000Y-106250000D02*
X136370000Y-99710000D01*
%TO.C,5V_SUPP1*%
X97670000Y-99420000D02*
X99000000Y-99420000D01*
X97670000Y-100750000D02*
X97670000Y-99420000D01*
X97670000Y-102020000D02*
X97670000Y-107160000D01*
X97670000Y-102020000D02*
X100270000Y-102020000D01*
X97670000Y-107160000D02*
X102870000Y-107160000D01*
X100270000Y-99420000D02*
X102870000Y-99420000D01*
X100270000Y-102020000D02*
X100270000Y-99420000D01*
X102870000Y-99420000D02*
X102870000Y-107160000D01*
%TO.C,C3*%
X109130000Y-94195000D02*
X109130000Y-94130000D01*
X109130000Y-96370000D02*
X109130000Y-96305000D01*
X112370000Y-94130000D02*
X109130000Y-94130000D01*
X112370000Y-94195000D02*
X112370000Y-94130000D01*
X112370000Y-96370000D02*
X109130000Y-96370000D01*
X112370000Y-96370000D02*
X112370000Y-96305000D01*
%TO.C,J11*%
X150670000Y-64960000D02*
X150670000Y-65080000D01*
X150670000Y-65080000D02*
X153330000Y-65080000D01*
X152000000Y-62420000D02*
X153330000Y-62420000D01*
X153330000Y-62420000D02*
X153330000Y-63750000D01*
X153330000Y-64960000D02*
X153330000Y-65080000D01*
D13*
%TO.C,G\u002A\u002A\u002A*%
G36*
X159953169Y-79586571D02*
G01*
X160031170Y-79616236D01*
X160053681Y-79672592D01*
X160053973Y-79690588D01*
X160039149Y-79786156D01*
X159997967Y-80003214D01*
X159933709Y-80325692D01*
X159849659Y-80737515D01*
X159749096Y-81222612D01*
X159635304Y-81764911D01*
X159511566Y-82348338D01*
X159503786Y-82384822D01*
X158955956Y-84952966D01*
X158415562Y-84973515D01*
X158141307Y-84980553D01*
X157979225Y-84972131D01*
X157901119Y-84942708D01*
X157878792Y-84886742D01*
X157878620Y-84867975D01*
X157893705Y-84772409D01*
X157935152Y-84555354D01*
X157999669Y-84232883D01*
X158083964Y-83821066D01*
X158184746Y-83335977D01*
X158298724Y-82793687D01*
X158422605Y-82210268D01*
X158430402Y-82173741D01*
X158978730Y-79605597D01*
X159517530Y-79585048D01*
X159791386Y-79578030D01*
X159953169Y-79586571D01*
G37*
G36*
X137486714Y-79572086D02*
G01*
X137969779Y-79576811D01*
X138387241Y-79584169D01*
X138722028Y-79593738D01*
X138957066Y-79605094D01*
X139075283Y-79617815D01*
X139086036Y-79623187D01*
X139069523Y-79715988D01*
X139030076Y-79899813D01*
X138992891Y-80062938D01*
X138902726Y-80449919D01*
X138117134Y-80469806D01*
X137331543Y-80489693D01*
X137283313Y-80680886D01*
X137256822Y-80796963D01*
X137205509Y-81031641D01*
X137133474Y-81365803D01*
X137044816Y-81780334D01*
X136943633Y-82256117D01*
X136834025Y-82774037D01*
X136804803Y-82912522D01*
X136374523Y-84952966D01*
X135832047Y-84973515D01*
X135523915Y-84976532D01*
X135346007Y-84956434D01*
X135289572Y-84912943D01*
X135303490Y-84830491D01*
X135342373Y-84631058D01*
X135401910Y-84335302D01*
X135477791Y-83963883D01*
X135565705Y-83537460D01*
X135661343Y-83076694D01*
X135760394Y-82602243D01*
X135858549Y-82134768D01*
X135951496Y-81694927D01*
X136034926Y-81303381D01*
X136104528Y-80980788D01*
X136155993Y-80747809D01*
X136180319Y-80643409D01*
X136192718Y-80574576D01*
X136173766Y-80529300D01*
X136100324Y-80502647D01*
X135949256Y-80489684D01*
X135697425Y-80485477D01*
X135437919Y-80485099D01*
X135084684Y-80484881D01*
X134851939Y-80473519D01*
X134719538Y-80434950D01*
X134667339Y-80353109D01*
X134675196Y-80211934D01*
X134722965Y-79995359D01*
X134738775Y-79927585D01*
X134821219Y-79570417D01*
X136955118Y-79570417D01*
X137486714Y-79572086D01*
G37*
G36*
X158087305Y-79939808D02*
G01*
X158004451Y-80084865D01*
X157861677Y-80336271D01*
X157668168Y-80677791D01*
X157433111Y-81093191D01*
X157165691Y-81566238D01*
X156875095Y-82080696D01*
X156570507Y-82620331D01*
X156555549Y-82646844D01*
X155236663Y-84984489D01*
X154600765Y-84986317D01*
X153964867Y-84988146D01*
X153622458Y-82403679D01*
X153543703Y-81812431D01*
X153469588Y-81262081D01*
X153402375Y-80768974D01*
X153344326Y-80349456D01*
X153297703Y-80019872D01*
X153264770Y-79796568D01*
X153247788Y-79695889D01*
X153247518Y-79694815D01*
X153245193Y-79633175D01*
X153295177Y-79595955D01*
X153423406Y-79577166D01*
X153655815Y-79570816D01*
X153786074Y-79570417D01*
X154049553Y-79577901D01*
X154248722Y-79597808D01*
X154350535Y-79626323D01*
X154357162Y-79636340D01*
X154364513Y-79722646D01*
X154385107Y-79927941D01*
X154416752Y-80231341D01*
X154457258Y-80611963D01*
X154504435Y-81048925D01*
X154528769Y-81272212D01*
X154582323Y-81767972D01*
X154633676Y-82254045D01*
X154679702Y-82700027D01*
X154717276Y-83075517D01*
X154743270Y-83350113D01*
X154748070Y-83405043D01*
X154795764Y-83967924D01*
X154967097Y-83580943D01*
X155045508Y-83419040D01*
X155181858Y-83153994D01*
X155365609Y-82805600D01*
X155586222Y-82393651D01*
X155833159Y-81937940D01*
X156095881Y-81458260D01*
X156137408Y-81382912D01*
X157136386Y-79571860D01*
X157718280Y-79571139D01*
X158300174Y-79570417D01*
X158087305Y-79939808D01*
G37*
G36*
X166598728Y-79572313D02*
G01*
X166763743Y-79583347D01*
X166841488Y-79611536D01*
X166858685Y-79664899D01*
X166847356Y-79728727D01*
X166798846Y-79945517D01*
X166731598Y-80255755D01*
X166649879Y-80638855D01*
X166557956Y-81074236D01*
X166460097Y-81541312D01*
X166360568Y-82019501D01*
X166263639Y-82488218D01*
X166173575Y-82926880D01*
X166094645Y-83314903D01*
X166031115Y-83631704D01*
X165987254Y-83856698D01*
X165967328Y-83969302D01*
X165966580Y-83977098D01*
X165991027Y-84012431D01*
X166075599Y-84038342D01*
X166237138Y-84056111D01*
X166492488Y-84067021D01*
X166858492Y-84072353D01*
X167233062Y-84073464D01*
X167707742Y-84075790D01*
X168056311Y-84083444D01*
X168293311Y-84097440D01*
X168433287Y-84118793D01*
X168490781Y-84148517D01*
X168494091Y-84161414D01*
X168468851Y-84274412D01*
X168410247Y-84467300D01*
X168364921Y-84601165D01*
X168241205Y-84952966D01*
X166427541Y-84971760D01*
X164613878Y-84990554D01*
X164652579Y-84831039D01*
X164679102Y-84713121D01*
X164729190Y-84482480D01*
X164798948Y-84157556D01*
X164884481Y-83756792D01*
X164981896Y-83298628D01*
X165087299Y-82801507D01*
X165196795Y-82283869D01*
X165306489Y-81764156D01*
X165412489Y-81260809D01*
X165510900Y-80792270D01*
X165597827Y-80376981D01*
X165669376Y-80033382D01*
X165721653Y-79779915D01*
X165750764Y-79635022D01*
X165755499Y-79608032D01*
X165820309Y-79590582D01*
X165992563Y-79577433D01*
X166239004Y-79570804D01*
X166319721Y-79570417D01*
X166598728Y-79572313D01*
G37*
G36*
X162247024Y-79573491D02*
G01*
X162410800Y-79586771D01*
X162485587Y-79616344D01*
X162497218Y-79668299D01*
X162490953Y-79693547D01*
X162460691Y-79814309D01*
X162408054Y-80046775D01*
X162337421Y-80369900D01*
X162253171Y-80762640D01*
X162159682Y-81203951D01*
X162061333Y-81672789D01*
X161962502Y-82148109D01*
X161867568Y-82608866D01*
X161780910Y-83034017D01*
X161706906Y-83402517D01*
X161649934Y-83693323D01*
X161614374Y-83885388D01*
X161604253Y-83955194D01*
X161616203Y-83997500D01*
X161664538Y-84028415D01*
X161767988Y-84049688D01*
X161945281Y-84063067D01*
X162215145Y-84070302D01*
X162596309Y-84073142D01*
X162870735Y-84073464D01*
X163275309Y-84075861D01*
X163626411Y-84082521D01*
X163901839Y-84092644D01*
X164079391Y-84105432D01*
X164137217Y-84119010D01*
X164114808Y-84204334D01*
X164056486Y-84380774D01*
X163987069Y-84576351D01*
X163836921Y-84988146D01*
X162052166Y-84988146D01*
X161567689Y-84986468D01*
X161133185Y-84981744D01*
X160767358Y-84974442D01*
X160488910Y-84965029D01*
X160316545Y-84953971D01*
X160267411Y-84943603D01*
X160281439Y-84868235D01*
X160320920Y-84673733D01*
X160381947Y-84378587D01*
X160460613Y-84001287D01*
X160553011Y-83560323D01*
X160655234Y-83074183D01*
X160763376Y-82561358D01*
X160873530Y-82040338D01*
X160981789Y-81529612D01*
X161084246Y-81047670D01*
X161176995Y-80613002D01*
X161256128Y-80244097D01*
X161317740Y-79959446D01*
X161357922Y-79777537D01*
X161369288Y-79728727D01*
X161399144Y-79649663D01*
X161460923Y-79602453D01*
X161585410Y-79578966D01*
X161803386Y-79571066D01*
X161968423Y-79570417D01*
X162247024Y-79573491D01*
G37*
G36*
X173279911Y-80819309D02*
G01*
X173343201Y-81314283D01*
X173418035Y-81895969D01*
X173497590Y-82511564D01*
X173575047Y-83108265D01*
X173627524Y-83510583D01*
X173816166Y-84952966D01*
X173295226Y-84973670D01*
X173038035Y-84978701D01*
X172839844Y-84972875D01*
X172738778Y-84957483D01*
X172734607Y-84954695D01*
X172707884Y-84870999D01*
X172671557Y-84683061D01*
X172632204Y-84426427D01*
X172620088Y-84335929D01*
X172545250Y-83756844D01*
X171583927Y-83737308D01*
X170622603Y-83717772D01*
X170283200Y-84352959D01*
X169943796Y-84988146D01*
X169356375Y-84988146D01*
X168768953Y-84988146D01*
X168935576Y-84689115D01*
X169005959Y-84560677D01*
X169134531Y-84323883D01*
X169312867Y-83994331D01*
X169532542Y-83587620D01*
X169785132Y-83119350D01*
X170000834Y-82719032D01*
X171115902Y-82719032D01*
X171142410Y-82762495D01*
X171261213Y-82790013D01*
X171489630Y-82803972D01*
X171754403Y-82806982D01*
X172045030Y-82803555D01*
X172278543Y-82794357D01*
X172422072Y-82781011D01*
X172450638Y-82772601D01*
X172456969Y-82693255D01*
X172448664Y-82502865D01*
X172427539Y-82230143D01*
X172396149Y-81910690D01*
X172358305Y-81548458D01*
X172324249Y-81204704D01*
X172298140Y-80922422D01*
X172285544Y-80766539D01*
X172263810Y-80449919D01*
X171701532Y-81540500D01*
X171516525Y-81901687D01*
X171354393Y-82222677D01*
X171226166Y-82481270D01*
X171142875Y-82655265D01*
X171115902Y-82719032D01*
X170000834Y-82719032D01*
X170062213Y-82605119D01*
X170355360Y-82060526D01*
X170398547Y-81980251D01*
X171694895Y-79570417D01*
X172407917Y-79570417D01*
X173120939Y-79570417D01*
X173279911Y-80819309D01*
G37*
G36*
X184189271Y-79584258D02*
G01*
X184416616Y-79592836D01*
X184564005Y-79607313D01*
X184646617Y-79628399D01*
X184679637Y-79656805D01*
X184682369Y-79671306D01*
X184668240Y-79796913D01*
X184632226Y-80002130D01*
X184606179Y-80129835D01*
X184529988Y-80485099D01*
X183246319Y-80485099D01*
X181962649Y-80485099D01*
X181879909Y-80924849D01*
X181829140Y-81183741D01*
X181781921Y-81406334D01*
X181754434Y-81521255D01*
X181711698Y-81677910D01*
X182933998Y-81697155D01*
X184156299Y-81716401D01*
X184061434Y-82156151D01*
X183966569Y-82595902D01*
X182748429Y-82595902D01*
X181530290Y-82595902D01*
X181418130Y-83106013D01*
X181355644Y-83393843D01*
X181299449Y-83658968D01*
X181261667Y-83844198D01*
X181261551Y-83844794D01*
X181217134Y-84073464D01*
X182605479Y-84073464D01*
X183099449Y-84075371D01*
X183466963Y-84081706D01*
X183722241Y-84093392D01*
X183879504Y-84111352D01*
X183952970Y-84136507D01*
X183961364Y-84161414D01*
X183922241Y-84274380D01*
X183856664Y-84469931D01*
X183807462Y-84618755D01*
X183686019Y-84988146D01*
X181827130Y-84988146D01*
X181266611Y-84987579D01*
X180831187Y-84985187D01*
X180505236Y-84979934D01*
X180273134Y-84970785D01*
X180119260Y-84956702D01*
X180027991Y-84936649D01*
X179983704Y-84909592D01*
X179970777Y-84874493D01*
X179970600Y-84865015D01*
X179985424Y-84770139D01*
X180026609Y-84553748D01*
X180090871Y-84231891D01*
X180174929Y-83820617D01*
X180275501Y-83335973D01*
X180389305Y-82794009D01*
X180513059Y-82210772D01*
X180520958Y-82173741D01*
X181068959Y-79605597D01*
X182875664Y-79586819D01*
X183433977Y-79581960D01*
X183866785Y-79580869D01*
X184189271Y-79584258D01*
G37*
G36*
X127160226Y-79796666D02*
G01*
X127176414Y-79907274D01*
X127207432Y-80133888D01*
X127250789Y-80457381D01*
X127303997Y-80858628D01*
X127364566Y-81318501D01*
X127430008Y-81817874D01*
X127497832Y-82337620D01*
X127565550Y-82858613D01*
X127630673Y-83361726D01*
X127690711Y-83827831D01*
X127743175Y-84237804D01*
X127785576Y-84572516D01*
X127815424Y-84812842D01*
X127830231Y-84939654D01*
X127831400Y-84953823D01*
X127766646Y-84969892D01*
X127594785Y-84981933D01*
X127349415Y-84987863D01*
X127278511Y-84988146D01*
X126725623Y-84988146D01*
X126639086Y-84354905D01*
X126552550Y-83721664D01*
X125591282Y-83722941D01*
X124630015Y-83724218D01*
X124293774Y-84356182D01*
X123957533Y-84988146D01*
X123389155Y-84988146D01*
X123095038Y-84982398D01*
X122923162Y-84963165D01*
X122855437Y-84927465D01*
X122855841Y-84900196D01*
X122895819Y-84821198D01*
X122995575Y-84631771D01*
X123147962Y-84345274D01*
X123345835Y-83975066D01*
X123582046Y-83534505D01*
X123849449Y-83036951D01*
X123982767Y-82789392D01*
X125089289Y-82789392D01*
X125153834Y-82796774D01*
X125329418Y-82802631D01*
X125586363Y-82806219D01*
X125790957Y-82806982D01*
X126113222Y-82804448D01*
X126319672Y-82793940D01*
X126435166Y-82771099D01*
X126484563Y-82731566D01*
X126493185Y-82683852D01*
X126485030Y-82570008D01*
X126463727Y-82347099D01*
X126432378Y-82045839D01*
X126394086Y-81696942D01*
X126388348Y-81646040D01*
X126349088Y-81290876D01*
X126316090Y-80977050D01*
X126292541Y-80736004D01*
X126281632Y-80599180D01*
X126281307Y-80590639D01*
X126250317Y-80620314D01*
X126167036Y-80752269D01*
X126043786Y-80963778D01*
X125892889Y-81232111D01*
X125726668Y-81534539D01*
X125557443Y-81848334D01*
X125397538Y-82150768D01*
X125259273Y-82419112D01*
X125154971Y-82630638D01*
X125096954Y-82762617D01*
X125089289Y-82789392D01*
X123982767Y-82789392D01*
X124140897Y-82495760D01*
X124295593Y-82208921D01*
X125700281Y-79605597D01*
X126410397Y-79585586D01*
X127120514Y-79565575D01*
X127160226Y-79796666D01*
G37*
G36*
X140706203Y-79572310D02*
G01*
X140871199Y-79583334D01*
X140948895Y-79611506D01*
X140966001Y-79664846D01*
X140954544Y-79728727D01*
X140816042Y-80336681D01*
X140684740Y-80938366D01*
X140564028Y-81516072D01*
X140457297Y-82052085D01*
X140367937Y-82528691D01*
X140299337Y-82928179D01*
X140254889Y-83232835D01*
X140237982Y-83424947D01*
X140239481Y-83464729D01*
X140341801Y-83767853D01*
X140550577Y-83997766D01*
X140845435Y-84142214D01*
X141205998Y-84188943D01*
X141413049Y-84170500D01*
X141762189Y-84047776D01*
X142037657Y-83809464D01*
X142216750Y-83490992D01*
X142261995Y-83341182D01*
X142330192Y-83075950D01*
X142416067Y-82717731D01*
X142514345Y-82288965D01*
X142619751Y-81812087D01*
X142704783Y-81415186D01*
X142807463Y-80934025D01*
X142902226Y-80499457D01*
X142984843Y-80130127D01*
X143051081Y-79844680D01*
X143096711Y-79661763D01*
X143116569Y-79600299D01*
X143199463Y-79585461D01*
X143385188Y-79579483D01*
X143636073Y-79583399D01*
X143676718Y-79584893D01*
X144200756Y-79605597D01*
X143791535Y-81530221D01*
X143633047Y-82257081D01*
X143490720Y-82859299D01*
X143357839Y-83351081D01*
X143227690Y-83746634D01*
X143093556Y-84060165D01*
X142948725Y-84305880D01*
X142786482Y-84497985D01*
X142600112Y-84650688D01*
X142382900Y-84778195D01*
X142220042Y-84855156D01*
X141912395Y-84950136D01*
X141519501Y-85013610D01*
X141091762Y-85042872D01*
X140679580Y-85035211D01*
X140333355Y-84987921D01*
X140237588Y-84961671D01*
X139806709Y-84774724D01*
X139489778Y-84528449D01*
X139300333Y-84270431D01*
X139214379Y-84087081D01*
X139157987Y-83882643D01*
X139132252Y-83640679D01*
X139138271Y-83344751D01*
X139177139Y-82978424D01*
X139249952Y-82525258D01*
X139357804Y-81968817D01*
X139497492Y-81312308D01*
X139598968Y-80847072D01*
X139689619Y-80428770D01*
X139765333Y-80076597D01*
X139821998Y-79809746D01*
X139855504Y-79647414D01*
X139862979Y-79606076D01*
X139927789Y-79589533D01*
X140100045Y-79577068D01*
X140346488Y-79570784D01*
X140427200Y-79570417D01*
X140706203Y-79572310D01*
G37*
G36*
X119824865Y-79572015D02*
G01*
X119988526Y-79582598D01*
X120064656Y-79610848D01*
X120079850Y-79665445D01*
X120064637Y-79739376D01*
X119974694Y-80114617D01*
X119877552Y-80548811D01*
X119777414Y-81019974D01*
X119678483Y-81506124D01*
X119584964Y-81985277D01*
X119501059Y-82435451D01*
X119430972Y-82834662D01*
X119378907Y-83160927D01*
X119349067Y-83392263D01*
X119344967Y-83503083D01*
X119455953Y-83792545D01*
X119672877Y-84011745D01*
X119973206Y-84147842D01*
X120334406Y-84187993D01*
X120516096Y-84170500D01*
X120865685Y-84047627D01*
X121142318Y-83808119D01*
X121318047Y-83502668D01*
X121365271Y-83352101D01*
X121434800Y-83087034D01*
X121521054Y-82730894D01*
X121618458Y-82307112D01*
X121721432Y-81839117D01*
X121782927Y-81549913D01*
X121882364Y-81076654D01*
X121973856Y-80642487D01*
X122052909Y-80268633D01*
X122115029Y-79976309D01*
X122155725Y-79786737D01*
X122168546Y-79728727D01*
X122196850Y-79650043D01*
X122257013Y-79602884D01*
X122379497Y-79579253D01*
X122594766Y-79571151D01*
X122771554Y-79570417D01*
X123052092Y-79573443D01*
X123217715Y-79586515D01*
X123294169Y-79615622D01*
X123307202Y-79666755D01*
X123300778Y-79693547D01*
X123276615Y-79793506D01*
X123227685Y-80011492D01*
X123158274Y-80327844D01*
X123072670Y-80722900D01*
X122975158Y-81177001D01*
X122879962Y-81623681D01*
X122722932Y-82341335D01*
X122580507Y-82934442D01*
X122445698Y-83417511D01*
X122311515Y-83805050D01*
X122170969Y-84111566D01*
X122017070Y-84351566D01*
X121842828Y-84539559D01*
X121641254Y-84690052D01*
X121405358Y-84817553D01*
X121323090Y-84855156D01*
X120953439Y-84969137D01*
X120504429Y-85033517D01*
X120029051Y-85046509D01*
X119580294Y-85006324D01*
X119248436Y-84925178D01*
X118829492Y-84709719D01*
X118513285Y-84402898D01*
X118307787Y-84013425D01*
X118260454Y-83845879D01*
X118236778Y-83725338D01*
X118222757Y-83601940D01*
X118220658Y-83461061D01*
X118232748Y-83288077D01*
X118261296Y-83068363D01*
X118308568Y-82787295D01*
X118376831Y-82430248D01*
X118468354Y-81982599D01*
X118585404Y-81429723D01*
X118730247Y-80756996D01*
X118762438Y-80608229D01*
X118987113Y-79570417D01*
X119547078Y-79570417D01*
X119824865Y-79572015D01*
G37*
G36*
X133827101Y-79574332D02*
G01*
X134009986Y-79584670D01*
X134091998Y-79599321D01*
X134093450Y-79601670D01*
X134079303Y-79675134D01*
X134038979Y-79871132D01*
X133975650Y-80174575D01*
X133892488Y-80570371D01*
X133792665Y-81043430D01*
X133679354Y-81578661D01*
X133555726Y-82160974D01*
X133530569Y-82279281D01*
X133405292Y-82869050D01*
X133289710Y-83414694D01*
X133186994Y-83901123D01*
X133100318Y-84313245D01*
X133032853Y-84635970D01*
X132987772Y-84854207D01*
X132968247Y-84952866D01*
X132967688Y-84956893D01*
X132902356Y-84970158D01*
X132726461Y-84980629D01*
X132470152Y-84986932D01*
X132280953Y-84988146D01*
X131594218Y-84988146D01*
X131158053Y-83422633D01*
X131024723Y-82941038D01*
X130896868Y-82473629D01*
X130781933Y-82048047D01*
X130687359Y-81691932D01*
X130620593Y-81432924D01*
X130603795Y-81364600D01*
X130522987Y-81052669D01*
X130459984Y-80875038D01*
X130410126Y-80827092D01*
X130368754Y-80904214D01*
X130332132Y-81095460D01*
X130305080Y-81250716D01*
X130254617Y-81513777D01*
X130185658Y-81861005D01*
X130103115Y-82268759D01*
X130011902Y-82713400D01*
X129916933Y-83171289D01*
X129823120Y-83618785D01*
X129735377Y-84032250D01*
X129658617Y-84388044D01*
X129597754Y-84662526D01*
X129557701Y-84832058D01*
X129548660Y-84865015D01*
X129505712Y-84930315D01*
X129406924Y-84968032D01*
X129221859Y-84984974D01*
X128998070Y-84988146D01*
X128485581Y-84988146D01*
X128689977Y-84020694D01*
X128765341Y-83664289D01*
X128862489Y-83205333D01*
X128973983Y-82678931D01*
X129092389Y-82120186D01*
X129210270Y-81564202D01*
X129260070Y-81329420D01*
X129625767Y-79605597D01*
X130357099Y-79605597D01*
X131088432Y-79605597D01*
X131463874Y-80872079D01*
X131600402Y-81337809D01*
X131738750Y-81818830D01*
X131867441Y-82274604D01*
X131974993Y-82664593D01*
X132031586Y-82876856D01*
X132116136Y-83195957D01*
X132174370Y-83393702D01*
X132213844Y-83485320D01*
X132242114Y-83486036D01*
X132266736Y-83411080D01*
X132275977Y-83369377D01*
X132304271Y-83234267D01*
X132356542Y-82983020D01*
X132428297Y-82637309D01*
X132515038Y-82218806D01*
X132612272Y-81749185D01*
X132695468Y-81347010D01*
X133062839Y-79570417D01*
X133578144Y-79570417D01*
X133827101Y-79574332D01*
G37*
G36*
X115716796Y-79547494D02*
G01*
X116059403Y-79593306D01*
X116334209Y-79686235D01*
X116576957Y-79839843D01*
X116823392Y-80067690D01*
X116906445Y-80155866D01*
X117153607Y-80493776D01*
X117315729Y-80889800D01*
X117400550Y-81368568D01*
X117418103Y-81784749D01*
X117372136Y-82402758D01*
X117240986Y-82992396D01*
X117034784Y-83523594D01*
X116763660Y-83966281D01*
X116631354Y-84120155D01*
X116509956Y-84268591D01*
X116454976Y-84381766D01*
X116457860Y-84408466D01*
X116529279Y-84478465D01*
X116685089Y-84608945D01*
X116896791Y-84776375D01*
X116990206Y-84848018D01*
X117481936Y-85221851D01*
X117350909Y-85404029D01*
X117206938Y-85580082D01*
X117033562Y-85762480D01*
X117019962Y-85775485D01*
X116820042Y-85964764D01*
X116119421Y-85439353D01*
X115780843Y-85195788D01*
X115525011Y-85034102D01*
X115360254Y-84959256D01*
X115310280Y-84957355D01*
X115190029Y-84983287D01*
X114973441Y-85011445D01*
X114704678Y-85036214D01*
X114670558Y-85038724D01*
X114071362Y-85028458D01*
X113555682Y-84906685D01*
X113125167Y-84674233D01*
X112781466Y-84331926D01*
X112574991Y-83989792D01*
X112397275Y-83522336D01*
X112317632Y-83047386D01*
X112329590Y-82600542D01*
X113496246Y-82600542D01*
X113501800Y-83109096D01*
X113588734Y-83509585D01*
X113760131Y-83810869D01*
X113983261Y-84000964D01*
X114237326Y-84097619D01*
X114560344Y-84142807D01*
X114888682Y-84132203D01*
X115119003Y-84078177D01*
X115471767Y-83871425D01*
X115773414Y-83548835D01*
X116014579Y-83128951D01*
X116185898Y-82630318D01*
X116278006Y-82071482D01*
X116291506Y-81756205D01*
X116258187Y-81289809D01*
X116151825Y-80932462D01*
X115965331Y-80668905D01*
X115703017Y-80489328D01*
X115310003Y-80364001D01*
X114929879Y-80376668D01*
X114558620Y-80528230D01*
X114192201Y-80819586D01*
X114182422Y-80829315D01*
X113878498Y-81208499D01*
X113666557Y-81654607D01*
X113538643Y-82188173D01*
X113496246Y-82600542D01*
X112329590Y-82600542D01*
X112331624Y-82524516D01*
X112378248Y-82198299D01*
X112555823Y-81517997D01*
X112831579Y-80916281D01*
X113197434Y-80405083D01*
X113645303Y-79996332D01*
X114026335Y-79766059D01*
X114242963Y-79663664D01*
X114421308Y-79597059D01*
X114602638Y-79558590D01*
X114828223Y-79540599D01*
X115139332Y-79535433D01*
X115270640Y-79535237D01*
X115716796Y-79547494D01*
G37*
G36*
X177887167Y-79537548D02*
G01*
X178130942Y-79549267D01*
X178310274Y-79577572D01*
X178463292Y-79629640D01*
X178628124Y-79712649D01*
X178701760Y-79753781D01*
X179066733Y-80028746D01*
X179340582Y-80378166D01*
X179501914Y-80772283D01*
X179525910Y-80900172D01*
X179564610Y-81188700D01*
X179033439Y-81188700D01*
X178502269Y-81188700D01*
X178373344Y-80929390D01*
X178179504Y-80639956D01*
X177930315Y-80464853D01*
X177599573Y-80388537D01*
X177450970Y-80382224D01*
X177010686Y-80433062D01*
X176644985Y-80597755D01*
X176333153Y-80886615D01*
X176266829Y-80971762D01*
X175998524Y-81446018D01*
X175823154Y-82005202D01*
X175748711Y-82622053D01*
X175746635Y-82746293D01*
X175767885Y-83174210D01*
X175838902Y-83498363D01*
X175970584Y-83750235D01*
X176164627Y-83953619D01*
X176323243Y-84066422D01*
X176490144Y-84123937D01*
X176722710Y-84143053D01*
X176810929Y-84143824D01*
X177204900Y-84107829D01*
X177507536Y-83990362D01*
X177751112Y-83777204D01*
X177808904Y-83704148D01*
X177935199Y-83499770D01*
X178047821Y-83261050D01*
X178122373Y-83044495D01*
X178138879Y-82939843D01*
X178073827Y-82912203D01*
X177899883Y-82886845D01*
X177648864Y-82867765D01*
X177522307Y-82862393D01*
X176905734Y-82842162D01*
X177000706Y-82402412D01*
X177095677Y-81962661D01*
X178251859Y-81962661D01*
X179408042Y-81962661D01*
X179372939Y-82120971D01*
X179349311Y-82237541D01*
X179304367Y-82468106D01*
X179242779Y-82788363D01*
X179169219Y-83174007D01*
X179088360Y-83600735D01*
X179082133Y-83633714D01*
X178826429Y-84988146D01*
X178369283Y-84988146D01*
X177912138Y-84988146D01*
X177958336Y-84741885D01*
X177981440Y-84566712D01*
X177952257Y-84508692D01*
X177855471Y-84563203D01*
X177731238Y-84673347D01*
X177441356Y-84860879D01*
X177061632Y-84986822D01*
X176631431Y-85045333D01*
X176190118Y-85030572D01*
X175832600Y-84955096D01*
X175417118Y-84763837D01*
X175089078Y-84471096D01*
X174833870Y-84063682D01*
X174825487Y-84045922D01*
X174641253Y-83496847D01*
X174571634Y-82909654D01*
X174608771Y-82306863D01*
X174744807Y-81710991D01*
X174971881Y-81144559D01*
X175282136Y-80630085D01*
X175667713Y-80190088D01*
X176120753Y-79847087D01*
X176329050Y-79737464D01*
X176539064Y-79646322D01*
X176722275Y-79587454D01*
X176920179Y-79553934D01*
X177174273Y-79538838D01*
X177526054Y-79535240D01*
X177540818Y-79535237D01*
X177887167Y-79537548D01*
G37*
G36*
X147135707Y-79763907D02*
G01*
X147151388Y-79901550D01*
X147169615Y-80149232D01*
X147188504Y-80476343D01*
X147206169Y-80852270D01*
X147212598Y-81012799D01*
X147230667Y-81458109D01*
X147251505Y-81923400D01*
X147272721Y-82357877D01*
X147291926Y-82710748D01*
X147294689Y-82756839D01*
X147336706Y-83445477D01*
X147846026Y-82369859D01*
X148059254Y-81923153D01*
X148294213Y-81436845D01*
X148526467Y-80961160D01*
X148731583Y-80546322D01*
X148788652Y-80432329D01*
X149221958Y-79570417D01*
X150057922Y-79570417D01*
X150893886Y-79570417D01*
X150659388Y-80678589D01*
X150571260Y-81095314D01*
X150462887Y-81608171D01*
X150343045Y-82175598D01*
X150220514Y-82756032D01*
X150104070Y-83307911D01*
X150087293Y-83387453D01*
X149749695Y-84988146D01*
X149202503Y-84988146D01*
X148928716Y-84986137D01*
X148768633Y-84974517D01*
X148695243Y-84944895D01*
X148681535Y-84888880D01*
X148692900Y-84829835D01*
X148717087Y-84721469D01*
X148766551Y-84494813D01*
X148837113Y-84169184D01*
X148924600Y-83763897D01*
X149024834Y-83298266D01*
X149133641Y-82791607D01*
X149145434Y-82736622D01*
X149255709Y-82223379D01*
X149358654Y-81746080D01*
X149449927Y-81324713D01*
X149525187Y-80979266D01*
X149580091Y-80729729D01*
X149610298Y-80596089D01*
X149611606Y-80590639D01*
X149635828Y-80480727D01*
X149638127Y-80432254D01*
X149612742Y-80455901D01*
X149553910Y-80562350D01*
X149455871Y-80762283D01*
X149312864Y-81066383D01*
X149119126Y-81485331D01*
X149061356Y-81610860D01*
X148836072Y-82097324D01*
X148579210Y-82646569D01*
X148317250Y-83202288D01*
X148076671Y-83708174D01*
X147994276Y-83879974D01*
X147461147Y-84988146D01*
X146968988Y-84988146D01*
X146711362Y-84985021D01*
X146563923Y-84969104D01*
X146496170Y-84930579D01*
X146477600Y-84859628D01*
X146477060Y-84829835D01*
X146473539Y-84696933D01*
X146463575Y-84447591D01*
X146448367Y-84105880D01*
X146429110Y-83695874D01*
X146407001Y-83241644D01*
X146383235Y-82767263D01*
X146359009Y-82296804D01*
X146335519Y-81854338D01*
X146313962Y-81463938D01*
X146295533Y-81149676D01*
X146289130Y-81047979D01*
X146245777Y-80379558D01*
X146118166Y-81113225D01*
X146064424Y-81406783D01*
X145987742Y-81804589D01*
X145894751Y-82273315D01*
X145792085Y-82779633D01*
X145686375Y-83290213D01*
X145659638Y-83417519D01*
X145328722Y-84988146D01*
X144804666Y-84988146D01*
X144523410Y-84981569D01*
X144364460Y-84959706D01*
X144309923Y-84919364D01*
X144312223Y-84900196D01*
X144333391Y-84813612D01*
X144380044Y-84604918D01*
X144448815Y-84289735D01*
X144536341Y-83883683D01*
X144639257Y-83402383D01*
X144754197Y-82861457D01*
X144877796Y-82276525D01*
X144895743Y-82191331D01*
X145447650Y-79570417D01*
X146273269Y-79570417D01*
X147098889Y-79570417D01*
X147135707Y-79763907D01*
G37*
D12*
%TO.C,C4*%
X108880000Y-104130000D02*
X108880000Y-104195000D01*
X108880000Y-104130000D02*
X112120000Y-104130000D01*
X108880000Y-106305000D02*
X108880000Y-106370000D01*
X108880000Y-106370000D02*
X112120000Y-106370000D01*
X112120000Y-104130000D02*
X112120000Y-104195000D01*
X112120000Y-106305000D02*
X112120000Y-106370000D01*
%TO.C,C6*%
X93380000Y-116195000D02*
X93380000Y-116130000D01*
X93380000Y-118370000D02*
X93380000Y-118305000D01*
X96620000Y-116130000D02*
X93380000Y-116130000D01*
X96620000Y-116195000D02*
X96620000Y-116130000D01*
X96620000Y-118370000D02*
X93380000Y-118370000D01*
X96620000Y-118370000D02*
X96620000Y-118305000D01*
%TO.C,U2*%
X121370000Y-97060000D02*
X121370000Y-107460000D01*
X121370000Y-107460000D02*
X131650000Y-107460000D01*
X123860000Y-97120000D02*
X123860000Y-107400000D01*
X123860000Y-107400000D02*
X129160000Y-107400000D01*
X125510000Y-97120000D02*
X123860000Y-97120000D01*
X129160000Y-97120000D02*
X127510000Y-97120000D01*
X129160000Y-107400000D02*
X129160000Y-97120000D01*
X131650000Y-97060000D02*
X121370000Y-97060000D01*
X131650000Y-107460000D02*
X131650000Y-97060000D01*
X127510000Y-97120000D02*
G75*
G02*
X125510000Y-97120000I-1000000J0D01*
G01*
D13*
%TO.C,G\u002A\u002A\u002A*%
G36*
X101925008Y-79595556D02*
G01*
X102063311Y-79680565D01*
X102149785Y-79792043D01*
X102216062Y-79968272D01*
X102210030Y-80143667D01*
X102136770Y-80300591D01*
X102001361Y-80421403D01*
X101962622Y-80441914D01*
X101791215Y-80496422D01*
X101635918Y-80480995D01*
X101517359Y-80424469D01*
X101383738Y-80314654D01*
X101317350Y-80178968D01*
X101303797Y-80045198D01*
X101335183Y-79845043D01*
X101425505Y-79695192D01*
X101569009Y-79601862D01*
X101742315Y-79571273D01*
X101925008Y-79595556D01*
G37*
G36*
X99814644Y-89714003D02*
G01*
X99965118Y-89806572D01*
X100080234Y-89939978D01*
X100150844Y-90101245D01*
X100167798Y-90277399D01*
X100121949Y-90455462D01*
X100053306Y-90567137D01*
X99896012Y-90707898D01*
X99708849Y-90779605D01*
X99507918Y-90778866D01*
X99336972Y-90718018D01*
X99185615Y-90597244D01*
X99093615Y-90440696D01*
X99059231Y-90264833D01*
X99080724Y-90086112D01*
X99156355Y-89920994D01*
X99284384Y-89785936D01*
X99444217Y-89703277D01*
X99637960Y-89675246D01*
X99814644Y-89714003D01*
G37*
G36*
X93782838Y-83823187D02*
G01*
X93868227Y-83858473D01*
X94013100Y-83968817D01*
X94091499Y-84119751D01*
X94109810Y-84273563D01*
X94098535Y-84399254D01*
X94053100Y-84495794D01*
X93973164Y-84586139D01*
X93872049Y-84673875D01*
X93776114Y-84713614D01*
X93647626Y-84722785D01*
X93516666Y-84713106D01*
X93421080Y-84672453D01*
X93322089Y-84586139D01*
X93228828Y-84474117D01*
X93189748Y-84367120D01*
X93185443Y-84302814D01*
X93218526Y-84108650D01*
X93308589Y-83954636D01*
X93441850Y-83849742D01*
X93604526Y-83802936D01*
X93782838Y-83823187D01*
G37*
G36*
X101695992Y-91645121D02*
G01*
X101791578Y-91685775D01*
X101890570Y-91772089D01*
X101979436Y-91875472D01*
X102019130Y-91973663D01*
X102027215Y-92084665D01*
X101997720Y-92273923D01*
X101905809Y-92415616D01*
X101785632Y-92499755D01*
X101599396Y-92553984D01*
X101411449Y-92530618D01*
X101334445Y-92496897D01*
X101208611Y-92385664D01*
X101127671Y-92223490D01*
X101102848Y-92055413D01*
X101120326Y-91937827D01*
X101183598Y-91832606D01*
X101239494Y-91772089D01*
X101340609Y-91684352D01*
X101436544Y-91644614D01*
X101565032Y-91635443D01*
X101695992Y-91645121D01*
G37*
G36*
X102940974Y-87571325D02*
G01*
X103021040Y-87602934D01*
X103192464Y-87726519D01*
X103303353Y-87890709D01*
X103348441Y-88079751D01*
X103322463Y-88277897D01*
X103280043Y-88377585D01*
X103160524Y-88521232D01*
X102993794Y-88617731D01*
X102802770Y-88659218D01*
X102610366Y-88637829D01*
X102566500Y-88622454D01*
X102454468Y-88545109D01*
X102347581Y-88419846D01*
X102268969Y-88277090D01*
X102245877Y-88200645D01*
X102245035Y-88005504D01*
X102309291Y-87832260D01*
X102424830Y-87691567D01*
X102577834Y-87594078D01*
X102754487Y-87550446D01*
X102940974Y-87571325D01*
G37*
G36*
X107157451Y-88171849D02*
G01*
X107295522Y-88231883D01*
X107406826Y-88338402D01*
X107476670Y-88490793D01*
X107493038Y-88628512D01*
X107463180Y-88817939D01*
X107371368Y-88957649D01*
X107227842Y-89047442D01*
X107072715Y-89094687D01*
X106939834Y-89088540D01*
X106866817Y-89064543D01*
X106788209Y-89012744D01*
X106695883Y-88925623D01*
X106671612Y-88898134D01*
X106599213Y-88796114D01*
X106574193Y-88699136D01*
X106579808Y-88590408D01*
X106631335Y-88408822D01*
X106729555Y-88276786D01*
X106859775Y-88193687D01*
X107007305Y-88158913D01*
X107157451Y-88171849D01*
G37*
G36*
X96882357Y-81563336D02*
G01*
X97041405Y-81636962D01*
X97160539Y-81768547D01*
X97178916Y-81803275D01*
X97232389Y-81942933D01*
X97236710Y-82058231D01*
X97192338Y-82188048D01*
X97183686Y-82206610D01*
X97075104Y-82349364D01*
X96921872Y-82439301D01*
X96745004Y-82469960D01*
X96565514Y-82434881D01*
X96516439Y-82411743D01*
X96423232Y-82328696D01*
X96339754Y-82202647D01*
X96287621Y-82070089D01*
X96280063Y-82012651D01*
X96310173Y-81872929D01*
X96386505Y-81732736D01*
X96488059Y-81627837D01*
X96516041Y-81610739D01*
X96701275Y-81552864D01*
X96882357Y-81563336D01*
G37*
G36*
X97665846Y-90992152D02*
G01*
X97829428Y-91081591D01*
X97930119Y-91221052D01*
X97967749Y-91410290D01*
X97968038Y-91430971D01*
X97940735Y-91622916D01*
X97855325Y-91762812D01*
X97706560Y-91859166D01*
X97702842Y-91860733D01*
X97579963Y-91904291D01*
X97485302Y-91908758D01*
X97376822Y-91874095D01*
X97345095Y-91860405D01*
X97185323Y-91760904D01*
X97094508Y-91627587D01*
X97063882Y-91447132D01*
X97063766Y-91432913D01*
X97074214Y-91294795D01*
X97115367Y-91195510D01*
X97179936Y-91117566D01*
X97335864Y-91001662D01*
X97508069Y-90964225D01*
X97665846Y-90992152D01*
G37*
G36*
X104119788Y-88684006D02*
G01*
X104269488Y-88791130D01*
X104369177Y-88937457D01*
X104414262Y-89107966D01*
X104400146Y-89287638D01*
X104322235Y-89461453D01*
X104215604Y-89582088D01*
X104121301Y-89656441D01*
X104046079Y-89701129D01*
X104025263Y-89706878D01*
X103946338Y-89715217D01*
X103896044Y-89724254D01*
X103799818Y-89725084D01*
X103693585Y-89704673D01*
X103520081Y-89613740D01*
X103396318Y-89465093D01*
X103330796Y-89270010D01*
X103324481Y-89214892D01*
X103341273Y-88996243D01*
X103421944Y-88821912D01*
X103559065Y-88699127D01*
X103745204Y-88635116D01*
X103924674Y-88631105D01*
X104119788Y-88684006D01*
G37*
G36*
X99555848Y-92857721D02*
G01*
X99650014Y-92900636D01*
X99759281Y-92976003D01*
X99786940Y-92999445D01*
X99867156Y-93081982D01*
X99905630Y-93164136D01*
X99916950Y-93281718D01*
X99917247Y-93319348D01*
X99909154Y-93454965D01*
X99875326Y-93548781D01*
X99801442Y-93638558D01*
X99792924Y-93647144D01*
X99650634Y-93744607D01*
X99483223Y-93793137D01*
X99321307Y-93785516D01*
X99274209Y-93769411D01*
X99118134Y-93660602D01*
X99022700Y-93501923D01*
X98992880Y-93316883D01*
X99000119Y-93185878D01*
X99031778Y-93098366D01*
X99102766Y-93018021D01*
X99123187Y-92999445D01*
X99293462Y-92883603D01*
X99460513Y-92845566D01*
X99555848Y-92857721D01*
G37*
G36*
X105124459Y-87588857D02*
G01*
X105282064Y-87687559D01*
X105400869Y-87832067D01*
X105468093Y-88010855D01*
X105470955Y-88212401D01*
X105468231Y-88228043D01*
X105417730Y-88352506D01*
X105323752Y-88479311D01*
X105304544Y-88498835D01*
X105187929Y-88591856D01*
X105064300Y-88635772D01*
X104973396Y-88646616D01*
X104839735Y-88647746D01*
X104727923Y-88634204D01*
X104696564Y-88624639D01*
X104596238Y-88554279D01*
X104491027Y-88440869D01*
X104406836Y-88315608D01*
X104373888Y-88236037D01*
X104365828Y-88050543D01*
X104423686Y-87867774D01*
X104535286Y-87709481D01*
X104688451Y-87597417D01*
X104743966Y-87574967D01*
X104940832Y-87547485D01*
X105124459Y-87588857D01*
G37*
G36*
X97538697Y-83301377D02*
G01*
X97656566Y-83334566D01*
X97787483Y-83399654D01*
X97900095Y-83488872D01*
X97921117Y-83512844D01*
X98014860Y-83632901D01*
X98135785Y-83495175D01*
X98293942Y-83366268D01*
X98469963Y-83304780D01*
X98648659Y-83305985D01*
X98814839Y-83365161D01*
X98953315Y-83477584D01*
X99048895Y-83638530D01*
X99083452Y-83789883D01*
X99071937Y-84010426D01*
X98995820Y-84187190D01*
X98861957Y-84313199D01*
X98677206Y-84381478D01*
X98493932Y-84389600D01*
X98354324Y-84371836D01*
X98258456Y-84333103D01*
X98169799Y-84256601D01*
X98143328Y-84228347D01*
X98062909Y-84143502D01*
X98016095Y-84111704D01*
X97982454Y-84126498D01*
X97951213Y-84167653D01*
X97820832Y-84293931D01*
X97654346Y-84370574D01*
X97471196Y-84397668D01*
X97290821Y-84375293D01*
X97132661Y-84303534D01*
X97016155Y-84182472D01*
X97005353Y-84163624D01*
X96975905Y-84119271D01*
X96942970Y-84117255D01*
X96888061Y-84164302D01*
X96828555Y-84227950D01*
X96736785Y-84316629D01*
X96648695Y-84362943D01*
X96528013Y-84383332D01*
X96477587Y-84387003D01*
X96338908Y-84388352D01*
X96223115Y-84376941D01*
X96179589Y-84365112D01*
X96047745Y-84271453D01*
X95938675Y-84131373D01*
X95882261Y-83993204D01*
X95871471Y-83789557D01*
X95924039Y-83612300D01*
X96026794Y-83468368D01*
X96166562Y-83364693D01*
X96330170Y-83308212D01*
X96504444Y-83305857D01*
X96676212Y-83364564D01*
X96832299Y-83491267D01*
X96833407Y-83492525D01*
X96951275Y-83626770D01*
X97047710Y-83509363D01*
X97149228Y-83420760D01*
X97281066Y-83347136D01*
X97314952Y-83334151D01*
X97438442Y-83300315D01*
X97538697Y-83301377D01*
G37*
G36*
X99759616Y-84384610D02*
G01*
X99920252Y-84462280D01*
X100056855Y-84600722D01*
X100111623Y-84693517D01*
X100167260Y-84888222D01*
X100143749Y-85078542D01*
X100042315Y-85258812D01*
X99973564Y-85333247D01*
X99886983Y-85419760D01*
X99853908Y-85468443D01*
X99867561Y-85494626D01*
X99896973Y-85506431D01*
X99975100Y-85556008D01*
X100051870Y-85639481D01*
X100144345Y-85832599D01*
X100161138Y-86031829D01*
X100103938Y-86222576D01*
X99974434Y-86390245D01*
X99963884Y-86399707D01*
X99834575Y-86513242D01*
X99951332Y-86609936D01*
X100089791Y-86770598D01*
X100157555Y-86954816D01*
X100153860Y-87147132D01*
X100077940Y-87332084D01*
X99992308Y-87438240D01*
X99854283Y-87576266D01*
X99992308Y-87714292D01*
X100114779Y-87886955D01*
X100163610Y-88076711D01*
X100139286Y-88269557D01*
X100042290Y-88451490D01*
X99963928Y-88536549D01*
X99820840Y-88619299D01*
X99642053Y-88653464D01*
X99457792Y-88636444D01*
X99337599Y-88590428D01*
X99180673Y-88461660D01*
X99088145Y-88287394D01*
X99063391Y-88074449D01*
X99065613Y-88040942D01*
X99088339Y-87902544D01*
X99140234Y-87801726D01*
X99231031Y-87706832D01*
X99379055Y-87571178D01*
X99275592Y-87489793D01*
X99146052Y-87343460D01*
X99075040Y-87167163D01*
X99062028Y-86979802D01*
X99106490Y-86800275D01*
X99207898Y-86647480D01*
X99301149Y-86573232D01*
X99414902Y-86504054D01*
X99314321Y-86458226D01*
X99179472Y-86356775D01*
X99094300Y-86210041D01*
X99059580Y-86036537D01*
X99076087Y-85854773D01*
X99144595Y-85683258D01*
X99265879Y-85540505D01*
X99275592Y-85532675D01*
X99379055Y-85451290D01*
X99231031Y-85315637D01*
X99134325Y-85212806D01*
X99085628Y-85110450D01*
X99065613Y-84981526D01*
X99080006Y-84774541D01*
X99153349Y-84605477D01*
X99271813Y-84478144D01*
X99421566Y-84396350D01*
X99588777Y-84363902D01*
X99759616Y-84384610D01*
G37*
G36*
X101872809Y-83317474D02*
G01*
X102057395Y-83404710D01*
X102190146Y-83540028D01*
X102267323Y-83707176D01*
X102285187Y-83889904D01*
X102240001Y-84071961D01*
X102128025Y-84237097D01*
X102092204Y-84271175D01*
X101957364Y-84389565D01*
X102091379Y-84496498D01*
X102214882Y-84641953D01*
X102277154Y-84818684D01*
X102278878Y-85006709D01*
X102220739Y-85186047D01*
X102103423Y-85336718D01*
X102061450Y-85370063D01*
X101941185Y-85455699D01*
X102059957Y-85527928D01*
X102189600Y-85649772D01*
X102264584Y-85811544D01*
X102284089Y-85993484D01*
X102247293Y-86175835D01*
X102153374Y-86338837D01*
X102096089Y-86397305D01*
X101965277Y-86511234D01*
X102111228Y-86651899D01*
X102240730Y-86817645D01*
X102291614Y-86993653D01*
X102265359Y-87187593D01*
X102231737Y-87276125D01*
X102156192Y-87409477D01*
X102056398Y-87496179D01*
X101978712Y-87536382D01*
X101820320Y-87596268D01*
X101693372Y-87609154D01*
X101565346Y-87576715D01*
X101524842Y-87559722D01*
X101362069Y-87450004D01*
X101250630Y-87299253D01*
X101192309Y-87124613D01*
X101188890Y-86943226D01*
X101242160Y-86772234D01*
X101353902Y-86628781D01*
X101422667Y-86578428D01*
X101537635Y-86508512D01*
X101423558Y-86443041D01*
X101286000Y-86320149D01*
X101207615Y-86147517D01*
X101192042Y-85933514D01*
X101193675Y-85914271D01*
X101217820Y-85773492D01*
X101270291Y-85671607D01*
X101358318Y-85579312D01*
X101503566Y-85446202D01*
X101359532Y-85314205D01*
X101242159Y-85158486D01*
X101187125Y-84977290D01*
X101193625Y-84790432D01*
X101260851Y-84617726D01*
X101387997Y-84478988D01*
X101393694Y-84474869D01*
X101513165Y-84389798D01*
X101393815Y-84296394D01*
X101261478Y-84150757D01*
X101194265Y-83984331D01*
X101185608Y-83810538D01*
X101228939Y-83642802D01*
X101317690Y-83494545D01*
X101445292Y-83379191D01*
X101605178Y-83310162D01*
X101790780Y-83300884D01*
X101872809Y-83317474D01*
G37*
G36*
X95500430Y-84384922D02*
G01*
X95590611Y-84404321D01*
X95662634Y-84451585D01*
X95739330Y-84529919D01*
X95866527Y-84715829D01*
X95914884Y-84905749D01*
X95884440Y-85093445D01*
X95775237Y-85272681D01*
X95734193Y-85316882D01*
X95596562Y-85454514D01*
X95702043Y-85537486D01*
X95815094Y-85668163D01*
X95893211Y-85838669D01*
X95918354Y-85991448D01*
X95888506Y-86147449D01*
X95811458Y-86301165D01*
X95705953Y-86417861D01*
X95678080Y-86436737D01*
X95568104Y-86501701D01*
X95721998Y-86640734D01*
X95848894Y-86803416D01*
X95907224Y-86988524D01*
X95897164Y-87178666D01*
X95818888Y-87356445D01*
X95713595Y-87472829D01*
X95590668Y-87576266D01*
X95713595Y-87679702D01*
X95842163Y-87835565D01*
X95904077Y-88018676D01*
X95898754Y-88210509D01*
X95825612Y-88392535D01*
X95739354Y-88498835D01*
X95623596Y-88591424D01*
X95501492Y-88635036D01*
X95408206Y-88645964D01*
X95280921Y-88649183D01*
X95181495Y-88641889D01*
X95154747Y-88635349D01*
X95041631Y-88562222D01*
X94928914Y-88446214D01*
X94841858Y-88317028D01*
X94808351Y-88228043D01*
X94808082Y-88034324D01*
X94869920Y-87845544D01*
X94983206Y-87692556D01*
X94997797Y-87679702D01*
X95120724Y-87576266D01*
X94997797Y-87472829D01*
X94867675Y-87316140D01*
X94805635Y-87133838D01*
X94811852Y-86943317D01*
X94886501Y-86761972D01*
X94989394Y-86640734D01*
X95143288Y-86501701D01*
X95033312Y-86436737D01*
X94923716Y-86334312D01*
X94838013Y-86186410D01*
X94794947Y-86027767D01*
X94793038Y-85991448D01*
X94826116Y-85814254D01*
X94912888Y-85643780D01*
X95013424Y-85534280D01*
X95122982Y-85448102D01*
X94998926Y-85343716D01*
X94869086Y-85187008D01*
X94806898Y-85003827D01*
X94812841Y-84811846D01*
X94887396Y-84628739D01*
X94976543Y-84519267D01*
X95065345Y-84440770D01*
X95145104Y-84399373D01*
X95248242Y-84383429D01*
X95361016Y-84381171D01*
X95500430Y-84384922D01*
G37*
G36*
X97617810Y-87558951D02*
G01*
X97771314Y-87627006D01*
X97896238Y-87738976D01*
X97984960Y-87882772D01*
X98029860Y-88046309D01*
X98023316Y-88217499D01*
X97957708Y-88384254D01*
X97836842Y-88524902D01*
X97706804Y-88636457D01*
X97859495Y-88786840D01*
X98012185Y-88937223D01*
X98144250Y-88793116D01*
X98236663Y-88704534D01*
X98327259Y-88657831D01*
X98452476Y-88636307D01*
X98493932Y-88632868D01*
X98715055Y-88648987D01*
X98890873Y-88728516D01*
X99014529Y-88864480D01*
X99079166Y-89049903D01*
X99083452Y-89232585D01*
X99030878Y-89426175D01*
X98924503Y-89574707D01*
X98779395Y-89674570D01*
X98610622Y-89722153D01*
X98433253Y-89713847D01*
X98262357Y-89646039D01*
X98113001Y-89515120D01*
X98081230Y-89472740D01*
X98017257Y-89379816D01*
X97931855Y-89499753D01*
X97792490Y-89632870D01*
X97618978Y-89707018D01*
X97431330Y-89721519D01*
X97249559Y-89675695D01*
X97093676Y-89568867D01*
X97058523Y-89529354D01*
X96951591Y-89395339D01*
X96833565Y-89529763D01*
X96723219Y-89625650D01*
X96597131Y-89695354D01*
X96568134Y-89705129D01*
X96468596Y-89732028D01*
X96406096Y-89739437D01*
X96339646Y-89727175D01*
X96258459Y-89703768D01*
X96087282Y-89616484D01*
X95963222Y-89478843D01*
X95890585Y-89308519D01*
X95873677Y-89123185D01*
X95916807Y-88940514D01*
X96024281Y-88778182D01*
X96031194Y-88771143D01*
X96186618Y-88667152D01*
X96368377Y-88624044D01*
X96555316Y-88639497D01*
X96726281Y-88711193D01*
X96860118Y-88836812D01*
X96878049Y-88864009D01*
X96950013Y-88982343D01*
X97006889Y-88875596D01*
X97084857Y-88774694D01*
X97172454Y-88702607D01*
X97281142Y-88636366D01*
X97167271Y-88569101D01*
X97029614Y-88446460D01*
X96950910Y-88287998D01*
X96929598Y-88110800D01*
X96964117Y-87931951D01*
X97052907Y-87768534D01*
X97194406Y-87637634D01*
X97255542Y-87602934D01*
X97443345Y-87546898D01*
X97617810Y-87558951D01*
G37*
G36*
X106107257Y-83312864D02*
G01*
X106288850Y-83396358D01*
X106408974Y-83504345D01*
X106480837Y-83593227D01*
X106516844Y-83669760D01*
X106526200Y-83766053D01*
X106519817Y-83890997D01*
X106504174Y-84034481D01*
X106473609Y-84129950D01*
X106413977Y-84209763D01*
X106356035Y-84265732D01*
X106271341Y-84346520D01*
X106240268Y-84392649D01*
X106256062Y-84422524D01*
X106290839Y-84443327D01*
X106417756Y-84552993D01*
X106495717Y-84706941D01*
X106524588Y-84885603D01*
X106504236Y-85069408D01*
X106434529Y-85238788D01*
X106315335Y-85374173D01*
X106297245Y-85387523D01*
X106253846Y-85422896D01*
X106247302Y-85457957D01*
X106284362Y-85511310D01*
X106371775Y-85601558D01*
X106376666Y-85606450D01*
X106464959Y-85698610D01*
X106511546Y-85770228D01*
X106527284Y-85852314D01*
X106523033Y-85975877D01*
X106520167Y-86016223D01*
X106505434Y-86159713D01*
X106478025Y-86253286D01*
X106424368Y-86327398D01*
X106351458Y-86394845D01*
X106264007Y-86473130D01*
X106231214Y-86517840D01*
X106246324Y-86547257D01*
X106286367Y-86570997D01*
X106403492Y-86675106D01*
X106487679Y-86832519D01*
X106526921Y-87018937D01*
X106528331Y-87060761D01*
X106490735Y-87256637D01*
X106383940Y-87422452D01*
X106217431Y-87544567D01*
X106179987Y-87561636D01*
X106033027Y-87607653D01*
X105905238Y-87602741D01*
X105782976Y-87559925D01*
X105609614Y-87445269D01*
X105493336Y-87284269D01*
X105444402Y-87092012D01*
X105443505Y-87060761D01*
X105471433Y-86871264D01*
X105546905Y-86705508D01*
X105657916Y-86587795D01*
X105685468Y-86570997D01*
X105732869Y-86540896D01*
X105737571Y-86509584D01*
X105692817Y-86458777D01*
X105620377Y-86394845D01*
X105535149Y-86314000D01*
X105487274Y-86238615D01*
X105463178Y-86138234D01*
X105451668Y-86016223D01*
X105444162Y-85877692D01*
X105453971Y-85788272D01*
X105491954Y-85716954D01*
X105568972Y-85632728D01*
X105595169Y-85606450D01*
X105684853Y-85514239D01*
X105723899Y-85459706D01*
X105719056Y-85424250D01*
X105677074Y-85389265D01*
X105674590Y-85387523D01*
X105549899Y-85258220D01*
X105474161Y-85092378D01*
X105447296Y-84909605D01*
X105469228Y-84729509D01*
X105539877Y-84571695D01*
X105659166Y-84455772D01*
X105678342Y-84444748D01*
X105718973Y-84416577D01*
X105720719Y-84382331D01*
X105676737Y-84324623D01*
X105600113Y-84245962D01*
X105508541Y-84146974D01*
X105461864Y-84063829D01*
X105445178Y-83960287D01*
X105443354Y-83864829D01*
X105450194Y-83721675D01*
X105478980Y-83621815D01*
X105542112Y-83528732D01*
X105567595Y-83498953D01*
X105732550Y-83364071D01*
X105917130Y-83302071D01*
X106107257Y-83312864D01*
G37*
G36*
X100889782Y-77514205D02*
G01*
X101217367Y-77522375D01*
X101500844Y-77538420D01*
X101758302Y-77564330D01*
X102007829Y-77602091D01*
X102267514Y-77653692D01*
X102555446Y-77721120D01*
X102674256Y-77750856D01*
X103238692Y-77918916D01*
X103821776Y-78138359D01*
X104396604Y-78397399D01*
X104936270Y-78684250D01*
X105262500Y-78884639D01*
X105942482Y-79376734D01*
X106567396Y-79925316D01*
X107134445Y-80526014D01*
X107640836Y-81174459D01*
X108083773Y-81866282D01*
X108460462Y-82597112D01*
X108768108Y-83362580D01*
X109003917Y-84158316D01*
X109165094Y-84979952D01*
X109166319Y-84988283D01*
X109203945Y-85328045D01*
X109227610Y-85722189D01*
X109237313Y-86145940D01*
X109233055Y-86574522D01*
X109214835Y-86983159D01*
X109182653Y-87347076D01*
X109166319Y-87471527D01*
X109007553Y-88286878D01*
X108776685Y-89072797D01*
X108477367Y-89825680D01*
X108113251Y-90541924D01*
X107687987Y-91217926D01*
X107205227Y-91850082D01*
X106668623Y-92434789D01*
X106081825Y-92968444D01*
X105448486Y-93447442D01*
X104772257Y-93868181D01*
X104056789Y-94227057D01*
X103305733Y-94520467D01*
X102522741Y-94744807D01*
X101711465Y-94896474D01*
X101631677Y-94907150D01*
X101305408Y-94938817D01*
X100928018Y-94958310D01*
X100524410Y-94965642D01*
X100119491Y-94960825D01*
X99738164Y-94943874D01*
X99405335Y-94914803D01*
X99334494Y-94905896D01*
X98518486Y-94756062D01*
X97729809Y-94532818D01*
X96972379Y-94239644D01*
X96250109Y-93880024D01*
X95566916Y-93457439D01*
X94926713Y-92975372D01*
X94333416Y-92437305D01*
X93790939Y-91846720D01*
X93303197Y-91207100D01*
X92874106Y-90521925D01*
X92507580Y-89794680D01*
X92207533Y-89028845D01*
X92020414Y-88400158D01*
X91923312Y-87990082D01*
X91852056Y-87605289D01*
X91803745Y-87221215D01*
X91775473Y-86813294D01*
X91764338Y-86356962D01*
X91763891Y-86229905D01*
X91767054Y-86020926D01*
X92706762Y-86020926D01*
X92726005Y-86778290D01*
X92819767Y-87537599D01*
X92989836Y-88293690D01*
X93108225Y-88681487D01*
X93375281Y-89364128D01*
X93714027Y-90033055D01*
X94115784Y-90673236D01*
X94571874Y-91269642D01*
X94665608Y-91378654D01*
X95180935Y-91906853D01*
X95753626Y-92384911D01*
X96375074Y-92808605D01*
X97036667Y-93173709D01*
X97729798Y-93476000D01*
X98445856Y-93711253D01*
X99176232Y-93875243D01*
X99912317Y-93963746D01*
X99937342Y-93965378D01*
X100127971Y-93976426D01*
X100292855Y-93982765D01*
X100451381Y-93984101D01*
X100622937Y-93980144D01*
X100826910Y-93970601D01*
X101082690Y-93955181D01*
X101223418Y-93946012D01*
X101575153Y-93907785D01*
X101971562Y-93839295D01*
X102385493Y-93746358D01*
X102789794Y-93634793D01*
X103012725Y-93562620D01*
X103740316Y-93269994D01*
X104429359Y-92908783D01*
X105075692Y-92483055D01*
X105675155Y-91996878D01*
X106223585Y-91454319D01*
X106716824Y-90859447D01*
X107150708Y-90216328D01*
X107521077Y-89529031D01*
X107790896Y-88891601D01*
X108009384Y-88194344D01*
X108160313Y-87464411D01*
X108242816Y-86713994D01*
X108256025Y-85955281D01*
X108199076Y-85200464D01*
X108097172Y-84582120D01*
X107903072Y-83841894D01*
X107636478Y-83129574D01*
X107301801Y-82449800D01*
X106903453Y-81807218D01*
X106445847Y-81206469D01*
X105933396Y-80652197D01*
X105370511Y-80149044D01*
X104761604Y-79701654D01*
X104111089Y-79314669D01*
X103423377Y-78992731D01*
X102702881Y-78740485D01*
X102489399Y-78681284D01*
X102137293Y-78594665D01*
X101820918Y-78530301D01*
X101516733Y-78485347D01*
X101201196Y-78456959D01*
X100850766Y-78442292D01*
X100479905Y-78438472D01*
X99928208Y-78450991D01*
X99429718Y-78491221D01*
X98960836Y-78563176D01*
X98497963Y-78670869D01*
X98017501Y-78818312D01*
X97803248Y-78893615D01*
X97457604Y-79019070D01*
X97497769Y-79169551D01*
X97517179Y-79301958D01*
X97488267Y-79422357D01*
X97471008Y-79461070D01*
X97359440Y-79616125D01*
X97211661Y-79708476D01*
X97043287Y-79736859D01*
X96869937Y-79700007D01*
X96707227Y-79596654D01*
X96641772Y-79528271D01*
X96611134Y-79498682D01*
X96573903Y-79490595D01*
X96516258Y-79509317D01*
X96424376Y-79560154D01*
X96284434Y-79648412D01*
X96219778Y-79690269D01*
X95592108Y-80144182D01*
X95021088Y-80651677D01*
X94508505Y-81207589D01*
X94056146Y-81806755D01*
X93665798Y-82444012D01*
X93339247Y-83114195D01*
X93078282Y-83812142D01*
X92884688Y-84532688D01*
X92760252Y-85270671D01*
X92706762Y-86020926D01*
X91767054Y-86020926D01*
X91771005Y-85759923D01*
X91794309Y-85344420D01*
X91836750Y-84958594D01*
X91901271Y-84577642D01*
X91990818Y-84176763D01*
X92022728Y-84049973D01*
X92265513Y-83263659D01*
X92578998Y-82510024D01*
X92959127Y-81793122D01*
X93401842Y-81117006D01*
X93903087Y-80485732D01*
X94458804Y-79903353D01*
X95064938Y-79373925D01*
X95717430Y-78901500D01*
X96412224Y-78490135D01*
X97145263Y-78143884D01*
X97912491Y-77866799D01*
X98325744Y-77750856D01*
X98628913Y-77676988D01*
X98897059Y-77619692D01*
X99148273Y-77576980D01*
X99400641Y-77546864D01*
X99672254Y-77527356D01*
X99981198Y-77516469D01*
X100345564Y-77512214D01*
X100500000Y-77511923D01*
X100889782Y-77514205D01*
G37*
D12*
%TO.C,C8*%
X93380000Y-124695000D02*
X93380000Y-124630000D01*
X93380000Y-126870000D02*
X93380000Y-126805000D01*
X96620000Y-124630000D02*
X93380000Y-124630000D01*
X96620000Y-124695000D02*
X96620000Y-124630000D01*
X96620000Y-126870000D02*
X93380000Y-126870000D01*
X96620000Y-126870000D02*
X96620000Y-126805000D01*
%TO.C,PHOTODIODE1*%
X123170000Y-88920000D02*
X124500000Y-88920000D01*
X123170000Y-90250000D02*
X123170000Y-88920000D01*
X125770000Y-88920000D02*
X130910000Y-88920000D01*
X125770000Y-91580000D02*
X125770000Y-88920000D01*
X125770000Y-91580000D02*
X130910000Y-91580000D01*
X130910000Y-91580000D02*
X130910000Y-88920000D01*
%TO.C,J1*%
X117920000Y-74960000D02*
X117920000Y-75080000D01*
X117920000Y-75080000D02*
X120580000Y-75080000D01*
X119250000Y-72420000D02*
X120580000Y-72420000D01*
X120580000Y-72420000D02*
X120580000Y-73750000D01*
X120580000Y-74960000D02*
X120580000Y-75080000D01*
%TO.C,R4*%
X117630000Y-99670000D02*
X117960000Y-99670000D01*
X117630000Y-106210000D02*
X117630000Y-99670000D01*
X117960000Y-106210000D02*
X117630000Y-106210000D01*
X120040000Y-106210000D02*
X120370000Y-106210000D01*
X120370000Y-99670000D02*
X120040000Y-99670000D01*
X120370000Y-106210000D02*
X120370000Y-99670000D01*
%TO.C,C9*%
X92399000Y-111784000D02*
X92399000Y-111216000D01*
X92439000Y-112018000D02*
X92439000Y-110982000D01*
X92479000Y-112177000D02*
X92479000Y-110823000D01*
X92519000Y-112305000D02*
X92519000Y-110695000D01*
X92559000Y-112415000D02*
X92559000Y-110585000D01*
X92599000Y-112511000D02*
X92599000Y-110489000D01*
X92639000Y-112598000D02*
X92639000Y-110402000D01*
X92679000Y-112678000D02*
X92679000Y-110322000D01*
X92719000Y-112751000D02*
X92719000Y-110249000D01*
X92759000Y-112819000D02*
X92759000Y-110181000D01*
X92799000Y-112883000D02*
X92799000Y-110117000D01*
X92839000Y-112943000D02*
X92839000Y-110057000D01*
X92879000Y-113000000D02*
X92879000Y-110000000D01*
X92919000Y-113054000D02*
X92919000Y-109946000D01*
X92959000Y-113105000D02*
X92959000Y-109895000D01*
X92999000Y-110460000D02*
X92999000Y-109847000D01*
X92999000Y-113153000D02*
X92999000Y-112540000D01*
X93039000Y-110460000D02*
X93039000Y-109801000D01*
X93039000Y-113199000D02*
X93039000Y-112540000D01*
X93079000Y-110460000D02*
X93079000Y-109757000D01*
X93079000Y-113243000D02*
X93079000Y-112540000D01*
X93119000Y-110460000D02*
X93119000Y-109715000D01*
X93119000Y-113285000D02*
X93119000Y-112540000D01*
X93159000Y-110460000D02*
X93159000Y-109674000D01*
X93159000Y-113326000D02*
X93159000Y-112540000D01*
X93199000Y-110460000D02*
X93199000Y-109636000D01*
X93199000Y-113364000D02*
X93199000Y-112540000D01*
X93239000Y-110460000D02*
X93239000Y-109599000D01*
X93239000Y-113401000D02*
X93239000Y-112540000D01*
X93279000Y-110460000D02*
X93279000Y-109563000D01*
X93279000Y-113437000D02*
X93279000Y-112540000D01*
X93319000Y-110460000D02*
X93319000Y-109529000D01*
X93319000Y-113471000D02*
X93319000Y-112540000D01*
X93359000Y-110460000D02*
X93359000Y-109496000D01*
X93359000Y-113504000D02*
X93359000Y-112540000D01*
X93399000Y-110460000D02*
X93399000Y-109465000D01*
X93399000Y-113535000D02*
X93399000Y-112540000D01*
X93439000Y-110460000D02*
X93439000Y-109435000D01*
X93439000Y-113565000D02*
X93439000Y-112540000D01*
X93479000Y-110460000D02*
X93479000Y-109405000D01*
X93479000Y-113595000D02*
X93479000Y-112540000D01*
X93519000Y-110460000D02*
X93519000Y-109378000D01*
X93519000Y-113622000D02*
X93519000Y-112540000D01*
X93559000Y-110460000D02*
X93559000Y-109351000D01*
X93559000Y-113649000D02*
X93559000Y-112540000D01*
X93599000Y-110460000D02*
X93599000Y-109325000D01*
X93599000Y-113675000D02*
X93599000Y-112540000D01*
X93639000Y-110460000D02*
X93639000Y-109300000D01*
X93639000Y-113700000D02*
X93639000Y-112540000D01*
X93679000Y-110460000D02*
X93679000Y-109276000D01*
X93679000Y-113724000D02*
X93679000Y-112540000D01*
X93719000Y-110460000D02*
X93719000Y-109253000D01*
X93719000Y-113747000D02*
X93719000Y-112540000D01*
X93759000Y-110460000D02*
X93759000Y-109232000D01*
X93759000Y-113768000D02*
X93759000Y-112540000D01*
X93799000Y-110460000D02*
X93799000Y-109210000D01*
X93799000Y-113790000D02*
X93799000Y-112540000D01*
X93839000Y-110460000D02*
X93839000Y-109190000D01*
X93839000Y-113810000D02*
X93839000Y-112540000D01*
X93879000Y-110460000D02*
X93879000Y-109171000D01*
X93879000Y-113829000D02*
X93879000Y-112540000D01*
X93919000Y-110460000D02*
X93919000Y-109152000D01*
X93919000Y-113848000D02*
X93919000Y-112540000D01*
X93959000Y-110460000D02*
X93959000Y-109135000D01*
X93959000Y-113865000D02*
X93959000Y-112540000D01*
X93999000Y-110460000D02*
X93999000Y-109118000D01*
X93999000Y-113882000D02*
X93999000Y-112540000D01*
X94039000Y-110460000D02*
X94039000Y-109102000D01*
X94039000Y-113898000D02*
X94039000Y-112540000D01*
X94079000Y-110460000D02*
X94079000Y-109086000D01*
X94079000Y-113914000D02*
X94079000Y-112540000D01*
X94119000Y-110460000D02*
X94119000Y-109072000D01*
X94119000Y-113928000D02*
X94119000Y-112540000D01*
X94159000Y-110460000D02*
X94159000Y-109058000D01*
X94159000Y-113942000D02*
X94159000Y-112540000D01*
X94199000Y-110460000D02*
X94199000Y-109045000D01*
X94199000Y-113955000D02*
X94199000Y-112540000D01*
X94239000Y-110460000D02*
X94239000Y-109032000D01*
X94239000Y-113968000D02*
X94239000Y-112540000D01*
X94279000Y-110460000D02*
X94279000Y-109020000D01*
X94279000Y-113980000D02*
X94279000Y-112540000D01*
X94320000Y-110460000D02*
X94320000Y-109009000D01*
X94320000Y-113991000D02*
X94320000Y-112540000D01*
X94360000Y-110460000D02*
X94360000Y-108999000D01*
X94360000Y-114001000D02*
X94360000Y-112540000D01*
X94400000Y-110460000D02*
X94400000Y-108989000D01*
X94400000Y-114011000D02*
X94400000Y-112540000D01*
X94440000Y-110460000D02*
X94440000Y-108980000D01*
X94440000Y-114020000D02*
X94440000Y-112540000D01*
X94480000Y-110460000D02*
X94480000Y-108972000D01*
X94480000Y-114028000D02*
X94480000Y-112540000D01*
X94520000Y-110460000D02*
X94520000Y-108964000D01*
X94520000Y-114036000D02*
X94520000Y-112540000D01*
X94560000Y-110460000D02*
X94560000Y-108957000D01*
X94560000Y-114043000D02*
X94560000Y-112540000D01*
X94600000Y-110460000D02*
X94600000Y-108950000D01*
X94600000Y-114050000D02*
X94600000Y-112540000D01*
X94640000Y-110460000D02*
X94640000Y-108944000D01*
X94640000Y-114056000D02*
X94640000Y-112540000D01*
X94680000Y-110460000D02*
X94680000Y-108939000D01*
X94680000Y-114061000D02*
X94680000Y-112540000D01*
X94720000Y-110460000D02*
X94720000Y-108935000D01*
X94720000Y-114065000D02*
X94720000Y-112540000D01*
X94760000Y-110460000D02*
X94760000Y-108931000D01*
X94760000Y-114069000D02*
X94760000Y-112540000D01*
X94800000Y-110460000D02*
X94800000Y-108927000D01*
X94800000Y-114073000D02*
X94800000Y-112540000D01*
X94840000Y-110460000D02*
X94840000Y-108924000D01*
X94840000Y-114076000D02*
X94840000Y-112540000D01*
X94880000Y-110460000D02*
X94880000Y-108922000D01*
X94880000Y-114078000D02*
X94880000Y-112540000D01*
X94920000Y-110460000D02*
X94920000Y-108921000D01*
X94920000Y-114079000D02*
X94920000Y-112540000D01*
X94960000Y-110460000D02*
X94960000Y-108920000D01*
X94960000Y-114080000D02*
X94960000Y-112540000D01*
X95000000Y-110460000D02*
X95000000Y-108920000D01*
X95000000Y-114080000D02*
X95000000Y-112540000D01*
X97554775Y-113225000D02*
X97554775Y-112725000D01*
X97804775Y-112975000D02*
X97304775Y-112975000D01*
X97620000Y-111500000D02*
G75*
G02*
X92380000Y-111500000I-2620000J0D01*
G01*
X92380000Y-111500000D02*
G75*
G02*
X97620000Y-111500000I2620000J0D01*
G01*
%TO.C,C2*%
X117880000Y-93630000D02*
X117945000Y-93630000D01*
X117880000Y-96870000D02*
X117880000Y-93630000D01*
X117880000Y-96870000D02*
X117945000Y-96870000D01*
X120055000Y-93630000D02*
X120120000Y-93630000D01*
X120055000Y-96870000D02*
X120120000Y-96870000D01*
X120120000Y-96870000D02*
X120120000Y-93630000D01*
%TO.C,J3*%
X154420000Y-74960000D02*
X154420000Y-75080000D01*
X154420000Y-75080000D02*
X157080000Y-75080000D01*
X155750000Y-72420000D02*
X157080000Y-72420000D01*
X157080000Y-72420000D02*
X157080000Y-73750000D01*
X157080000Y-74960000D02*
X157080000Y-75080000D01*
%TO.C,J8*%
X118170000Y-54960000D02*
X118170000Y-55080000D01*
X118170000Y-55080000D02*
X120830000Y-55080000D01*
X119500000Y-52420000D02*
X120830000Y-52420000D01*
X120830000Y-52420000D02*
X120830000Y-53750000D01*
X120830000Y-54960000D02*
X120830000Y-55080000D01*
%TO.C,R1*%
X107230000Y-100880000D02*
X113770000Y-100880000D01*
X107230000Y-101210000D02*
X107230000Y-100880000D01*
X107230000Y-103290000D02*
X107230000Y-103620000D01*
X107230000Y-103620000D02*
X113770000Y-103620000D01*
X113770000Y-100880000D02*
X113770000Y-101210000D01*
X113770000Y-103620000D02*
X113770000Y-103290000D01*
%TO.C,C10*%
X92399000Y-136284000D02*
X92399000Y-135716000D01*
X92439000Y-136518000D02*
X92439000Y-135482000D01*
X92479000Y-136677000D02*
X92479000Y-135323000D01*
X92519000Y-136805000D02*
X92519000Y-135195000D01*
X92559000Y-136915000D02*
X92559000Y-135085000D01*
X92599000Y-137011000D02*
X92599000Y-134989000D01*
X92639000Y-137098000D02*
X92639000Y-134902000D01*
X92679000Y-137178000D02*
X92679000Y-134822000D01*
X92719000Y-137251000D02*
X92719000Y-134749000D01*
X92759000Y-137319000D02*
X92759000Y-134681000D01*
X92799000Y-137383000D02*
X92799000Y-134617000D01*
X92839000Y-137443000D02*
X92839000Y-134557000D01*
X92879000Y-137500000D02*
X92879000Y-134500000D01*
X92919000Y-137554000D02*
X92919000Y-134446000D01*
X92959000Y-137605000D02*
X92959000Y-134395000D01*
X92999000Y-134960000D02*
X92999000Y-134347000D01*
X92999000Y-137653000D02*
X92999000Y-137040000D01*
X93039000Y-134960000D02*
X93039000Y-134301000D01*
X93039000Y-137699000D02*
X93039000Y-137040000D01*
X93079000Y-134960000D02*
X93079000Y-134257000D01*
X93079000Y-137743000D02*
X93079000Y-137040000D01*
X93119000Y-134960000D02*
X93119000Y-134215000D01*
X93119000Y-137785000D02*
X93119000Y-137040000D01*
X93159000Y-134960000D02*
X93159000Y-134174000D01*
X93159000Y-137826000D02*
X93159000Y-137040000D01*
X93199000Y-134960000D02*
X93199000Y-134136000D01*
X93199000Y-137864000D02*
X93199000Y-137040000D01*
X93239000Y-134960000D02*
X93239000Y-134099000D01*
X93239000Y-137901000D02*
X93239000Y-137040000D01*
X93279000Y-134960000D02*
X93279000Y-134063000D01*
X93279000Y-137937000D02*
X93279000Y-137040000D01*
X93319000Y-134960000D02*
X93319000Y-134029000D01*
X93319000Y-137971000D02*
X93319000Y-137040000D01*
X93359000Y-134960000D02*
X93359000Y-133996000D01*
X93359000Y-138004000D02*
X93359000Y-137040000D01*
X93399000Y-134960000D02*
X93399000Y-133965000D01*
X93399000Y-138035000D02*
X93399000Y-137040000D01*
X93439000Y-134960000D02*
X93439000Y-133935000D01*
X93439000Y-138065000D02*
X93439000Y-137040000D01*
X93479000Y-134960000D02*
X93479000Y-133905000D01*
X93479000Y-138095000D02*
X93479000Y-137040000D01*
X93519000Y-134960000D02*
X93519000Y-133878000D01*
X93519000Y-138122000D02*
X93519000Y-137040000D01*
X93559000Y-134960000D02*
X93559000Y-133851000D01*
X93559000Y-138149000D02*
X93559000Y-137040000D01*
X93599000Y-134960000D02*
X93599000Y-133825000D01*
X93599000Y-138175000D02*
X93599000Y-137040000D01*
X93639000Y-134960000D02*
X93639000Y-133800000D01*
X93639000Y-138200000D02*
X93639000Y-137040000D01*
X93679000Y-134960000D02*
X93679000Y-133776000D01*
X93679000Y-138224000D02*
X93679000Y-137040000D01*
X93719000Y-134960000D02*
X93719000Y-133753000D01*
X93719000Y-138247000D02*
X93719000Y-137040000D01*
X93759000Y-134960000D02*
X93759000Y-133732000D01*
X93759000Y-138268000D02*
X93759000Y-137040000D01*
X93799000Y-134960000D02*
X93799000Y-133710000D01*
X93799000Y-138290000D02*
X93799000Y-137040000D01*
X93839000Y-134960000D02*
X93839000Y-133690000D01*
X93839000Y-138310000D02*
X93839000Y-137040000D01*
X93879000Y-134960000D02*
X93879000Y-133671000D01*
X93879000Y-138329000D02*
X93879000Y-137040000D01*
X93919000Y-134960000D02*
X93919000Y-133652000D01*
X93919000Y-138348000D02*
X93919000Y-137040000D01*
X93959000Y-134960000D02*
X93959000Y-133635000D01*
X93959000Y-138365000D02*
X93959000Y-137040000D01*
X93999000Y-134960000D02*
X93999000Y-133618000D01*
X93999000Y-138382000D02*
X93999000Y-137040000D01*
X94039000Y-134960000D02*
X94039000Y-133602000D01*
X94039000Y-138398000D02*
X94039000Y-137040000D01*
X94079000Y-134960000D02*
X94079000Y-133586000D01*
X94079000Y-138414000D02*
X94079000Y-137040000D01*
X94119000Y-134960000D02*
X94119000Y-133572000D01*
X94119000Y-138428000D02*
X94119000Y-137040000D01*
X94159000Y-134960000D02*
X94159000Y-133558000D01*
X94159000Y-138442000D02*
X94159000Y-137040000D01*
X94199000Y-134960000D02*
X94199000Y-133545000D01*
X94199000Y-138455000D02*
X94199000Y-137040000D01*
X94239000Y-134960000D02*
X94239000Y-133532000D01*
X94239000Y-138468000D02*
X94239000Y-137040000D01*
X94279000Y-134960000D02*
X94279000Y-133520000D01*
X94279000Y-138480000D02*
X94279000Y-137040000D01*
X94320000Y-134960000D02*
X94320000Y-133509000D01*
X94320000Y-138491000D02*
X94320000Y-137040000D01*
X94360000Y-134960000D02*
X94360000Y-133499000D01*
X94360000Y-138501000D02*
X94360000Y-137040000D01*
X94400000Y-134960000D02*
X94400000Y-133489000D01*
X94400000Y-138511000D02*
X94400000Y-137040000D01*
X94440000Y-134960000D02*
X94440000Y-133480000D01*
X94440000Y-138520000D02*
X94440000Y-137040000D01*
X94480000Y-134960000D02*
X94480000Y-133472000D01*
X94480000Y-138528000D02*
X94480000Y-137040000D01*
X94520000Y-134960000D02*
X94520000Y-133464000D01*
X94520000Y-138536000D02*
X94520000Y-137040000D01*
X94560000Y-134960000D02*
X94560000Y-133457000D01*
X94560000Y-138543000D02*
X94560000Y-137040000D01*
X94600000Y-134960000D02*
X94600000Y-133450000D01*
X94600000Y-138550000D02*
X94600000Y-137040000D01*
X94640000Y-134960000D02*
X94640000Y-133444000D01*
X94640000Y-138556000D02*
X94640000Y-137040000D01*
X94680000Y-134960000D02*
X94680000Y-133439000D01*
X94680000Y-138561000D02*
X94680000Y-137040000D01*
X94720000Y-134960000D02*
X94720000Y-133435000D01*
X94720000Y-138565000D02*
X94720000Y-137040000D01*
X94760000Y-134960000D02*
X94760000Y-133431000D01*
X94760000Y-138569000D02*
X94760000Y-137040000D01*
X94800000Y-134960000D02*
X94800000Y-133427000D01*
X94800000Y-138573000D02*
X94800000Y-137040000D01*
X94840000Y-134960000D02*
X94840000Y-133424000D01*
X94840000Y-138576000D02*
X94840000Y-137040000D01*
X94880000Y-134960000D02*
X94880000Y-133422000D01*
X94880000Y-138578000D02*
X94880000Y-137040000D01*
X94920000Y-134960000D02*
X94920000Y-133421000D01*
X94920000Y-138579000D02*
X94920000Y-137040000D01*
X94960000Y-134960000D02*
X94960000Y-133420000D01*
X94960000Y-138580000D02*
X94960000Y-137040000D01*
X95000000Y-134960000D02*
X95000000Y-133420000D01*
X95000000Y-138580000D02*
X95000000Y-137040000D01*
X97554775Y-137725000D02*
X97554775Y-137225000D01*
X97804775Y-137475000D02*
X97304775Y-137475000D01*
X97620000Y-136000000D02*
G75*
G02*
X92380000Y-136000000I-2620000J0D01*
G01*
X92380000Y-136000000D02*
G75*
G02*
X97620000Y-136000000I2620000J0D01*
G01*
%TD*%
M02*
