M48
; DRILL file {KiCad 8.0.6} date 2024-12-05T23:25:42+0000
; FORMAT={-:-/ absolute / inch / decimal}
; #@! TF.CreationDate,2024-12-05T23:25:42+00:00
; #@! TF.GenerationSoftware,Kicad,Pcbnew,8.0.6
; #@! TF.FileFunction,Plated,1,2,PTH
FMAT,2
INCH
; #@! TA.AperFunction,Plated,PTH,ViaDrill
T1C0.0118
; #@! TA.AperFunction,Plated,PTH,ComponentDrill
T2C0.0300
; #@! TA.AperFunction,Plated,PTH,ComponentDrill
T3C0.0315
; #@! TA.AperFunction,Plated,PTH,ComponentDrill
T4C0.0394
%
G90
G05
T1
X5.8366Y-4.626
T2
X4.0858Y-4.3524
X4.0858Y-5.3524
X4.1858Y-4.3524
X4.1858Y-5.3524
X4.2858Y-4.3524
X4.2858Y-5.3524
X4.3858Y-4.3524
X4.3858Y-5.3524
X4.4858Y-4.3524
X4.4858Y-5.3524
X4.5858Y-4.3524
X4.5858Y-5.3524
X4.6858Y-4.3524
X4.6858Y-5.3524
X4.7858Y-4.3524
X4.7858Y-5.3524
X4.8858Y-4.3524
X4.8858Y-5.3524
X4.9858Y-4.3524
X4.9858Y-5.3524
X5.0858Y-4.3524
X5.0858Y-5.3524
X5.1858Y-4.3524
X5.1858Y-5.3524
X5.2858Y-4.3524
X5.2858Y-5.3524
X5.3858Y-4.3524
X5.3858Y-5.3524
X5.4858Y-4.3524
X5.4858Y-5.3524
X5.5858Y-4.3524
X5.5858Y-5.3524
X5.6858Y-4.3524
X5.6858Y-5.3524
X5.7858Y-4.3524
X5.7858Y-5.3524
T3
X3.6909Y-4.6161
X3.6909Y-4.7756
X3.6909Y-4.9508
X3.6909Y-5.1181
X3.7008Y-4.3898
X3.7008Y-5.3543
X3.7795Y-4.3898
X3.7795Y-5.3543
X3.7894Y-4.6161
X3.7894Y-4.7756
X3.7894Y-4.9508
X3.7894Y-5.1181
X4.2004Y-4.0256
X4.2094Y-3.8878
X4.3012Y-4.1437
X4.311Y-3.75
X4.3996Y-4.1437
X4.4094Y-3.75
X4.5004Y-4.0256
X4.5094Y-3.8878
X4.685Y-3.7008
X4.685Y-3.7992
X4.685Y-3.9028
X4.685Y-4.2028
X4.8307Y-3.876
X4.8307Y-3.976
X4.8307Y-4.076
X4.8307Y-4.176
X4.8803Y-3.7106
X5.1307Y-3.876
X5.1307Y-3.976
X5.1307Y-4.076
X5.1307Y-4.176
X5.1803Y-3.7106
X5.315Y-3.6909
X5.315Y-3.7894
X5.315Y-3.9043
X5.315Y-4.2043
T4
X3.8976Y-3.9665
X3.8976Y-4.0665
X3.8976Y-4.1665
X3.9173Y-2.1161
X3.9173Y-2.9035
X3.9976Y-3.9665
X3.9976Y-4.0665
X3.9976Y-4.1665
X4.6949Y-2.9035
X4.7047Y-2.1161
X4.9016Y-3.5531
X5.0016Y-3.5531
X5.1016Y-3.5531
X5.5512Y-3.7106
X5.8465Y-4.8409
X5.8465Y-4.9409
X5.9465Y-4.8409
X5.9465Y-4.9409
X5.9843Y-2.5098
X6.0465Y-4.8409
X6.0465Y-4.9409
X6.1319Y-2.9035
X6.1417Y-2.1161
X6.1465Y-4.8409
X6.1465Y-4.9409
X6.2465Y-4.8409
X6.2465Y-4.9409
X6.565Y-4.438
X6.665Y-4.438
X6.765Y-4.438
X6.865Y-4.438
X7.185Y-2.1161
X7.1949Y-2.9035
X7.3228Y-2.5098
M30
