%TF.GenerationSoftware,KiCad,Pcbnew,8.0.6*%
%TF.CreationDate,2024-12-05T23:25:41+00:00*%
%TF.ProjectId,DiamondGeezer,4469616d-6f6e-4644-9765-657a65722e6b,rev?*%
%TF.SameCoordinates,Original*%
%TF.FileFunction,Drillmap*%
%TF.FilePolarity,Positive*%
%FSLAX45Y45*%
G04 Gerber Fmt 4.5, Leading zero omitted, Abs format (unit mm)*
G04 Created by KiCad (PCBNEW 8.0.6) date 2024-12-05 23:25:41*
%MOMM*%
%LPD*%
G01*
G04 APERTURE LIST*
%ADD10C,0.050000*%
%ADD11C,0.200000*%
G04 APERTURE END LIST*
D10*
X9250000Y-14225000D02*
G75*
G02*
X8900000Y-13875000I0J350000D01*
G01*
X19000000Y-13875000D02*
G75*
G02*
X18650000Y-14225000I-350000J0D01*
G01*
X18800000Y-12825000D02*
G75*
G02*
X18550000Y-12825000I-125000J0D01*
G01*
X18550000Y-12825000D02*
G75*
G02*
X18800000Y-12825000I125000J0D01*
G01*
X18775000Y-9075000D02*
G75*
G02*
X18525000Y-9075000I-125000J0D01*
G01*
X18525000Y-9075000D02*
G75*
G02*
X18775000Y-9075000I125000J0D01*
G01*
X8900000Y-4850000D02*
G75*
G02*
X9250000Y-4500000I350000J0D01*
G01*
X9250000Y-14225000D02*
X18650000Y-14225000D01*
X16225000Y-9075000D02*
G75*
G02*
X15975000Y-9075000I-125000J0D01*
G01*
X15975000Y-9075000D02*
G75*
G02*
X16225000Y-9075000I125000J0D01*
G01*
X8900000Y-4850000D02*
X8900000Y-13875000D01*
X18241559Y-6375000D02*
G75*
G02*
X15658441Y-6375000I-1291559J0D01*
G01*
X15658441Y-6375000D02*
G75*
G02*
X18241559Y-6375000I1291559J0D01*
G01*
X18592201Y-4484169D02*
G75*
G02*
X18992317Y-4897488I2619J-397791D01*
G01*
X18775000Y-10825000D02*
G75*
G02*
X18525000Y-10825000I-125000J0D01*
G01*
X18525000Y-10825000D02*
G75*
G02*
X18775000Y-10825000I125000J0D01*
G01*
X16225000Y-10825000D02*
G75*
G02*
X15975000Y-10825000I-125000J0D01*
G01*
X15975000Y-10825000D02*
G75*
G02*
X16225000Y-10825000I125000J0D01*
G01*
X18592201Y-4484169D02*
X9250000Y-4500000D01*
X19000000Y-13875000D02*
X19000000Y-12700000D01*
X14500000Y-12825000D02*
G75*
G02*
X14250000Y-12825000I-125000J0D01*
G01*
X14250000Y-12825000D02*
G75*
G02*
X14500000Y-12825000I125000J0D01*
G01*
X19000000Y-12700000D02*
X18992313Y-4897487D01*
X14475000Y-9725000D02*
G75*
G02*
X14225000Y-9725000I-125000J0D01*
G01*
X14225000Y-9725000D02*
G75*
G02*
X14475000Y-9725000I125000J0D01*
G01*
X18775000Y-9725000D02*
G75*
G02*
X18525000Y-9725000I-125000J0D01*
G01*
X18525000Y-9725000D02*
G75*
G02*
X18775000Y-9725000I125000J0D01*
G01*
D11*
X9158277Y-14538984D02*
X9158277Y-14338984D01*
X9158277Y-14338984D02*
X9205896Y-14338984D01*
X9205896Y-14338984D02*
X9234467Y-14348508D01*
X9234467Y-14348508D02*
X9253515Y-14367555D01*
X9253515Y-14367555D02*
X9263039Y-14386603D01*
X9263039Y-14386603D02*
X9272563Y-14424698D01*
X9272563Y-14424698D02*
X9272563Y-14453269D01*
X9272563Y-14453269D02*
X9263039Y-14491365D01*
X9263039Y-14491365D02*
X9253515Y-14510412D01*
X9253515Y-14510412D02*
X9234467Y-14529460D01*
X9234467Y-14529460D02*
X9205896Y-14538984D01*
X9205896Y-14538984D02*
X9158277Y-14538984D01*
X9358277Y-14538984D02*
X9358277Y-14405650D01*
X9358277Y-14443746D02*
X9367801Y-14424698D01*
X9367801Y-14424698D02*
X9377324Y-14415174D01*
X9377324Y-14415174D02*
X9396372Y-14405650D01*
X9396372Y-14405650D02*
X9415420Y-14405650D01*
X9482086Y-14538984D02*
X9482086Y-14405650D01*
X9482086Y-14338984D02*
X9472563Y-14348508D01*
X9472563Y-14348508D02*
X9482086Y-14358031D01*
X9482086Y-14358031D02*
X9491610Y-14348508D01*
X9491610Y-14348508D02*
X9482086Y-14338984D01*
X9482086Y-14338984D02*
X9482086Y-14358031D01*
X9605896Y-14538984D02*
X9586848Y-14529460D01*
X9586848Y-14529460D02*
X9577324Y-14510412D01*
X9577324Y-14510412D02*
X9577324Y-14338984D01*
X9710658Y-14538984D02*
X9691610Y-14529460D01*
X9691610Y-14529460D02*
X9682086Y-14510412D01*
X9682086Y-14510412D02*
X9682086Y-14338984D01*
X9939229Y-14538984D02*
X9939229Y-14338984D01*
X9939229Y-14338984D02*
X10005896Y-14481841D01*
X10005896Y-14481841D02*
X10072563Y-14338984D01*
X10072563Y-14338984D02*
X10072563Y-14538984D01*
X10253515Y-14538984D02*
X10253515Y-14434222D01*
X10253515Y-14434222D02*
X10243991Y-14415174D01*
X10243991Y-14415174D02*
X10224944Y-14405650D01*
X10224944Y-14405650D02*
X10186848Y-14405650D01*
X10186848Y-14405650D02*
X10167801Y-14415174D01*
X10253515Y-14529460D02*
X10234467Y-14538984D01*
X10234467Y-14538984D02*
X10186848Y-14538984D01*
X10186848Y-14538984D02*
X10167801Y-14529460D01*
X10167801Y-14529460D02*
X10158277Y-14510412D01*
X10158277Y-14510412D02*
X10158277Y-14491365D01*
X10158277Y-14491365D02*
X10167801Y-14472317D01*
X10167801Y-14472317D02*
X10186848Y-14462793D01*
X10186848Y-14462793D02*
X10234467Y-14462793D01*
X10234467Y-14462793D02*
X10253515Y-14453269D01*
X10348753Y-14405650D02*
X10348753Y-14605650D01*
X10348753Y-14415174D02*
X10367801Y-14405650D01*
X10367801Y-14405650D02*
X10405896Y-14405650D01*
X10405896Y-14405650D02*
X10424944Y-14415174D01*
X10424944Y-14415174D02*
X10434467Y-14424698D01*
X10434467Y-14424698D02*
X10443991Y-14443746D01*
X10443991Y-14443746D02*
X10443991Y-14500888D01*
X10443991Y-14500888D02*
X10434467Y-14519936D01*
X10434467Y-14519936D02*
X10424944Y-14529460D01*
X10424944Y-14529460D02*
X10405896Y-14538984D01*
X10405896Y-14538984D02*
X10367801Y-14538984D01*
X10367801Y-14538984D02*
X10348753Y-14529460D01*
X10529705Y-14519936D02*
X10539229Y-14529460D01*
X10539229Y-14529460D02*
X10529705Y-14538984D01*
X10529705Y-14538984D02*
X10520182Y-14529460D01*
X10520182Y-14529460D02*
X10529705Y-14519936D01*
X10529705Y-14519936D02*
X10529705Y-14538984D01*
X10529705Y-14415174D02*
X10539229Y-14424698D01*
X10539229Y-14424698D02*
X10529705Y-14434222D01*
X10529705Y-14434222D02*
X10520182Y-14424698D01*
X10520182Y-14424698D02*
X10529705Y-14415174D01*
X10529705Y-14415174D02*
X10529705Y-14434222D01*
M02*
